<?xml version="1.0" standalone="no"?>
<!DOCTYPE svg PUBLIC "-//W3C//DTD SVG 1.1//EN" "http://www.w3.org/Graphics/SVG/1.1/DTD/svg11.dtd" >
<svg xmlns="http://www.w3.org/2000/svg" width="100%" height="100%">
<metadata>
Created by FontXChange 20100429 at Tue Jul 10 15:07:59 2012
 By jpg

</metadata>
<defs>
<font id="TisaOT-Medi" horiz-adv-x="570" >
  <font-face 
    font-family="TisaOT"
    font-weight="500"
    font-stretch="normal"
    units-per-em="1000"
    panose-1="2 1 6 4 4 1 1 2 1 2"
    ascent="741"
    descent="-259"
    x-height="481"
    cap-height="701"
    bbox="-501 -302 1339 963"
    underline-thickness="80"
    underline-position="-120"
    stemh="77"
    stemv="115"
    unicode-range="U+000D-FB04"
  />
<missing-glyph horiz-adv-x="736" 
d="M102 0v723h532v-723h-532zM365 204c-32 0 -59 -23 -59 -54c0 -38 22 -59 59 -59c31 0 57 22 57 59c0 32 -26 54 -57 54zM312 504v51c10 5 31 9 44 9c43 0 60 -27 60 -51c0 -69 -121 -106 -121 -186c0 -27 17 -58 34 -76c24 3 56 16 72 29c-11 14 -19 36 -19 55
c0 53 134 86 134 187c0 66 -53 105 -143 105c-47 0 -109 -12 -145 -25c0 -37 4 -82 11 -115c19 0 56 8 73 17z" />
    <glyph glyph-name="f_b" unicode="fb" horiz-adv-x="935" 
d="M559 706v-155c0 -41 -4 -91 -8 -128h13c17 39 62 75 136 75c92 0 194 -61 194 -244c0 -163 -105 -271 -257 -271c-67 0 -136 13 -192 42v625c-23 10 -52 16 -80 16c-89 0 -143 -46 -143 -144v-41h125c4 -19 7 -56 5 -77h-130v-323c27 -3 71 -11 92 -19c4 -14 6 -45 4 -62
h-287c2 19 8 44 15 58c15 9 42 19 61 24v322h-78c1 18 8 53 16 71c16 8 43 16 62 20v23c0 150 102 219 257 219c58 0 139 -11 195 -31zM557 358v-288c19 -6 46 -10 69 -10c102 0 148 72 148 180c0 111 -48 173 -114 173c-47 0 -83 -25 -103 -55z" />
    <glyph glyph-name="f_f" unicode="ff" horiz-adv-x="733" 
d="M588 481h133c4 -19 7 -56 5 -77h-138v-323c29 -3 76 -12 98 -20c5 -14 7 -44 4 -61h-293c2 19 8 44 15 58c15 9 42 19 62 24v322h-252v-323c28 -3 73 -11 94 -19c5 -14 7 -45 4 -62h-289c2 19 8 44 15 58c15 9 42 19 61 24v322h-78c1 18 8 53 16 71c16 8 43 16 62 20v31
c0 141 84 201 197 201c38 0 88 -7 129 -21c2 -12 3 -26 3 -40c0 -34 -6 -70 -15 -97c-23 1 -65 10 -83 20v64c-10 5 -24 7 -34 7c-49 0 -82 -32 -82 -122v-57h252v56c0 140 86 200 203 200c39 0 90 -7 130 -21c3 -12 4 -26 4 -40c0 -34 -7 -69 -15 -97c-24 1 -65 10 -84 20
v64c-10 5 -26 7 -36 7c-51 0 -88 -33 -88 -122v-67z" />
    <glyph glyph-name="f_f_b" unicode="ffb" horiz-adv-x="1303" 
d="M927 706v-155c0 -41 -4 -91 -8 -128h13c17 39 62 75 137 75c91 0 193 -61 193 -244c0 -163 -105 -271 -257 -271c-67 0 -135 13 -192 42v625c-23 10 -54 16 -82 16c-88 0 -143 -46 -143 -144v-41h125c4 -19 7 -56 5 -77h-130v-323c27 -3 71 -11 92 -19c5 -14 6 -45 4 -62
h-287c2 19 8 44 15 58c15 9 42 19 62 24v322h-252v-323c28 -3 73 -11 94 -19c5 -14 7 -45 4 -62h-289c2 19 8 44 15 58c15 9 42 19 61 24v322h-78c1 18 8 53 16 71c16 8 43 16 62 20v31c0 141 84 201 197 201c38 0 88 -7 129 -21c2 -12 3 -26 3 -40c0 -34 -6 -70 -15 -97
c-23 1 -65 10 -83 20v64c-10 5 -24 7 -34 7c-49 0 -82 -32 -82 -122v-57h252v37c0 150 101 219 256 219c58 0 141 -11 197 -31zM925 358v-288c20 -6 46 -10 70 -10c101 0 147 72 147 180c0 111 -48 173 -114 173c-47 0 -83 -25 -103 -55z" />
    <glyph glyph-name="f_f_h" unicode="ffh" horiz-adv-x="1357" 
d="M832 650c-25 10 -58 16 -88 16c-96 0 -155 -45 -155 -144v-41h124c4 -19 7 -56 5 -77h-129v-323c26 -3 70 -11 90 -19c4 -14 6 -45 4 -62h-285c2 19 8 44 15 58c15 9 42 19 61 24v322h-252v-323c28 -3 73 -11 94 -19c5 -14 7 -45 4 -62h-289c2 19 8 44 15 58
c15 9 42 19 61 24v322h-78c1 18 8 53 16 71c16 8 43 16 62 20v31c0 141 84 201 197 201c38 0 88 -7 129 -21c2 -12 3 -26 3 -40c0 -34 -6 -70 -15 -97c-23 1 -65 10 -83 20v64c-10 5 -24 7 -34 7c-49 0 -82 -32 -82 -122v-57h252v37c0 150 105 219 268 219
c60 0 145 -11 204 -31v-154c0 -44 -3 -98 -7 -145h12c20 49 71 91 158 91c81 0 157 -25 157 -181c0 -79 -3 -163 -7 -239c24 -2 56 -9 76 -16c3 -13 4 -26 4 -39c0 -9 -1 -17 -2 -23h-254c2 19 7 44 14 58c13 9 36 18 52 24v215c0 68 -23 113 -87 113
c-50 0 -95 -34 -116 -66v-266c22 -3 53 -9 70 -16c3 -14 5 -45 3 -62h-261c2 19 8 44 15 58c14 9 40 18 59 24v568z" />
    <glyph glyph-name="f_f_i" unicode="ffi" horiz-adv-x="1054" 
d="M589 481h117c4 -19 7 -56 5 -77h-122v-323c27 -3 72 -11 93 -19c5 -14 7 -45 4 -62h-288c2 19 8 44 15 58c15 9 42 19 61 24v322h-252v-323c28 -3 73 -11 94 -19c5 -14 7 -45 4 -62h-289c2 19 8 44 15 58c15 9 42 19 61 24v322h-78c1 18 8 53 16 71c16 8 43 16 62 20v31
c0 141 84 201 197 201c38 0 88 -7 129 -21c2 -12 3 -26 3 -40c0 -34 -6 -70 -15 -97c-23 1 -65 10 -83 20v64c-10 5 -24 7 -34 7c-49 0 -82 -32 -82 -122v-57h252v32c0 157 101 224 263 224c62 0 146 -14 207 -39c2 -10 3 -27 3 -40c0 -32 -5 -70 -13 -92
c-25 0 -81 10 -100 22v57c-25 13 -64 22 -96 22c-96 0 -149 -45 -149 -150v-36zM838 82v321h-72c0 22 8 54 20 71c25 10 64 17 102 17c22 0 49 -3 65 -8v-405c23 -2 55 -9 75 -16c3 -13 4 -27 4 -40c0 -8 -1 -16 -2 -22h-268c2 19 8 44 15 58c15 9 41 19 61 24z" />
    <glyph glyph-name="f_f_j" unicode="ffj" horiz-adv-x="1012" 
d="M589 481h115c4 -19 7 -56 5 -77h-120v-323c27 -3 72 -11 93 -19c5 -14 7 -45 4 -62h-288c2 19 8 44 15 58c15 9 42 19 61 24v322h-252v-323c28 -3 73 -11 94 -19c5 -14 7 -45 4 -62h-289c2 19 8 44 15 58c15 9 42 19 61 24v322h-78c1 18 8 53 16 71c16 8 43 16 62 20v31
c0 141 84 201 197 201c38 0 88 -7 129 -21c2 -12 3 -26 3 -40c0 -34 -6 -70 -15 -97c-23 1 -65 10 -83 20v64c-10 5 -24 7 -34 7c-49 0 -82 -32 -82 -122v-57h252v32c0 155 105 224 271 224c60 0 139 -12 195 -34c2 -10 3 -27 3 -40c0 -32 -5 -70 -13 -92
c-25 0 -81 10 -100 22v57c-23 10 -58 17 -88 17c-97 0 -153 -47 -153 -150v-36zM829 403h-73c1 22 10 54 21 71c25 10 64 17 102 17c21 0 48 -3 64 -8v-397c0 -150 -78 -249 -155 -327c-24 8 -54 30 -67 50c52 57 108 137 108 253v341z" />
    <glyph glyph-name="f_f_k" unicode="ffk" horiz-adv-x="1322" 
d="M832 650c-25 10 -58 16 -88 16c-96 0 -155 -45 -155 -144v-41h125c4 -19 7 -56 5 -77h-130v-323c26 -3 70 -11 90 -19c4 -14 6 -45 4 -62h-285c2 19 8 44 15 58c15 9 42 19 61 24v322h-252v-323c28 -3 73 -11 94 -19c5 -14 7 -45 4 -62h-289c2 19 8 44 15 58
c15 9 42 19 61 24v322h-78c1 18 8 53 16 71c16 8 43 16 62 20v31c0 141 84 201 197 201c38 0 88 -7 129 -21c2 -12 3 -26 3 -40c0 -34 -6 -70 -15 -97c-23 1 -65 10 -83 20v64c-10 5 -24 7 -34 7c-49 0 -82 -32 -82 -122v-57h252v37c0 150 105 219 268 219
c60 0 145 -11 204 -31v-408h50l67 69c10 10 32 28 47 35c-17 3 -45 9 -58 15c-6 18 -10 43 -10 64h240c0 -21 -6 -52 -14 -70c-12 -5 -39 -9 -55 -11l-134 -126c73 -97 155 -188 176 -200l60 10c1 -6 1 -14 1 -16c0 -19 -7 -51 -16 -68c-23 -9 -48 -18 -84 -21
c-45 8 -141 132 -229 251h-41v-152c23 -3 51 -9 68 -16c4 -14 5 -45 3 -62h-259c2 19 8 44 15 58c14 9 40 18 59 24v568z" />
    <glyph glyph-name="f_f_l" unicode="ffl" horiz-adv-x="1048" 
d="M589 481h128c4 -19 7 -56 5 -77h-133v-323c26 -3 70 -11 90 -19c4 -14 6 -45 4 -62h-285c2 19 8 44 15 58c15 9 42 19 61 24v322h-252v-323c28 -3 73 -11 94 -19c5 -14 7 -45 4 -62h-289c2 19 8 44 15 58c15 9 42 19 61 24v322h-78c1 18 8 53 16 71c16 8 43 16 62 20v31
c0 141 84 201 197 201c38 0 88 -7 129 -21c2 -12 3 -26 3 -40c0 -34 -6 -70 -15 -97c-23 1 -65 10 -83 20v64c-10 5 -24 7 -34 7c-49 0 -82 -32 -82 -122v-57h252v37c0 150 106 219 268 219c61 0 146 -11 205 -31v-628c23 -2 57 -9 77 -16c3 -13 4 -26 4 -39
c0 -9 -1 -17 -2 -23h-268c2 19 8 44 15 58c14 9 40 18 59 24v568c-25 10 -58 16 -88 16c-96 0 -155 -45 -155 -144v-41z" />
    <glyph glyph-name="f_h" unicode="fh" horiz-adv-x="990" 
d="M465 650c-25 10 -58 16 -88 16c-96 0 -155 -45 -155 -144v-41h124c4 -19 7 -56 5 -77h-129v-323c26 -3 70 -11 90 -19c4 -14 6 -45 4 -62h-285c2 19 8 44 15 58c15 9 42 19 61 24v322h-78c1 18 8 53 16 71c16 8 43 16 62 20v23c0 150 105 219 268 219
c60 0 145 -11 204 -31v-154c0 -44 -3 -98 -7 -145h12c20 49 71 91 158 91c81 0 157 -25 157 -181c0 -79 -3 -163 -7 -239c24 -2 56 -9 76 -16c3 -13 4 -26 4 -39c0 -9 -1 -17 -2 -23h-254c2 19 7 44 14 58c13 9 36 18 52 24v215c0 68 -23 113 -87 113
c-50 0 -95 -34 -116 -66v-266c22 -3 53 -9 70 -16c3 -14 5 -45 3 -62h-261c2 19 8 44 15 58c14 9 40 18 59 24v568z" />
    <glyph glyph-name="f_i" unicode="fi" horiz-adv-x="686" 
d="M221 481h117c4 -19 7 -56 5 -77h-122v-323c27 -3 72 -11 93 -19c5 -14 7 -45 4 -62h-288c2 19 8 44 15 58c15 9 42 19 61 24v322h-77c0 19 6 54 15 71c16 8 43 16 62 20v18c0 157 101 224 263 224c62 0 146 -14 207 -39c2 -10 3 -27 3 -40c0 -32 -5 -70 -13 -92
c-25 0 -81 10 -100 22v57c-25 13 -64 22 -96 22c-96 0 -149 -45 -149 -150v-36zM470 82v321h-72c0 22 8 54 20 71c25 10 64 17 102 17c22 0 49 -3 65 -8v-405c23 -2 55 -9 75 -16c3 -13 4 -27 4 -40c0 -8 -1 -16 -2 -22h-268c2 19 8 44 15 58c15 9 41 19 61 24z" />
    <glyph glyph-name="f_iacute" unicode="f&#xed;" horiz-adv-x="685" 
d="M221 481h122c5 -21 7 -55 7 -77h-129v-325c28 -2 74 -10 97 -17c4 -17 5 -46 2 -62h-290c2 19 8 44 15 58c15 9 42 19 61 24v322h-77c0 19 6 54 15 71c16 8 43 16 62 20v37c0 144 84 205 197 205c38 0 88 -7 129 -21c2 -12 3 -26 3 -40c0 -34 -6 -70 -15 -97
c-23 1 -65 10 -83 20v64c-10 5 -24 7 -34 7c-50 0 -82 -33 -82 -126v-63zM470 82v321h-72c1 22 8 53 20 71c24 10 64 17 101 17c22 0 49 -3 65 -8v-405c23 -2 55 -9 75 -16c3 -13 4 -26 4 -39c0 -9 -1 -17 -2 -23h-268c2 19 8 44 15 58c15 9 42 18 62 24zM702 718l-169 -174
c-19 7 -48 32 -59 48l119 166c26 0 88 -21 109 -40z" />
    <glyph glyph-name="f_j" unicode="fj" horiz-adv-x="645" 
d="M222 481h115c4 -19 7 -56 5 -77h-120v-323c27 -3 72 -11 93 -19c5 -14 7 -45 4 -62h-288c2 19 8 44 15 58c15 9 42 19 61 24v322h-78c1 18 8 53 16 71c16 8 43 16 62 20v18c0 155 105 224 271 224c60 0 139 -12 195 -34c2 -10 3 -27 3 -40c0 -32 -5 -70 -13 -92
c-25 0 -81 10 -100 22v57c-23 10 -58 17 -88 17c-97 0 -153 -47 -153 -150v-36zM462 403h-73c1 22 10 54 21 71c25 10 64 17 102 17c21 0 48 -3 64 -8v-397c0 -150 -78 -249 -155 -327c-24 8 -54 30 -67 50c52 57 108 137 108 253v341z" />
    <glyph glyph-name="f_k" unicode="fk" horiz-adv-x="955" 
d="M465 650c-25 10 -58 16 -88 16c-96 0 -155 -45 -155 -144v-41h125c4 -19 7 -56 5 -77h-130v-323c26 -3 70 -11 90 -19c4 -14 6 -45 4 -62h-285c2 19 8 44 15 58c15 9 42 19 61 24v322h-78c1 18 8 53 16 71c16 8 43 16 62 20v23c0 150 105 219 268 219
c60 0 145 -11 204 -31v-408h50l67 69c10 10 32 28 47 35c-17 3 -45 9 -58 15c-6 18 -10 43 -10 64h240c0 -21 -6 -52 -14 -70c-12 -5 -39 -9 -55 -11l-134 -126c73 -97 155 -188 176 -200l60 10c1 -6 1 -14 1 -16c0 -19 -7 -51 -16 -68c-23 -9 -48 -18 -84 -21
c-45 8 -141 132 -229 251h-41v-152c23 -3 51 -9 68 -16c4 -14 5 -45 3 -62h-259c2 19 8 44 15 58c14 9 40 18 59 24v568z" />
    <glyph glyph-name="f_l" unicode="fl" horiz-adv-x="680" 
d="M221 481h128c4 -19 7 -56 5 -77h-133v-323c26 -3 70 -11 90 -19c4 -14 6 -45 4 -62h-285c2 19 8 44 15 58c15 9 42 19 61 24v322h-77c0 19 6 54 15 71c16 8 43 16 62 20v23c0 150 106 219 268 219c61 0 146 -11 205 -31v-628c23 -2 57 -9 77 -16c3 -13 4 -26 4 -39
c0 -9 -1 -17 -2 -23h-268c2 19 8 44 15 58c14 9 40 18 59 24v568c-25 10 -58 16 -88 16c-96 0 -155 -45 -155 -144v-41z" />
    <glyph glyph-name=".notdef" horiz-adv-x="736" 
d="M102 0v723h532v-723h-532zM365 204c-32 0 -59 -23 -59 -54c0 -38 22 -59 59 -59c31 0 57 22 57 59c0 32 -26 54 -57 54zM312 504v51c10 5 31 9 44 9c43 0 60 -27 60 -51c0 -69 -121 -106 -121 -186c0 -27 17 -58 34 -76c24 3 56 16 72 29c-11 14 -19 36 -19 55
c0 53 134 86 134 187c0 66 -53 105 -143 105c-47 0 -109 -12 -145 -25c0 -37 4 -82 11 -115c19 0 56 8 73 17z" />
    <glyph glyph-name=".null" horiz-adv-x="0" 
 />
    <glyph glyph-name=".null" horiz-adv-x="0" 
 />
    <glyph glyph-name="CR" unicode="&#xd;" horiz-adv-x="212" 
 />
    <glyph glyph-name="space" unicode=" " horiz-adv-x="212" 
 />
    <glyph glyph-name="exclam" unicode="!" horiz-adv-x="354" 
d="M245 702l-25 -485c-10 -2 -25 -4 -42 -4c-16 0 -32 2 -43 4l-35 476c30 8 67 12 100 12c13 0 32 -1 45 -3zM176 134c43 0 75 -26 75 -72c0 -50 -32 -78 -75 -78c-49 0 -74 27 -74 78c0 43 31 72 74 72z" />
    <glyph glyph-name="quotedbl" unicode="&#x22;" horiz-adv-x="418" 
d="M138 453c-24 0 -53 4 -74 9c4 75 7 179 7 249c31 0 79 -6 107 -13c0 -63 -22 -183 -40 -245zM330 453c-24 0 -53 4 -74 9c4 75 7 179 7 249c31 0 79 -6 107 -13c0 -63 -22 -183 -40 -245z" />
    <glyph glyph-name="numbersign" unicode="#" horiz-adv-x="598" 
d="M552 136h-105l-20 -134c-10 -2 -33 -4 -53 -4c-17 0 -37 2 -46 4l22 134h-133l-20 -134c-10 -2 -33 -4 -53 -4c-17 0 -36 2 -45 4l21 134h-99c1 19 8 51 14 69h98l24 143h-105c1 19 9 52 15 69h103l18 111c24 5 65 9 94 9l-19 -120h137l18 111c24 5 64 9 93 9l-18 -120
h93c1 -4 2 -16 2 -25c0 -16 -2 -32 -5 -44h-102l-22 -143h96c2 -17 0 -53 -3 -69zM251 348l-22 -143h134l23 143h-135z" />
    <glyph glyph-name="dollar" unicode="$" horiz-adv-x="511" 
d="M332 411v59c-14 6 -40 12 -64 12c-54 0 -78 -25 -78 -62c0 -110 275 -73 275 -267c0 -102 -73 -155 -168 -169v-83c-9 -2 -30 -3 -47 -3c-16 0 -39 1 -49 3v81c-53 5 -102 18 -145 42c-4 13 -5 32 -5 50c0 32 5 68 12 87c35 0 76 -5 106 -16v-71c25 -14 58 -20 91 -20
c56 0 87 28 87 74c0 125 -276 76 -276 268c0 83 58 138 151 151v68c23 5 68 8 96 8v-75c45 -5 89 -17 126 -35c1 -7 2 -21 2 -32c0 -32 -6 -72 -12 -93c-35 0 -78 8 -102 23z" />
    <glyph glyph-name="percent" unicode="%" horiz-adv-x="935" 
d="M200 550c104 0 170 -54 170 -156c0 -107 -65 -164 -170 -164c-110 0 -170 54 -170 164c0 96 71 156 170 156zM130 394c0 -61 26 -98 70 -98c47 0 69 36 69 98c0 52 -24 90 -69 90s-70 -35 -70 -90zM703 540l-384 -575c-24 5 -64 26 -77 39l371 556c25 -1 66 -10 90 -20z
M734 302c104 0 170 -54 170 -156c0 -107 -65 -164 -170 -164c-110 0 -170 54 -170 164c0 96 71 156 170 156zM664 146c0 -61 26 -98 70 -98c47 0 69 36 69 98c0 52 -24 90 -69 90s-70 -35 -70 -90z" />
    <glyph glyph-name="ampersand" unicode="&#x26;" horiz-adv-x="843" 
d="M712 330c-13 -62 -38 -128 -77 -185c19 -20 40 -43 57 -65c25 -1 51 -4 77 -10c6 -17 11 -52 11 -70h-162c-17 23 -40 50 -60 73c-58 -55 -134 -93 -239 -93c-122 0 -257 50 -257 193c0 96 69 169 149 191v7c-53 30 -92 73 -92 149c0 126 112 176 203 176
c86 0 189 -43 189 -153c0 -82 -63 -151 -132 -170v-7c53 -35 137 -103 189 -154c17 37 29 80 36 119c-14 2 -41 6 -53 9c-7 20 -11 48 -12 69h258c0 -18 -8 -57 -14 -73c-18 -3 -51 -5 -71 -6zM500 134c-71 72 -153 138 -234 191c-51 -28 -86 -72 -86 -135
c0 -94 69 -129 151 -129c75 0 130 30 169 73zM320 413c52 27 78 73 78 122c0 67 -44 89 -81 89c-31 0 -83 -16 -83 -83c0 -55 31 -91 86 -128z" />
    <glyph glyph-name="quotesingle" unicode="'" horiz-adv-x="226" 
d="M138 453c-24 0 -53 4 -74 9c4 75 7 179 7 249c31 0 79 -6 107 -13c0 -63 -22 -183 -40 -245z" />
    <glyph glyph-name="parenleft" unicode="(" horiz-adv-x="335" 
d="M189 -213c-82 181 -112 360 -112 500c0 137 25 303 95 465c23 12 81 19 110 19c-60 -137 -88 -316 -88 -477c0 -166 27 -330 83 -473c-22 -14 -62 -28 -88 -34z" />
    <glyph glyph-name="parenright" unicode=")" horiz-adv-x="335" 
d="M72 -181c56 141 84 306 84 469c0 159 -23 327 -72 460c20 14 60 27 90 30c71 -164 98 -348 98 -484c0 -142 -30 -327 -112 -508c-28 5 -67 19 -88 33z" />
    <glyph glyph-name="asterisk" unicode="*" horiz-adv-x="452" 
d="M359 428l-79 59c-10 8 -25 22 -32 31l-5 -4c6 -11 13 -31 14 -43l8 -94c-10 -3 -28 -5 -42 -5c-12 0 -32 2 -44 5l8 94c1 12 7 33 11 41l-5 5c-6 -8 -20 -23 -30 -30l-78 -59c-13 15 -34 54 -40 74l85 36c11 5 33 12 44 14v6c-11 1 -33 7 -44 12l-82 36c3 19 21 60 34 78
l80 -54c10 -7 26 -22 31 -30l6 4c-5 11 -11 29 -12 41l-6 89c20 4 60 7 82 7l-6 -96c-1 -12 -7 -32 -14 -43l7 -5c8 11 21 25 32 32l76 53c15 -14 40 -46 52 -66l-96 -46c-10 -5 -30 -10 -43 -11v-6c13 -1 32 -7 43 -12l90 -38c-6 -21 -31 -61 -45 -75z" />
    <glyph glyph-name="plus" unicode="+" 
d="M339 314h188c4 -16 6 -37 6 -54c0 -12 -1 -23 -3 -32h-191v-204c-12 -3 -31 -5 -51 -5c-21 0 -42 2 -56 5v204h-195c0 24 6 65 13 86h182v195c25 5 75 9 107 9v-204z" />
    <glyph glyph-name="comma" unicode="," horiz-adv-x="267" 
d="M101 16l-51 11c7 26 24 63 39 80c17 4 36 5 52 5c29 0 61 -5 86 -14c-16 -88 -71 -218 -107 -277c-22 5 -51 21 -63 31c18 49 37 117 44 164z" />
    <glyph glyph-name="hyphen" unicode="-" horiz-adv-x="369" 
d="M311 226h-262c0 27 6 71 14 94h243c4 -17 7 -42 7 -63c0 -11 -1 -24 -2 -31z" />
    <glyph glyph-name="period" unicode="." horiz-adv-x="307" 
d="M154 144c45 0 77 -27 77 -75c0 -53 -32 -81 -77 -81c-51 0 -78 27 -78 81c0 45 32 75 78 75z" />
    <glyph glyph-name="slash" unicode="/" horiz-adv-x="471" 
d="M495 745l-348 -916c-24 4 -74 21 -91 31l341 898c26 0 72 -5 98 -13z" />
    <glyph glyph-name="zero" unicode="0" horiz-adv-x="652" 
d="M326 552c167 0 273 -97 273 -278c0 -192 -104 -294 -273 -294c-175 0 -273 97 -273 294c0 173 112 278 273 278zM176 274c0 -131 56 -214 150 -214c99 0 150 80 150 214c0 116 -57 200 -150 200c-98 0 -150 -78 -150 -200z" />
    <glyph glyph-name="one" unicode="1" horiz-adv-x="456" 
d="M187 92v355l-144 -19c1 29 8 60 19 81c42 14 141 39 244 43v-463c33 -3 84 -11 115 -19c4 -13 6 -30 6 -45c0 -10 -1 -19 -2 -25h-362c4 21 13 49 22 67c26 9 72 20 102 25z" />
    <glyph glyph-name="two" unicode="2" horiz-adv-x="542" 
d="M170 364c-23 -13 -64 -20 -95 -21c-8 30 -14 75 -14 111c0 15 1 34 3 48c54 26 125 50 213 50c115 0 206 -35 206 -131c0 -140 -193 -257 -281 -321v-9c94 2 203 6 300 16c2 -13 2 -23 2 -33c0 -26 -3 -55 -7 -74h-428l-15 83c85 75 302 206 302 318c0 47 -35 69 -90 69
c-36 0 -72 -10 -96 -22v-84z" />
    <glyph glyph-name="three" unicode="3" horiz-adv-x="543" 
d="M163 457v-67c-22 -13 -66 -21 -96 -22c-9 30 -13 70 -13 98c0 13 0 33 2 47c60 24 143 39 206 39c106 0 209 -44 209 -150c0 -79 -60 -140 -125 -164v-7c72 -12 142 -55 142 -139c0 -134 -142 -207 -283 -207c-49 0 -111 9 -149 20c-11 17 -19 50 -19 72c0 5 0 10 1 16
c46 -14 114 -22 159 -22c80 0 162 28 162 110c0 66 -60 103 -210 103c-6 12 -10 31 -10 49c0 11 1 24 2 30c98 3 203 42 203 127c0 60 -48 81 -96 81c-27 0 -64 -7 -85 -14z" />
    <glyph glyph-name="four" unicode="4" horiz-adv-x="567" 
d="M446 75v-169c-12 -3 -36 -5 -56 -5c-21 0 -45 2 -58 5v169h-294l-17 62c83 138 186 282 296 413l129 -19v-371h87c3 -14 5 -37 5 -56c0 -10 -1 -22 -2 -29h-90zM332 160v171c0 30 2 70 7 103h-10c-66 -78 -139 -186 -187 -268v-10c27 3 64 4 93 4h97z" />
    <glyph glyph-name="five" unicode="5" horiz-adv-x="523" 
d="M99 532h378c0 -30 -5 -73 -13 -107c-90 5 -179 8 -269 10l-13 -155c23 4 56 7 82 7c121 0 211 -54 211 -172c0 -158 -136 -230 -276 -230c-52 0 -104 8 -139 18c-10 15 -18 47 -18 69c0 4 0 9 1 15c42 -10 103 -17 149 -17c84 0 158 46 158 137c0 71 -48 101 -133 101
c-38 0 -90 -5 -144 -16z" />
    <glyph glyph-name="six" unicode="6" horiz-adv-x="587" 
d="M185 334h10c23 34 69 64 139 64c126 0 202 -87 202 -195c0 -134 -97 -223 -233 -223c-158 0 -242 108 -242 290c0 237 145 376 321 376c42 0 82 -8 118 -25c10 -21 17 -67 14 -90c-33 17 -87 29 -125 29c-92 0 -183 -67 -204 -226zM184 264v-17c0 -118 40 -189 122 -189
c66 0 109 61 109 138c0 76 -42 121 -112 121c-47 0 -88 -21 -119 -53z" />
    <glyph glyph-name="seven" unicode="7" horiz-adv-x="538" 
d="M499 532l16 -78c-117 -181 -213 -368 -259 -546c-18 -4 -36 -6 -59 -6c-27 0 -52 3 -71 7c55 179 152 357 262 514v9h-245c-5 -24 -17 -66 -26 -86c-22 0 -67 8 -86 16l15 170h453z" />
    <glyph glyph-name="eight" unicode="8" horiz-adv-x="581" 
d="M196 326v7c-54 20 -111 65 -111 144c0 119 110 169 214 169c105 0 211 -41 211 -154c0 -78 -54 -133 -112 -150v-7c62 -24 125 -74 125 -158c0 -132 -111 -197 -234 -197c-105 0 -231 38 -231 177c0 86 63 151 138 169zM264 295c-52 -23 -88 -63 -88 -123
c0 -89 56 -117 119 -117c54 0 111 26 111 108c0 66 -69 98 -142 132zM326 374c45 24 69 68 69 109c0 72 -56 94 -102 94c-36 0 -96 -17 -96 -87c0 -55 61 -85 129 -116z" />
    <glyph glyph-name="nine" unicode="9" horiz-adv-x="584" 
d="M408 199h-10c-22 -35 -71 -64 -137 -64c-134 0 -206 89 -206 200c0 130 95 217 227 217c162 0 247 -109 247 -295c0 -232 -135 -372 -311 -372c-50 0 -103 11 -140 26c-13 22 -21 65 -18 88c36 -13 101 -24 140 -24c97 0 189 64 208 224zM408 276
c-2 133 -37 200 -126 200c-68 0 -107 -54 -107 -134c0 -74 39 -126 111 -126c50 0 94 25 122 60z" />
    <glyph glyph-name="colon" unicode=":" horiz-adv-x="313" 
d="M170 487c44 0 74 -27 74 -74c0 -50 -30 -79 -74 -79c-49 0 -76 28 -76 79c0 44 31 74 76 74zM169 160c45 0 77 -27 77 -75c0 -53 -32 -81 -77 -81c-51 0 -78 27 -78 81c0 45 32 75 78 75z" />
    <glyph glyph-name="semicolon" unicode=";" horiz-adv-x="297" 
d="M154 487c44 0 74 -27 74 -74c0 -50 -30 -79 -74 -79c-49 0 -76 28 -76 79c0 44 31 74 76 74zM109 16l-51 11c7 26 24 63 39 80c17 4 36 5 52 5c29 0 61 -5 86 -14c-16 -88 -71 -218 -107 -277c-22 5 -51 21 -63 31c18 49 37 117 44 164z" />
    <glyph glyph-name="less" unicode="&#x3c;" 
d="M478 465l-269 -191v-9l259 -186c-8 -19 -42 -61 -61 -73l-316 230l4 69l303 224c25 -14 63 -45 80 -64z" />
    <glyph glyph-name="equal" unicode="=" 
d="M502 318h-438c0 25 6 66 12 87h423c4 -16 6 -38 6 -55c0 -12 -1 -23 -3 -32zM502 131h-439c0 25 7 66 13 87h423c4 -16 6 -38 6 -55c0 -12 -1 -23 -3 -32z" />
    <glyph glyph-name="greater" unicode="&#x3e;" 
d="M481 237l-317 -235c-19 11 -54 53 -62 73l260 188v9l-270 188c17 20 55 51 81 63l304 -218z" />
    <glyph glyph-name="question" unicode="?" horiz-adv-x="469" 
d="M148 624v-94c-23 -13 -64 -21 -92 -22c-9 50 -13 114 -13 174c49 20 144 36 208 36c120 0 196 -55 196 -143c0 -139 -192 -188 -192 -271c0 -27 8 -56 24 -76c-21 -15 -63 -30 -95 -33c-25 26 -44 66 -44 103c0 111 176 166 176 265c0 36 -26 78 -92 78
c-22 0 -55 -6 -76 -17zM234 134c43 0 75 -26 75 -72c0 -50 -32 -78 -75 -78c-49 0 -74 27 -74 78c0 43 31 72 74 72z" />
    <glyph glyph-name="at" unicode="@" horiz-adv-x="1052" 
d="M737 434l-43 -308c0 -8 2 -25 5 -34c139 21 203 157 203 269c0 185 -172 279 -340 279c-234 0 -396 -184 -396 -418c0 -220 143 -374 371 -374c85 0 185 22 253 60c13 -11 35 -39 42 -56c-87 -52 -207 -81 -315 -81c-273 0 -448 180 -448 444c0 287 212 504 503 504
c226 0 424 -132 424 -351c0 -168 -115 -350 -375 -365c-10 17 -21 44 -25 66h-7c-30 -42 -78 -66 -133 -66c-79 0 -141 55 -141 181c0 74 23 151 67 207c44 54 110 90 194 90c67 0 125 -20 161 -47zM591 146l36 254c-13 7 -34 11 -50 11c-52 0 -88 -25 -110 -59
c-30 -46 -40 -105 -40 -154c0 -80 27 -108 68 -108c37 0 74 20 96 56z" />
    <glyph glyph-name="A" unicode="A" horiz-adv-x="781" 
d="M757 0h-278c2 20 10 52 18 71c18 6 48 11 69 14c-16 21 -28 47 -38 72l-22 58h-262l-23 -63c-8 -23 -20 -51 -33 -71c23 -1 55 -5 77 -10c6 -17 12 -53 12 -71h-259c3 24 11 51 20 71c13 5 35 10 50 12l260 631h88l249 -628c16 -2 43 -7 59 -12c6 -21 12 -52 13 -74z
M381 586h-9c-4 -31 -22 -89 -33 -118l-67 -179h206l-68 181c-10 27 -26 84 -29 116z" />
    <glyph glyph-name="B" unicode="B" horiz-adv-x="666" 
d="M482 376v-7c88 -20 146 -76 146 -162c0 -154 -141 -212 -287 -212c-95 0 -220 4 -305 7c2 20 9 55 16 72c16 5 53 11 73 14v531c-22 1 -50 4 -71 7c-3 21 -4 54 -1 76c88 6 179 10 258 10c157 0 280 -59 280 -185c0 -72 -43 -132 -109 -151zM246 327v-250
c27 -3 56 -4 82 -4c111 0 175 37 175 127c0 87 -74 127 -173 127h-84zM246 632v-229h80c91 0 143 32 143 117c0 76 -68 115 -169 115c-13 0 -38 -1 -54 -3z" />
    <glyph glyph-name="C" unicode="C" horiz-adv-x="656" 
d="M492 522v100c-30 13 -59 18 -91 18c-126 0 -224 -93 -224 -280c0 -194 92 -283 224 -283c55 0 138 15 196 36c2 -22 -7 -62 -18 -82c-54 -28 -136 -51 -214 -51c-190 0 -317 151 -317 360c0 239 163 381 360 381c75 0 142 -16 195 -42c0 -57 -6 -133 -16 -179
c-28 0 -72 9 -95 22z" />
    <glyph glyph-name="D" unicode="D" horiz-adv-x="729" 
d="M125 86v523c-22 1 -51 4 -71 7c-3 21 -5 53 -1 76c77 9 203 16 276 16c215 0 369 -113 369 -351c0 -250 -167 -362 -335 -362c-92 0 -232 2 -327 6c2 21 9 54 16 71c16 6 53 12 73 14zM246 626v-548c26 -2 62 -3 88 -3c142 0 238 81 238 268c0 197 -104 286 -255 286
c-18 0 -53 -1 -71 -3z" />
    <glyph glyph-name="E" unicode="E" horiz-adv-x="622" 
d="M570 0h-535c2 20 9 54 16 71c17 5 54 12 74 14v533c-22 2 -54 6 -71 9c-3 21 -4 52 -1 74h507v-163c-25 0 -60 4 -83 11c-5 19 -11 55 -12 75h-219v-231h173c1 12 6 36 10 49c20 6 55 11 81 11v-194c-24 -2 -60 0 -82 6c-4 15 -8 38 -9 53h-173v-239h222c2 26 7 60 13 83
c21 7 63 11 89 11v-173z" />
    <glyph glyph-name="F" unicode="F" horiz-adv-x="565" 
d="M246 305v-221c32 -2 73 -6 100 -11c5 -17 7 -57 4 -73h-315c2 20 9 54 16 71c17 5 54 12 74 14v533c-22 2 -54 6 -71 9c-3 21 -4 52 -1 74h488v-169c-26 0 -62 4 -85 12c-5 19 -12 58 -14 80h-196v-244h157c1 13 6 38 10 52c20 6 55 11 81 11v-200c-24 -2 -60 0 -82 7
c-4 15 -8 40 -9 55h-157z" />
    <glyph glyph-name="G" unicode="G" horiz-adv-x="744" 
d="M634 267v-240c-52 -18 -175 -47 -263 -47c-204 0 -324 142 -324 351c0 235 149 390 381 390c82 0 150 -20 211 -57c0 -48 -7 -129 -16 -168c-28 0 -78 12 -94 21v99c-34 19 -71 27 -109 27c-131 0 -243 -97 -243 -300c0 -191 94 -278 232 -278c31 0 74 4 108 10v191
c-38 1 -94 4 -132 11c-6 19 -9 52 -9 73h343c-1 -20 -5 -53 -12 -74c-17 -4 -54 -8 -73 -9z" />
    <glyph glyph-name="H" unicode="H" horiz-adv-x="814" 
d="M568 320h-322v-236c22 -1 57 -5 78 -11c5 -17 7 -57 4 -73h-293c2 20 9 54 16 71c17 5 54 12 74 14v533c-22 2 -54 6 -71 9c-3 21 -5 52 -1 74h268c3 -16 2 -56 -2 -73c-18 -4 -51 -8 -73 -9v-217h322v216c-22 2 -52 6 -67 9c-4 18 -5 57 -2 74h270c3 -19 2 -53 -2 -73
c-20 -4 -55 -8 -78 -9v-535c27 -2 62 -6 85 -11c3 -12 5 -28 5 -46c0 -11 -1 -20 -2 -27h-290c1 20 8 54 14 71c16 5 48 12 67 14v235z" />
    <glyph glyph-name="I" unicode="I" horiz-adv-x="371" 
d="M334 0h-299c2 20 9 54 16 71c17 5 54 12 74 14v533c-22 2 -54 6 -71 9c-3 21 -5 52 -1 74h273c3 -16 2 -56 -2 -73c-20 -4 -55 -8 -78 -9v-535c27 -2 62 -6 85 -11c3 -12 5 -28 5 -46c0 -11 -1 -20 -2 -27z" />
    <glyph glyph-name="J" unicode="J" horiz-adv-x="376" 
d="M267 619v-385c0 -193 -85 -338 -250 -415c-14 13 -32 44 -37 64c120 70 166 183 166 328v407c-28 2 -67 6 -88 9c-3 21 -5 52 -1 74h290c2 -6 3 -18 3 -28c0 -17 -2 -35 -5 -45c-20 -4 -55 -8 -78 -9z" />
    <glyph glyph-name="K" unicode="K" horiz-adv-x="711" 
d="M246 393h63l123 169c12 17 36 44 51 56c-18 2 -48 5 -62 8c-6 21 -9 57 -9 75h254c-1 -22 -7 -56 -16 -78c-17 -3 -43 -5 -61 -6l-194 -249l232 -288l65 4c0 -26 -8 -64 -18 -84c-31 -8 -90 -16 -127 -19l-256 339h-45v-236c25 -2 56 -6 76 -11c5 -17 7 -57 4 -73h-291
c2 20 9 54 16 71c17 5 54 12 74 14v533c-22 2 -54 6 -71 9c-3 21 -4 52 -1 74h265c4 -16 3 -56 -2 -73c-17 -4 -49 -8 -70 -9v-226z" />
    <glyph glyph-name="L" unicode="L" horiz-adv-x="606" 
d="M125 85v533c-22 2 -54 6 -71 9c-3 21 -5 52 -1 74h292c3 -16 2 -56 -3 -73c-24 -4 -68 -8 -96 -9v-539h227c2 29 8 76 13 99c22 8 66 12 91 12v-191h-542c2 20 9 54 16 71c17 5 54 12 74 14z" />
    <glyph glyph-name="M" unicode="M" horiz-adv-x="955" 
d="M424 -12l-156 433c-21 59 -41 133 -48 190h-9v-528c21 -2 49 -6 67 -12c4 -16 6 -55 3 -71h-239c1 20 7 52 13 70c16 5 47 11 65 14v534c-21 2 -51 6 -67 9c-4 18 -5 58 -2 74h240l143 -397c18 -49 36 -121 42 -174h9c7 53 25 125 43 173l148 398h233c3 -16 2 -56 -2 -73
c-20 -4 -54 -8 -77 -9v-536c26 -2 60 -6 84 -11c4 -12 5 -32 5 -50c0 -9 0 -15 -1 -22h-281c2 20 9 54 15 71c16 5 48 12 67 14v528h-10c-8 -59 -27 -135 -50 -197l-155 -428h-80z" />
    <glyph glyph-name="N" unicode="N" horiz-adv-x="774" 
d="M285 701l236 -429c21 -37 46 -105 55 -147h9v493c-23 2 -57 6 -75 9c-3 18 -5 58 -1 74h236c2 -6 3 -18 3 -28c0 -17 -2 -35 -5 -45c-17 -4 -48 -8 -68 -9v-626h-133l-270 493c-16 29 -34 73 -43 107h-9v-509c26 -2 59 -6 81 -11c5 -17 7 -57 4 -73h-267c2 20 9 54 15 71
c16 5 51 12 70 14v533c-22 2 -54 6 -70 9c-4 18 -5 58 -2 74h234z" />
    <glyph glyph-name="O" unicode="O" horiz-adv-x="746" 
d="M375 721c194 0 324 -128 324 -361c0 -241 -128 -380 -324 -380c-211 0 -328 131 -328 380c0 223 141 361 328 361zM177 360c0 -181 73 -298 198 -298c130 0 195 113 195 298c0 163 -78 280 -195 280c-130 0 -198 -109 -198 -280z" />
    <glyph glyph-name="P" unicode="P" horiz-adv-x="620" 
d="M125 85v530c-22 0 -52 3 -71 6c-3 17 -4 57 -2 78c84 8 190 12 275 12c157 0 273 -69 273 -214c0 -156 -129 -225 -257 -225c-33 0 -68 3 -97 8v-196c34 -2 77 -6 106 -11c5 -17 7 -57 4 -73h-321c2 20 9 54 16 71c17 5 54 12 74 14zM246 629v-273c28 -4 65 -6 97 -6
c81 0 134 42 134 143c0 89 -68 139 -166 139c-19 0 -48 -1 -65 -3z" />
    <glyph glyph-name="Q" unicode="Q" horiz-adv-x="754" 
d="M583 58v-8c55 -43 148 -97 175 -99l78 10c1 -7 1 -16 1 -23c0 -27 -10 -62 -17 -81c-16 -7 -54 -16 -70 -16c-52 0 -186 94 -258 158c-33 -12 -76 -19 -117 -19c-211 0 -328 131 -328 380c0 223 141 361 328 361c194 0 324 -128 324 -361c0 -141 -46 -250 -116 -302z
M177 360c0 -181 72 -298 198 -298c130 0 195 113 195 298c0 163 -78 280 -195 280c-130 0 -198 -109 -198 -280z" />
    <glyph glyph-name="R" unicode="R" horiz-adv-x="682" 
d="M125 85v531c-21 0 -52 2 -71 6c-3 17 -4 57 -2 78c80 7 184 12 269 12c154 0 275 -62 275 -202c0 -99 -66 -165 -148 -191c60 -113 133 -226 154 -236l59 5c0 -26 -7 -64 -16 -84c-31 -9 -88 -17 -121 -19c-31 21 -115 161 -189 316c-31 0 -63 2 -89 6v-223
c25 -2 58 -5 79 -11c5 -17 6 -57 3 -73h-293c2 20 9 54 16 71c17 5 54 12 74 14zM246 630v-251c28 -4 64 -5 94 -5c76 0 134 40 134 130c0 86 -72 129 -169 129c-19 0 -42 -1 -59 -3z" />
    <glyph glyph-name="S" unicode="S" horiz-adv-x="579" 
d="M404 543v82c-24 13 -55 19 -84 19c-75 0 -121 -38 -121 -88c0 -164 335 -114 335 -358c0 -166 -126 -218 -268 -218c-71 0 -152 13 -214 38c0 52 6 133 14 182c25 0 73 -6 98 -14v-102c35 -16 79 -26 119 -26c86 0 132 41 132 112c0 171 -337 105 -337 364
c0 113 90 187 237 187c61 0 140 -13 197 -34c0 -45 -7 -119 -17 -163c-26 0 -68 8 -91 19z" />
    <glyph glyph-name="T" unicode="T" horiz-adv-x="639" 
d="M380 624v-540c31 -2 71 -6 98 -11c5 -17 7 -57 4 -73h-325c1 20 11 53 18 70c20 6 60 13 84 15v539h-138c-2 -22 -9 -64 -13 -83c-25 -7 -61 -9 -87 -9v169h597v-173c-28 0 -63 3 -88 10c-5 22 -11 62 -13 86h-137z" />
    <glyph glyph-name="U" unicode="U" horiz-adv-x="757" 
d="M234 619v-353c0 -134 52 -204 164 -204c119 0 170 88 170 205v351c-20 2 -49 6 -65 9c-4 18 -5 58 -1 74h231c2 -6 3 -18 3 -28c0 -17 -2 -35 -5 -45c-16 -4 -46 -8 -66 -9v-346c0 -173 -85 -293 -290 -293c-180 0 -262 95 -262 278v360c-20 2 -54 6 -71 10
c-5 17 -9 56 -9 73h281c4 -16 3 -56 -2 -73c-20 -4 -54 -8 -78 -9z" />
    <glyph glyph-name="V" unicode="V" horiz-adv-x="746" 
d="M385 107h10c5 40 21 95 34 133l87 253c13 39 33 89 53 126c-23 1 -53 5 -75 10c-6 17 -13 53 -13 72h254c0 -21 -6 -58 -13 -76c-16 -3 -39 -6 -57 -7l-237 -631h-108l-231 631c-16 2 -41 7 -56 11c-7 18 -13 52 -14 72h290c0 -20 -8 -56 -16 -76c-20 -3 -60 -6 -84 -7
c20 -34 41 -77 56 -121l89 -261c12 -34 26 -89 31 -129z" />
    <glyph glyph-name="W" unicode="W" horiz-adv-x="1047" 
d="M333 97h9c4 45 15 113 26 156l114 457h122l109 -459c10 -44 18 -102 22 -150h9c3 45 15 108 27 152l65 245c11 40 28 89 44 121c-21 1 -49 4 -68 9c-5 17 -10 54 -10 73h230c0 -20 -6 -58 -12 -76c-14 -3 -35 -6 -52 -7l-191 -631h-111l-107 453c-10 43 -21 114 -24 163
h-9c-4 -48 -15 -122 -26 -166l-114 -450h-123l-176 631c-16 2 -39 6 -52 10c-7 20 -12 51 -14 73h274c0 -20 -7 -56 -15 -76c-18 -3 -55 -6 -77 -7c15 -30 33 -79 43 -120l61 -246c10 -40 23 -109 26 -155z" />
    <glyph glyph-name="X" unicode="X" horiz-adv-x="745" 
d="M403 426l75 137c10 18 27 41 43 57c-17 1 -41 4 -56 8c-6 20 -11 53 -11 73h230c0 -20 -6 -57 -13 -76c-11 -2 -35 -5 -50 -6l-171 -262l189 -273c16 -1 45 -5 64 -10c6 -18 13 -52 14 -74h-284c2 22 11 55 18 72c15 4 41 8 61 9c-21 17 -47 48 -63 71l-99 143l-85 -146
c-14 -24 -35 -50 -51 -67c20 -1 50 -5 68 -9c6 -17 11 -56 11 -73h-267c2 23 9 50 18 70c14 4 41 9 57 11l196 290l-167 245c-17 2 -45 7 -58 12c-8 19 -13 53 -14 73h282c0 -20 -6 -56 -13 -75c-18 -4 -46 -7 -67 -8c17 -16 40 -43 53 -62z" />
    <glyph glyph-name="Y" unicode="Y" horiz-adv-x="657" 
d="M340 345h10c4 25 17 58 29 80l72 136c10 19 25 41 40 58c-18 1 -43 5 -59 9c-6 20 -11 53 -11 73h229c0 -20 -5 -57 -11 -75c-14 -4 -34 -6 -49 -7l-204 -348v-187c31 -2 70 -6 97 -11c5 -17 6 -57 4 -73h-325c2 20 11 54 18 70c20 6 61 13 84 15v180l-188 353
c-15 1 -38 5 -52 10c-6 19 -11 51 -12 73h278c0 -21 -6 -55 -12 -75c-19 -4 -49 -7 -71 -8c15 -16 29 -37 39 -58l68 -135c10 -20 22 -55 26 -80z" />
    <glyph glyph-name="Z" unicode="Z" horiz-adv-x="616" 
d="M52 0v79l366 532v10h-240c-1 -21 -10 -72 -15 -93c-24 -5 -65 -9 -93 -9v182h492v-79l-361 -530v-9h265c2 25 9 73 14 97c22 8 65 14 92 14v-194h-520z" />
    <glyph glyph-name="bracketleft" unicode="[" horiz-adv-x="349" 
d="M93 -202v968h184c2 -16 0 -55 -4 -72c-19 -4 -48 -7 -67 -8v-809c23 -1 63 -6 82 -12c3 -14 4 -28 4 -42c0 -9 -1 -19 -2 -25h-197z" />
    <glyph glyph-name="backslash" unicode="\" horiz-adv-x="447" 
d="M77 775l348 -916c-16 -9 -69 -27 -90 -31l-342 901c16 15 59 40 84 46z" />
    <glyph glyph-name="bracketright" unicode="]" horiz-adv-x="349" 
d="M250 766v-968h-200c1 19 7 51 12 69c19 5 54 10 76 12v807c-21 1 -49 5 -66 8c-3 16 -4 57 0 72h178z" />
    <glyph glyph-name="asciicircum" unicode="^" 
d="M58 374l179 302l78 7l198 -318c-18 -13 -57 -33 -81 -40l-107 177c-13 22 -35 64 -43 91h-9c-8 -26 -26 -66 -40 -89l-113 -190c-22 13 -51 43 -62 60z" />
    <glyph glyph-name="underscore" unicode="_" horiz-adv-x="500" 
d="M-2 -160h504c4 -17 5 -35 5 -50c0 -10 -1 -21 -3 -30h-518c0 22 5 59 12 80z" />
    <glyph glyph-name="grave" unicode="`" horiz-adv-x="401" 
d="M224 554l-161 165c22 16 82 29 119 29l124 -172c-17 -10 -60 -22 -82 -22z" />
    <glyph glyph-name="a" unicode="a" horiz-adv-x="523" 
d="M329 57h-7c-27 -47 -76 -74 -143 -74c-73 0 -143 45 -143 141c0 107 89 161 195 161c30 0 63 -6 87 -17v46c0 64 -31 94 -91 94c-45 0 -118 -23 -154 -45c-3 8 -4 23 -4 34c0 26 6 55 15 70c35 17 114 31 171 31c117 0 175 -50 175 -183v-181c0 -26 5 -51 13 -63
c17 0 49 5 68 10c1 -5 1 -10 1 -13c0 -19 -6 -40 -14 -56c-24 -14 -80 -29 -124 -29c-21 12 -39 42 -45 74zM320 110v102c-18 5 -46 8 -63 8c-68 0 -106 -32 -106 -80c0 -51 36 -73 77 -73c39 0 74 18 92 43z" />
    <glyph glyph-name="b" unicode="b" horiz-adv-x="569" 
d="M79 25v620h-71c1 23 10 54 20 72c25 10 64 17 101 17c22 0 49 -3 65 -9v-148c0 -50 -4 -108 -8 -154h13c17 39 61 75 136 75c91 0 193 -61 193 -244c0 -163 -105 -271 -257 -271c-67 0 -135 13 -192 42zM191 358v-288c20 -6 46 -10 69 -10c102 0 148 72 148 180
c0 111 -48 173 -114 173c-47 0 -83 -25 -103 -55z" />
    <glyph glyph-name="c" unicode="c" horiz-adv-x="485" 
d="M344 346v67c-16 7 -32 11 -47 11c-77 0 -133 -54 -133 -174c0 -125 61 -182 145 -182c42 0 97 12 133 27c2 -21 -6 -55 -19 -75c-39 -20 -100 -37 -157 -37c-138 0 -225 104 -225 248c0 156 105 267 258 267c56 0 105 -14 144 -36c2 -10 3 -28 3 -40
c0 -33 -7 -71 -17 -97c-25 0 -65 10 -85 21z" />
    <glyph glyph-name="d" unicode="d" horiz-adv-x="589" 
d="M375 473v172h-71c1 23 10 54 21 72c25 10 63 17 101 17c21 0 48 -3 64 -9v-574c0 -25 3 -55 9 -75h72c1 -5 1 -11 1 -15c0 -16 -5 -40 -12 -53c-38 -12 -111 -20 -151 -20c-12 21 -20 47 -23 75h-7c-24 -40 -66 -80 -151 -80c-87 0 -187 60 -187 240
c0 166 99 275 242 275c36 0 70 -9 92 -25zM377 122v284c-20 9 -46 14 -72 14c-99 0 -144 -72 -144 -180c0 -111 48 -171 115 -171c49 0 82 27 101 53z" />
    <glyph glyph-name="e" unicode="e" horiz-adv-x="510" 
d="M462 220h-301c5 -93 64 -148 151 -148c44 0 111 13 148 27c2 -21 -7 -57 -19 -76c-36 -20 -97 -40 -164 -40c-150 0 -236 107 -236 248c0 152 96 267 243 267c128 0 181 -89 181 -224c0 -17 -1 -36 -3 -54zM159 294h193c6 61 -13 134 -85 134c-61 0 -102 -55 -108 -134z
" />
    <glyph glyph-name="f" unicode="f" horiz-adv-x="366" 
d="M222 481h132c4 -19 7 -56 5 -77h-137v-323c29 -3 75 -12 98 -20c4 -14 6 -44 4 -61h-293c2 19 8 44 15 58c15 9 42 19 61 24v322h-78c1 18 8 53 16 71c16 8 43 16 62 20v44c0 139 86 198 202 198c38 0 91 -7 132 -21c2 -12 3 -26 3 -40c0 -34 -7 -73 -15 -97
c-23 1 -65 9 -83 20v64c-10 5 -27 7 -38 7c-50 0 -86 -32 -86 -119v-70z" />
    <glyph glyph-name="g" unicode="g" horiz-adv-x="556" 
d="M107 -3v7c-22 9 -45 38 -45 72c0 40 27 73 59 90v6c-41 26 -66 73 -66 143c0 114 88 183 204 183c45 0 85 -9 118 -26c22 12 62 21 100 21c18 0 35 -2 50 -7c9 -21 14 -55 14 -80h-100c14 -25 22 -55 22 -91c0 -115 -78 -183 -204 -183c-24 0 -51 3 -72 9
c-6 -9 -11 -22 -11 -34c0 -34 45 -42 134 -42c126 0 220 -28 220 -139c0 -124 -121 -181 -268 -181c-132 0 -238 49 -238 147c0 58 43 95 83 105zM173 -20c-28 -16 -41 -42 -41 -70c0 -63 75 -93 145 -93c75 0 144 31 144 90c0 41 -35 63 -137 63c-33 0 -75 2 -111 10z
M170 315c0 -70 33 -118 89 -118c59 0 88 47 88 118c0 68 -34 117 -88 117c-61 0 -89 -43 -89 -117z" />
    <glyph glyph-name="h" unicode="h" horiz-adv-x="624" 
d="M214 344v-266c22 -3 53 -9 69 -16c4 -14 6 -45 3 -62h-263c2 19 8 44 15 58c15 9 42 18 61 24v563h-71c1 23 10 54 21 72c25 10 64 17 101 17c21 0 48 -3 64 -9v-173c0 -44 -3 -98 -7 -145h12c20 49 71 91 157 91c82 0 157 -25 157 -181c0 -79 -2 -163 -7 -239
c24 -2 56 -9 76 -16c3 -13 4 -26 4 -39c0 -9 -1 -17 -2 -23h-253c2 19 7 44 13 58c13 9 37 18 53 24v215c0 68 -23 113 -87 113c-51 0 -95 -34 -116 -66z" />
    <glyph glyph-name="i" unicode="i" horiz-adv-x="323" 
d="M107 403h-72c1 22 10 54 21 71c24 10 63 17 101 17c22 0 49 -3 65 -8v-405c23 -2 56 -9 75 -16c3 -13 4 -26 4 -39c0 -9 -1 -17 -2 -23h-268c2 19 8 44 15 58c15 9 41 18 61 24v321zM167 735c42 0 71 -26 71 -70c0 -48 -29 -75 -71 -75c-47 0 -72 26 -72 75
c0 42 30 70 72 70z" />
    <glyph glyph-name="j" unicode="j" horiz-adv-x="280" 
d="M96 403h-72c1 22 10 54 20 71c25 10 64 17 102 17c22 0 49 -3 65 -8v-397c0 -150 -79 -250 -156 -328c-24 8 -52 31 -65 51c52 57 106 137 106 253v341zM156 735c42 0 71 -26 71 -70c0 -48 -29 -75 -71 -75c-47 0 -72 26 -72 75c0 42 30 70 72 70z" />
    <glyph glyph-name="k" unicode="k" horiz-adv-x="588" 
d="M214 230v-152c22 -3 51 -9 68 -16c3 -14 5 -45 3 -62h-262c2 19 8 44 15 58c15 9 42 18 61 24v563h-71c1 23 10 54 21 72c25 10 63 17 101 17c21 0 48 -3 64 -9v-427h53l66 69c9 10 30 28 44 35c-16 3 -44 9 -57 15c-7 18 -10 43 -10 64h240c0 -21 -7 -52 -14 -70
c-12 -5 -40 -9 -55 -11l-130 -124c71 -98 152 -190 172 -201l58 9c1 -6 1 -14 1 -16c0 -19 -7 -51 -16 -68c-24 -9 -55 -18 -86 -21c-45 8 -136 132 -224 251h-42z" />
    <glyph glyph-name="l" unicode="l" horiz-adv-x="315" 
d="M99 645h-71c1 23 10 54 21 72c24 10 63 17 101 17c21 0 48 -3 64 -9v-647c23 -2 57 -9 77 -16c3 -13 4 -26 4 -39c0 -9 -1 -17 -2 -23h-270c2 19 8 44 15 58c15 9 41 18 61 24v563z" />
    <glyph glyph-name="m" unicode="m" horiz-adv-x="924" 
d="M222 351v-273c22 -3 52 -9 69 -16c3 -14 5 -45 3 -62h-263c2 19 8 44 15 58c15 9 42 18 61 24v321h-72c1 22 10 54 21 71c22 10 57 17 92 17c20 0 43 -3 57 -8v-76h13c22 44 72 91 158 91c65 0 118 -17 136 -96h7c20 46 72 96 160 96c80 0 153 -25 153 -181
c0 -79 -2 -165 -6 -239c24 -2 56 -9 76 -16c3 -13 4 -26 4 -39c0 -9 -1 -17 -2 -23h-253c2 19 7 44 14 58c13 9 35 18 51 24v215c0 68 -21 113 -84 113c-45 0 -86 -32 -107 -59v-273c22 -2 52 -9 68 -16c4 -14 6 -45 3 -62h-247c2 19 7 44 13 58c13 9 35 18 51 24v215
c0 68 -21 113 -84 113c-44 0 -86 -31 -107 -59z" />
    <glyph glyph-name="n" unicode="n" horiz-adv-x="627" 
d="M222 350v-272c22 -3 53 -9 69 -16c4 -14 6 -45 3 -62h-263c2 19 8 44 15 58c15 9 42 18 61 24v321h-72c1 22 10 54 21 71c22 10 57 17 92 17c20 0 43 -3 57 -8v-76h13c22 43 73 91 162 91c81 0 156 -25 156 -181c0 -79 -3 -162 -7 -239c24 -2 56 -9 76 -16
c3 -13 4 -26 4 -39c0 -9 -1 -17 -2 -23h-254c2 19 7 44 14 58c13 9 36 18 52 24v215c0 68 -22 113 -86 113c-46 0 -90 -31 -111 -60z" />
    <glyph glyph-name="o" unicode="o" horiz-adv-x="560" 
d="M280 498c143 0 239 -89 239 -250c0 -169 -94 -265 -239 -265c-153 0 -239 91 -239 265c0 155 103 250 239 250zM159 248c0 -114 46 -189 121 -189c81 0 120 73 120 189c0 100 -47 175 -120 175c-78 0 -121 -70 -121 -175z" />
    <glyph glyph-name="p" unicode="p" horiz-adv-x="579" 
d="M204 8v-161c27 -3 73 -12 95 -20c4 -14 6 -44 4 -61h-290c2 19 8 44 15 58c15 9 42 18 61 24v555h-73c1 22 10 54 21 71c23 10 58 17 92 17c20 0 43 -3 58 -8v-72h12c24 43 63 87 149 87c89 0 190 -61 190 -240c0 -167 -98 -275 -244 -275c-33 0 -68 9 -90 25zM202 356
v-281c21 -8 46 -14 72 -14c101 0 144 72 144 181c0 115 -45 172 -111 172c-52 0 -87 -30 -105 -58z" />
    <glyph glyph-name="q" unicode="q" horiz-adv-x="560" 
d="M490 449v-605c23 -2 58 -9 80 -16c3 -13 4 -26 4 -39c0 -9 -1 -17 -2 -23h-281c2 19 9 44 16 58c17 9 46 19 68 24v82c0 45 4 93 8 129h-12c-18 -40 -63 -76 -137 -76c-93 0 -193 64 -193 241c0 168 102 274 260 274c67 0 132 -16 189 -49zM377 124v286
c-21 9 -44 14 -71 14c-100 0 -145 -75 -145 -183c0 -110 48 -172 113 -172c48 0 83 25 103 55z" />
    <glyph glyph-name="r" unicode="r" horiz-adv-x="420" 
d="M205 388h13c12 58 62 110 129 110c15 0 36 -2 48 -8c10 -15 16 -44 16 -74c0 -13 -1 -26 -4 -36c-20 11 -50 17 -72 17c-45 0 -88 -25 -113 -75v-241c29 -3 76 -11 98 -20c5 -14 7 -44 4 -61h-293c2 19 8 44 15 58c15 9 42 18 61 24v321h-71c0 22 8 53 20 71
c23 10 58 17 92 17c20 0 43 -3 57 -8v-95z" />
    <glyph glyph-name="s" unicode="s" horiz-adv-x="447" 
d="M296 368v52c-13 6 -33 11 -52 11c-44 0 -69 -19 -69 -52c0 -106 234 -64 234 -243c0 -112 -91 -153 -192 -153c-62 0 -119 12 -166 38c-3 13 -5 33 -5 51c0 28 4 59 10 77c31 0 64 -3 92 -12v-62c21 -13 50 -20 76 -20c44 0 72 22 72 61c0 106 -237 59 -237 245
c0 81 70 137 181 137c50 0 105 -9 154 -30c1 -8 2 -22 2 -33c0 -29 -5 -63 -11 -86c-32 0 -68 8 -89 19z" />
    <glyph glyph-name="t" unicode="t" horiz-adv-x="372" 
d="M85 495l17 111c20 11 64 20 93 20v-145h142c3 -15 7 -55 4 -77h-146v-250c0 -60 16 -83 64 -83c27 0 64 6 93 13c1 -5 1 -13 1 -15c0 -18 -6 -40 -16 -57c-39 -19 -91 -29 -130 -29c-86 0 -129 44 -129 154c0 62 2 176 7 267h-72c0 18 7 54 15 71c16 8 39 16 57 20z" />
    <glyph glyph-name="u" unicode="u" horiz-adv-x="606" 
d="M388 127v276h-71c1 22 10 53 21 71c24 11 63 17 101 17c22 0 48 -3 64 -8v-335c0 -23 2 -49 8 -72h74c1 -5 1 -11 1 -15c0 -16 -5 -40 -12 -53c-37 -12 -113 -20 -154 -20c-12 22 -21 53 -24 83h-7c-22 -42 -72 -88 -156 -88c-81 0 -152 27 -152 183c0 74 1 160 5 237
h-75c1 22 10 54 21 71c24 10 64 17 102 17c22 0 48 -3 64 -8v-298c0 -71 21 -113 85 -113c41 0 83 28 105 55z" />
    <glyph glyph-name="v" unicode="v" horiz-adv-x="540" 
d="M278 82h9c5 27 16 71 24 95l45 136c9 28 23 61 37 86c-16 3 -39 9 -52 15c-7 19 -10 45 -10 67h205c0 -22 -7 -56 -13 -73c-11 -4 -33 -8 -44 -9l-153 -402l-117 -11l-152 409c-14 4 -32 12 -43 19c-6 18 -10 46 -11 67h242c0 -23 -6 -51 -12 -70c-15 -5 -44 -11 -63 -13
c13 -20 27 -54 36 -80l49 -143c7 -22 18 -66 23 -93z" />
    <glyph glyph-name="w" unicode="w" horiz-adv-x="801" 
d="M245 81h10c3 32 12 74 18 99l72 299l132 12l70 -311c7 -31 12 -69 16 -99h9c4 29 13 71 21 100l36 134c7 27 19 63 29 84c-17 3 -39 9 -51 15c-6 18 -10 45 -10 67h197c0 -21 -7 -54 -13 -72c-11 -4 -31 -9 -43 -10l-119 -400l-128 -13l-69 289c-7 29 -16 84 -18 117h-9
c-3 -33 -14 -91 -21 -118l-70 -275l-130 -13l-114 409c-14 4 -33 12 -43 19c-6 19 -10 46 -11 67h229c0 -21 -5 -51 -11 -69c-14 -5 -43 -11 -62 -13c12 -23 25 -57 31 -80l35 -140c7 -27 15 -68 17 -98z" />
    <glyph glyph-name="x" unicode="x" horiz-adv-x="576" 
d="M273 196l-53 -77c-8 -12 -23 -29 -35 -39c14 -1 39 -7 52 -12c6 -16 11 -48 11 -68h-237c2 20 9 48 17 65c13 7 42 16 58 20l138 169l-119 143c-17 4 -39 10 -51 16c-7 18 -12 47 -13 68h240c0 -21 -4 -51 -8 -69c-9 -4 -29 -10 -42 -12c12 -8 26 -22 36 -34l54 -66
l49 67c8 11 19 24 30 33c-14 3 -30 9 -42 14c-4 17 -7 45 -7 67h193c-1 -20 -9 -54 -15 -71c-12 -5 -30 -9 -42 -10l-120 -154l138 -166c13 -1 38 -6 49 -11c8 -17 13 -49 13 -69h-247c2 22 8 52 14 69c11 4 32 10 43 11c-14 11 -32 28 -43 42z" />
    <glyph glyph-name="y" unicode="y" horiz-adv-x="540" 
d="M284 81h9c5 26 16 70 24 96l41 136c8 27 21 63 33 86c-16 3 -39 9 -52 15c-6 19 -9 45 -9 67h202c0 -21 -7 -56 -13 -73c-11 -4 -32 -8 -44 -9l-57 -161c-29 -82 -77 -214 -116 -289c-46 -91 -121 -164 -210 -193c-19 18 -42 58 -45 89c83 23 149 76 180 137l-166 413
c-16 4 -35 12 -47 19c-6 18 -10 46 -11 67h244c0 -22 -5 -51 -12 -69c-15 -6 -45 -12 -65 -14c14 -21 29 -52 38 -77l53 -145c8 -22 19 -69 23 -95z" />
    <glyph glyph-name="z" unicode="z" horiz-adv-x="479" 
d="M51 0l-13 55l253 346v9h-137c-3 -22 -12 -52 -20 -72c-23 0 -65 5 -83 14v129h373l14 -55l-253 -347v-9c50 0 118 3 162 9c5 22 13 51 22 71c14 4 36 7 56 7c12 0 24 -1 32 -3l-18 -154h-388z" />
    <glyph glyph-name="braceleft" unicode="{" horiz-adv-x="358" 
d="M44 258c0 23 7 57 12 71c60 6 67 44 67 108v166c0 98 38 168 185 174c0 -19 -6 -57 -15 -76c-42 -6 -59 -33 -59 -92v-165c0 -75 -19 -127 -73 -146v-7c54 -18 73 -61 73 -138v-191c0 -64 22 -97 69 -101c4 -17 1 -60 -4 -74c-137 6 -176 67 -176 161v190
c0 75 -10 114 -79 120z" />
    <glyph glyph-name="bar" unicode="|" horiz-adv-x="323" 
d="M209 764v-950c-8 -3 -29 -4 -45 -4c-15 0 -38 1 -47 4v942c22 5 64 8 92 8z" />
    <glyph glyph-name="braceright" unicode="}" horiz-adv-x="358" 
d="M198 290v7c-51 22 -71 69 -71 140v163c0 71 -21 99 -74 104c0 19 10 57 20 73c133 -10 166 -85 166 -167v-169c0 -62 6 -108 72 -112c5 -17 9 -52 9 -72c-63 -5 -81 -33 -81 -107v-194c0 -97 -34 -164 -176 -170c-6 18 -7 55 -4 74c42 3 68 36 68 89v193
c0 79 15 127 71 148z" />
    <glyph glyph-name="asciitilde" unicode="~" 
d="M98 202c-15 11 -35 38 -43 55c28 44 81 78 142 78c78 0 118 -51 185 -51c34 0 62 20 75 42c18 -4 49 -17 63 -27c-27 -56 -86 -100 -153 -100c-90 0 -114 51 -184 51c-38 0 -69 -25 -85 -48z" />
    <glyph glyph-name="uni00A0" unicode="&#xa0;" horiz-adv-x="212" 
 />
    <glyph glyph-name="exclamdown" unicode="&#xa1;" horiz-adv-x="354" 
d="M109 -208l25 472c16 5 40 8 56 8c11 0 23 -1 29 -2l35 -478c-20 -5 -45 -7 -72 -7c-26 0 -51 2 -73 7zM178 500c43 0 75 -26 75 -72c0 -50 -32 -78 -75 -78c-49 0 -74 27 -74 78c0 43 31 72 74 72z" />
    <glyph glyph-name="cent" unicode="&#xa2;" horiz-adv-x="521" 
d="M368 363v68c-18 7 -35 10 -53 10c-79 0 -137 -51 -137 -158c0 -109 58 -166 150 -166c45 0 100 13 140 28c2 -20 -8 -58 -19 -76c-27 -14 -65 -26 -106 -32v-85c-9 -2 -30 -3 -47 -3c-16 0 -38 1 -49 3v83c-120 16 -193 108 -193 230c0 127 82 224 208 245v67
c24 5 68 8 96 8v-73c42 -5 79 -19 110 -37c2 -11 2 -22 2 -33c0 -35 -6 -75 -16 -100c-25 0 -65 8 -86 21z" />
    <glyph glyph-name="sterling" unicode="&#xa3;" horiz-adv-x="564" 
d="M431 235h-175c1 -7 1 -19 1 -27c0 -53 -29 -102 -57 -124v-7h216c3 18 10 50 17 68c20 4 56 8 80 6v-151h-478c1 19 9 49 15 63c16 10 41 19 61 25c20 34 35 75 35 108c0 14 0 27 -1 39h-86c0 19 5 53 11 71h63c-6 26 -12 61 -12 89c0 97 74 157 209 157
c58 0 109 -11 158 -29c1 -9 2 -22 2 -33c0 -36 -7 -79 -13 -101c-31 1 -67 11 -87 22v57c-19 7 -40 10 -58 10c-65 0 -95 -31 -95 -89c0 -24 6 -64 10 -83h181c3 -12 6 -51 3 -71z" />
    <glyph glyph-name="currency" unicode="&#xa4;" horiz-adv-x="572" 
d="M174 448c33 19 72 30 115 30c42 0 80 -10 112 -26l58 73c23 -6 51 -28 62 -43l-64 -76c28 -34 44 -80 44 -136c0 -62 -18 -112 -47 -149l67 -78c-10 -17 -36 -37 -60 -42l-61 75c-31 -17 -70 -26 -111 -26c-45 0 -84 9 -116 26l-62 -77c-23 7 -49 27 -60 44l68 80
c-27 36 -42 86 -42 147c0 52 16 96 43 131l-67 80c10 15 38 37 62 43zM178 269c0 -84 45 -144 111 -144c71 0 110 58 110 144c0 74 -45 133 -110 133c-71 0 -111 -55 -111 -133z" />
    <glyph glyph-name="yen" unicode="&#xa5;" horiz-adv-x="580" 
d="M500 121h-151v-39c25 -3 70 -12 90 -19c4 -16 6 -46 3 -63h-298c1 18 10 46 17 60c19 10 47 18 71 24v37h-156c0 16 4 45 9 61h147v16l-29 44h-127c0 16 4 45 9 61h78l-87 140c-17 5 -35 12 -49 20c-6 16 -10 48 -10 69h258c0 -24 -6 -53 -11 -73c-13 -5 -42 -12 -60 -15
c12 -10 26 -28 34 -43l41 -76c8 -15 19 -38 23 -55h10c5 17 15 40 24 55l45 76c8 14 23 34 35 44c-16 3 -39 10 -50 16c-7 19 -10 48 -10 71h213c0 -21 -9 -58 -16 -75c-11 -5 -33 -10 -48 -11l-91 -143h83c3 -11 5 -44 3 -61h-127l-24 -38v-22h148c3 -11 5 -44 3 -61z" />
    <glyph glyph-name="brokenbar" unicode="&#xa6;" horiz-adv-x="323" 
d="M209 764v-372c-7 -3 -30 -4 -45 -4c-16 0 -39 1 -49 4v364c22 5 66 8 94 8zM209 187v-373c-7 -2 -30 -4 -45 -4c-16 0 -39 2 -49 4v365c22 5 66 8 94 8z" />
    <glyph glyph-name="section" unicode="&#xa7;" horiz-adv-x="502" 
d="M141 52v-78c24 -15 55 -22 84 -22c65 0 102 28 102 77c0 109 -278 88 -278 295c0 58 22 106 57 141c-4 13 -6 27 -6 43c0 88 69 138 180 138c59 0 120 -15 170 -37c0 -37 -4 -85 -12 -122c-29 0 -69 8 -90 19v60c-17 8 -40 15 -67 15c-52 0 -81 -23 -81 -62
c0 -94 262 -73 262 -287c0 -50 -21 -95 -48 -128c8 -19 13 -40 13 -66c0 -107 -97 -153 -214 -153c-64 0 -126 15 -180 44c0 28 3 86 11 135c25 0 70 -5 97 -12zM141 342c0 -87 135 -107 219 -174c7 16 12 34 12 51c0 96 -144 111 -220 179c-8 -17 -11 -38 -11 -56z" />
    <glyph glyph-name="dieresis" unicode="&#xa8;" horiz-adv-x="461" 
d="M113 698c38 0 65 -22 65 -62c0 -44 -27 -68 -65 -68c-44 0 -66 23 -66 68c0 38 27 62 66 62zM349 698c38 0 65 -22 65 -62c0 -44 -27 -68 -65 -68c-44 0 -66 23 -66 68c0 38 27 62 66 62z" />
    <glyph glyph-name="copyright" unicode="&#xa9;" horiz-adv-x="837" 
d="M471 410v53c-10 4 -25 7 -38 7c-50 0 -90 -42 -90 -130c0 -93 42 -130 109 -130c30 0 76 9 106 20c1 -17 -5 -48 -14 -65c-34 -17 -84 -30 -130 -30c-111 0 -186 81 -186 193c0 132 96 210 207 210c45 0 94 -10 125 -25c0 -29 -5 -92 -10 -120c-26 0 -60 7 -79 17z
M779 339c0 -200 -163 -359 -366 -359c-202 0 -355 155 -355 355s161 361 363 361c201 0 358 -159 358 -357zM704 336c0 160 -125 295 -286 295c-159 0 -286 -131 -286 -293s128 -294 288 -294c159 0 284 131 284 292z" />
    <glyph glyph-name="ordfeminine" unicode="&#xaa;" horiz-adv-x="442" 
d="M269 361h-7c-15 -29 -50 -48 -94 -48c-51 0 -103 30 -103 95c0 72 61 108 130 108c20 0 43 -3 59 -9v23c0 32 -21 47 -58 47c-30 0 -81 -13 -108 -28c-5 20 0 61 8 79c25 10 79 18 119 18c91 0 129 -35 129 -121v-95c0 -19 2 -38 8 -44c11 0 34 4 47 8
c0 -16 -4 -44 -11 -58c-20 -11 -63 -23 -91 -23c-13 10 -25 30 -28 48zM254 402v57c-11 2 -26 4 -37 4c-41 0 -64 -16 -64 -45c0 -30 22 -40 46 -40c21 0 43 9 55 24zM87 272h276c3 -13 6 -52 3 -72h-289c0 19 4 53 10 72z" />
    <glyph glyph-name="guillemotleft" unicode="&#xab;" horiz-adv-x="610" 
d="M204 254c24 -66 53 -130 87 -196c-23 -10 -70 -20 -98 -20c-44 70 -88 149 -118 216c29 67 62 126 104 194c31 9 82 18 119 18c-35 -70 -68 -143 -94 -212zM430 257c24 -66 53 -130 87 -196c-23 -10 -70 -20 -98 -20c-44 70 -88 149 -118 216c29 67 62 126 104 194
c31 9 82 18 119 18c-35 -70 -68 -143 -94 -212z" />
    <glyph glyph-name="logicalnot" unicode="&#xac;" 
d="M66 317h443v-191c-11 -3 -29 -5 -49 -5s-41 2 -55 5v103h-352c0 26 7 67 13 88z" />
    <glyph glyph-name="uni00AD" unicode="&#xad;" horiz-adv-x="369" 
d="M311 226h-262c0 27 6 71 14 94h243c4 -17 7 -42 7 -63c0 -11 -1 -24 -2 -31z" />
    <glyph glyph-name="registered" unicode="&#xae;" horiz-adv-x="626" 
d="M230 476v150c-6 0 -18 1 -27 2c-2 10 -4 28 -1 38c35 4 86 5 114 5c59 0 107 -21 107 -70c0 -34 -20 -57 -46 -66c10 -20 25 -44 36 -61l30 3c0 -12 -4 -30 -9 -39c-19 -6 -41 -9 -62 -9c-19 30 -40 70 -54 99c-8 0 -18 0 -25 1v-54c8 -1 22 -4 28 -8c2 -7 3 -24 2 -32
h-128c1 10 4 24 8 33c8 4 17 7 27 8zM316 785c142 0 235 -97 235 -234c0 -138 -100 -240 -241 -240c-140 0 -235 98 -235 237c0 138 99 237 241 237zM312 735c-107 0 -180 -80 -180 -185c0 -106 73 -189 183 -189c107 0 179 78 179 185c0 108 -72 189 -182 189zM292 567
c7 -1 19 -2 28 -2c23 0 39 11 39 31c0 24 -16 32 -49 32c-4 0 -12 0 -18 -1v-60z" />
    <glyph glyph-name="macron" unicode="&#xaf;" horiz-adv-x="434" 
d="M367 589h-302c0 24 6 64 12 85h287c3 -13 5 -35 5 -55c0 -12 -1 -23 -2 -30z" />
    <glyph glyph-name="degree" unicode="&#xb0;" horiz-adv-x="410" 
d="M206 646c85 0 145 -48 145 -134c0 -90 -60 -142 -147 -142c-94 0 -144 49 -144 142c0 81 63 134 146 134zM147 512c0 -44 23 -75 59 -75c37 0 57 29 57 75c0 39 -23 67 -57 67c-37 0 -59 -27 -59 -67z" />
    <glyph glyph-name="plusminus" unicode="&#xb1;" 
d="M335 411h156c4 -14 6 -34 6 -49c0 -12 -1 -21 -3 -30h-159v-172c-8 -2 -30 -4 -47 -4c-16 0 -41 1 -52 4v172h-163c0 23 6 60 12 79h151v166c24 5 69 8 99 8v-174zM82 83h405c4 -15 6 -36 6 -52c0 -12 -1 -22 -3 -31h-420c0 24 6 62 12 83z" />
    <glyph glyph-name="twosuperior" unicode="&#xb2;" horiz-adv-x="385" 
d="M44 379v67c62 59 196 141 196 217c0 30 -19 45 -52 45c-20 0 -45 -5 -61 -13v-47c-19 -7 -56 -11 -76 -11c-5 29 -8 69 -8 103c38 17 88 33 151 33c85 0 147 -25 147 -104c0 -88 -135 -176 -195 -215v-6c58 1 137 3 208 8c0 -18 -3 -58 -7 -77h-303z" />
    <glyph glyph-name="threesuperior" unicode="&#xb3;" horiz-adv-x="385" 
d="M179 703c-31 0 -80 -8 -115 -23c-2 22 1 53 10 75c33 13 76 18 110 18c76 0 145 -29 145 -97c0 -48 -30 -80 -77 -89v-7c46 -6 86 -36 86 -91c0 -84 -76 -117 -173 -117c-35 0 -76 4 -103 13c-8 17 -13 41 -13 60c0 4 0 14 1 21c32 -14 86 -25 121 -25c37 0 67 14 67 48
c0 41 -37 53 -141 53c-3 20 -1 49 6 69c86 0 128 14 128 53c0 31 -25 39 -52 39z" />
    <glyph glyph-name="acute" unicode="&#xb4;" horiz-adv-x="395" 
d="M310 715l-169 -174c-19 8 -48 33 -59 49l119 165c26 0 88 -20 109 -40z" />
    <glyph glyph-name="mu" unicode="&#xb5;" horiz-adv-x="620" 
d="M151 76h-9c25 -115 43 -256 43 -348c-44 2 -97 12 -122 25c9 241 16 503 16 721c23 8 91 14 114 14c-3 -66 -6 -151 -6 -217c0 -131 34 -200 106 -200c50 0 91 39 111 79c-3 32 -5 65 -5 104c0 73 3 164 7 220c23 9 81 14 104 14c-5 -72 -6 -160 -6 -232
c0 -145 16 -186 50 -186c13 0 36 6 48 14c1 -5 1 -10 1 -14c0 -21 -7 -51 -16 -65c-17 -12 -45 -22 -71 -22c-57 0 -85 42 -96 95h-7c-16 -44 -47 -95 -138 -95c-58 0 -105 29 -124 93z" />
    <glyph glyph-name="paragraph" unicode="&#xb6;" horiz-adv-x="647" 
d="M449 653c-25 2 -59 3 -90 3v-752c69 -2 185 -7 248 -13c3 -12 5 -30 5 -45c0 -6 0 -11 -1 -17h-415c2 19 7 45 13 61c18 5 48 11 69 13v444c-12 -1 -28 -2 -40 -2c-93 0 -196 45 -196 181c0 126 100 195 295 195c92 0 210 -5 267 -10c2 -9 3 -20 3 -31
c0 -12 -2 -27 -4 -36c-21 -1 -53 -1 -73 -1v-666c-7 -2 -25 -3 -38 -3c-14 0 -35 1 -43 3v676z" />
    <glyph glyph-name="periodcentered" unicode="&#xb7;" horiz-adv-x="336" 
d="M169 327c48 0 81 -29 81 -80c0 -55 -33 -85 -81 -85c-54 0 -83 29 -83 85c0 48 34 80 83 80z" />
    <glyph glyph-name="cedilla" unicode="&#xb8;" horiz-adv-x="362" 
d="M115 -80l37 87c19 5 48 8 71 8l-13 -71c31 -8 65 -34 65 -73c0 -60 -65 -99 -130 -106c-19 12 -33 27 -44 47c38 6 68 26 68 56c0 28 -24 45 -54 52z" />
    <glyph glyph-name="onesuperior" unicode="&#xb9;" horiz-adv-x="385" 
d="M250 773v-328c21 -1 53 -4 72 -8c3 -11 5 -27 5 -41c0 -5 0 -11 -1 -17h-250c1 17 8 43 14 57c18 5 44 9 64 10v249l-89 -9c1 18 5 46 13 65c36 8 106 19 172 22z" />
    <glyph glyph-name="ordmasculine" unicode="&#xba;" horiz-adv-x="446" 
d="M227 646c99 0 165 -57 165 -160c0 -108 -65 -173 -165 -173c-106 0 -168 62 -168 173c0 99 72 160 168 160zM152 486c0 -66 29 -108 75 -108s71 42 71 108c0 55 -29 97 -71 97c-48 0 -75 -39 -75 -97zM87 272h284c3 -13 6 -52 3 -72h-297c0 19 4 53 10 72z" />
    <glyph glyph-name="guillemotright" unicode="&#xbb;" horiz-adv-x="612" 
d="M323 67c32 65 60 124 85 190c-25 65 -52 127 -85 192c24 11 65 21 97 21c44 -71 88 -148 116 -213c-30 -67 -76 -148 -119 -218c-29 2 -71 15 -94 28zM95 64c32 65 60 124 85 190c-25 65 -52 127 -85 192c24 11 65 21 97 21c44 -71 88 -148 116 -213
c-30 -67 -76 -148 -119 -218c-29 2 -71 15 -94 28z" />
    <glyph glyph-name="onequarter" unicode="&#xbc;" horiz-adv-x="926" 
d="M800 94v-92c-6 -3 -28 -4 -43 -4s-38 1 -47 4v92h-188v56l165 237h113v-224h54c3 -19 4 -46 4 -69h-58zM710 163v84c0 18 1 40 4 59h-6l-95 -139v-6c13 2 30 2 44 2h53zM779 689l-500 -721c-26 5 -61 24 -76 40l488 701c28 -1 64 -9 88 -20zM249 683v-328
c21 -1 53 -4 72 -8c3 -11 5 -27 5 -41c0 -5 0 -11 -1 -17h-250c1 17 8 43 14 57c18 5 44 9 64 10v249l-89 -9c1 18 5 46 13 65c36 8 106 19 172 22z" />
    <glyph glyph-name="onehalf" unicode="&#xbd;" horiz-adv-x="926" 
d="M738 689l-500 -721c-26 5 -61 24 -76 40l488 701c28 -1 64 -9 88 -20zM226 683v-328c21 -1 53 -4 72 -8c3 -11 5 -27 5 -41c0 -5 0 -11 -1 -17h-250c1 17 8 43 14 57c18 5 44 9 64 10v249l-89 -9c1 18 5 46 13 65c36 8 106 19 172 22zM559 0v67c62 59 196 141 196 217
c0 30 -19 45 -52 45c-20 0 -45 -5 -61 -13v-47c-19 -7 -56 -11 -76 -11c-5 29 -8 69 -8 103c38 17 88 33 151 33c85 0 147 -25 147 -104c0 -88 -135 -176 -195 -215v-6c58 1 137 3 208 8c0 -18 -3 -58 -7 -77h-303z" />
    <glyph glyph-name="threequarters" unicode="&#xbe;" horiz-adv-x="926" 
d="M795 94v-92c-6 -3 -28 -4 -43 -4s-38 1 -47 4v92h-188v56l165 237h113v-224h54c3 -19 4 -46 4 -69h-58zM705 163v84c0 18 1 40 4 59h-6l-95 -139v-6c13 2 30 2 44 2h53zM767 689l-500 -721c-26 5 -61 24 -76 40l488 701c28 -1 64 -9 88 -20zM191 613
c-31 0 -80 -8 -115 -23c-2 22 1 53 10 75c33 13 76 18 110 18c76 0 145 -29 145 -97c0 -48 -30 -80 -77 -89v-7c46 -6 86 -36 86 -91c0 -84 -76 -117 -173 -117c-35 0 -76 4 -103 13c-8 17 -13 41 -13 60c0 4 0 14 1 21c32 -14 86 -25 121 -25c37 0 67 14 67 48
c0 41 -37 53 -141 53c-3 20 -1 49 6 69c86 0 128 14 128 53c0 31 -25 39 -52 39z" />
    <glyph glyph-name="questiondown" unicode="&#xbf;" horiz-adv-x="495" 
d="M252 500c43 0 75 -26 75 -72c0 -50 -32 -78 -75 -78c-49 0 -74 27 -74 78c0 43 31 72 74 72zM338 -138v94c23 13 64 21 92 22c9 -50 13 -114 13 -174c-49 -20 -144 -36 -208 -36c-120 0 -196 55 -196 143c0 139 192 188 192 271c0 27 -8 56 -24 76c21 15 63 30 95 33
c25 -26 44 -66 44 -103c0 -111 -176 -166 -176 -265c0 -36 26 -78 92 -78c22 0 55 6 76 17z" />
    <glyph glyph-name="Agrave" unicode="&#xc0;" horiz-adv-x="781" 
d="M757 0h-278c2 20 10 52 18 71c18 6 48 11 69 14c-16 21 -28 47 -38 72l-22 58h-262l-23 -63c-8 -23 -20 -51 -33 -71c23 -1 55 -5 77 -10c6 -17 12 -53 12 -71h-259c3 24 11 51 20 71c13 5 35 10 50 12l260 631h88l249 -628c16 -2 43 -7 59 -12c6 -21 12 -52 13 -74z
M381 586h-9c-4 -31 -22 -89 -33 -118l-67 -179h206l-68 181c-10 27 -26 84 -29 116zM432 751l-264 101c17 27 63 66 91 78l204 -103c-4 -21 -18 -60 -31 -76z" />
    <glyph glyph-name="Aacute" unicode="&#xc1;" horiz-adv-x="781" 
d="M757 0h-278c2 20 10 52 18 71c18 6 48 11 69 14c-16 21 -28 47 -38 72l-22 58h-262l-23 -63c-8 -23 -20 -51 -33 -71c23 -1 55 -5 77 -10c6 -17 12 -53 12 -71h-259c3 24 11 51 20 71c13 5 35 10 50 12l260 631h88l249 -628c16 -2 43 -7 59 -12c6 -21 12 -52 13 -74z
M381 586h-9c-4 -31 -22 -89 -33 -118l-67 -179h206l-68 181c-10 27 -26 84 -29 116zM588 844l-266 -96c-8 20 -14 59 -14 81l218 105c23 -19 50 -59 62 -90z" />
    <glyph glyph-name="Acircumflex" unicode="&#xc2;" horiz-adv-x="781" 
d="M757 0h-278c2 20 10 52 18 71c18 6 48 11 69 14c-16 21 -28 47 -38 72l-22 58h-262l-23 -63c-8 -23 -20 -51 -33 -71c23 -1 55 -5 77 -10c6 -17 12 -53 12 -71h-259c3 24 11 51 20 71c13 5 35 10 50 12l260 631h88l249 -628c16 -2 43 -7 59 -12c6 -21 12 -52 13 -74z
M381 586h-9c-4 -31 -22 -89 -33 -118l-67 -179h206l-68 181c-10 27 -26 84 -29 116zM327 914h120l141 -105c-7 -21 -30 -49 -49 -60l-155 77l-165 -82c-14 17 -23 53 -25 73z" />
    <glyph glyph-name="Atilde" unicode="&#xc3;" horiz-adv-x="781" 
d="M757 0h-278c2 20 10 52 18 71c18 6 48 11 69 14c-16 21 -28 47 -38 72l-22 58h-262l-23 -63c-8 -23 -20 -51 -33 -71c23 -1 55 -5 77 -10c6 -17 12 -53 12 -71h-259c3 24 11 51 20 71c13 5 35 10 50 12l260 631h88l249 -628c16 -2 43 -7 59 -12c6 -21 12 -52 13 -74z
M381 586h-9c-4 -31 -22 -89 -33 -118l-67 -179h206l-68 181c-10 27 -26 84 -29 116zM529 899c23 0 47 -3 66 -12c-1 -61 -44 -128 -137 -128c-66 0 -103 46 -160 46c-30 0 -52 -21 -57 -42c-22 2 -50 18 -63 35c10 56 54 104 135 104c76 0 101 -44 160 -44c30 0 50 18 56 41
z" />
    <glyph glyph-name="Adieresis" unicode="&#xc4;" horiz-adv-x="781" 
d="M757 0h-278c2 20 10 52 18 71c18 6 48 11 69 14c-16 21 -28 47 -38 72l-22 58h-262l-23 -63c-8 -23 -20 -51 -33 -71c23 -1 55 -5 77 -10c6 -17 12 -53 12 -71h-259c3 24 11 51 20 71c13 5 35 10 50 12l260 631h88l249 -628c16 -2 43 -7 59 -12c6 -21 12 -52 13 -74z
M381 586h-9c-4 -31 -22 -89 -33 -118l-67 -179h206l-68 181c-10 27 -26 84 -29 116zM246 897c42 0 72 -22 72 -65c0 -46 -30 -70 -72 -70c-48 0 -72 23 -72 70c0 40 29 65 72 65zM529 897c42 0 72 -22 72 -65c0 -46 -30 -70 -72 -70c-48 0 -72 23 -72 70c0 40 29 65 72 65z
" />
    <glyph glyph-name="Aring" unicode="&#xc5;" horiz-adv-x="781" 
d="M393 924c80 0 133 -37 133 -108c0 -59 -34 -95 -88 -108l247 -622c16 -2 43 -7 59 -12c6 -21 12 -52 13 -74h-278c2 20 10 52 18 71c18 6 48 11 69 14c-16 21 -28 47 -38 72l-22 58h-262l-23 -63c-8 -23 -20 -51 -33 -71c23 -1 55 -5 77 -10c6 -17 12 -53 12 -71h-259
c3 24 11 51 20 71c13 5 35 10 50 12l257 624c-57 12 -87 49 -87 107c0 69 50 110 135 110zM381 586h-9c-4 -31 -22 -89 -33 -118l-67 -179h206l-68 181c-10 27 -26 84 -29 116zM392 864c-34 0 -57 -19 -57 -50c0 -33 21 -51 57 -51c32 0 56 17 56 51s-24 50 -56 50z" />
    <glyph glyph-name="AE" unicode="&#xc6;" horiz-adv-x="979" 
d="M606 624v-236h170c1 12 6 36 10 49c20 6 55 11 81 11v-194c-24 -2 -60 0 -82 6c-4 15 -8 38 -9 52h-170v-233h219c2 26 7 60 13 83c21 7 63 11 89 11v-173h-528c1 20 8 54 15 71c16 5 51 12 70 14v148h-212l-45 -80c-12 -22 -32 -51 -48 -70c23 -2 53 -6 75 -11
c7 -18 12 -54 12 -72h-258c3 24 11 51 20 70c13 6 34 11 49 13l311 536c-26 2 -63 6 -83 10c-4 17 -6 56 -2 72h614v-163c-25 0 -60 4 -83 11c-5 19 -11 55 -12 75h-216zM484 614h-9c-8 -24 -22 -57 -36 -82l-125 -225h170v307z" />
    <glyph glyph-name="Ccedilla" unicode="&#xc7;" horiz-adv-x="656" 
d="M492 522v100c-30 13 -59 18 -91 18c-126 0 -224 -93 -224 -280c0 -194 92 -283 224 -283c55 0 138 15 196 36c2 -22 -7 -62 -18 -82c-40 -21 -96 -39 -154 -47l-7 -44c39 -7 75 -35 75 -82c0 -69 -73 -111 -144 -119c-19 13 -36 34 -47 53c41 9 73 27 73 62
c0 33 -29 50 -63 57l28 70c-176 13 -292 159 -292 359c0 239 163 381 360 381c75 0 142 -16 195 -42c0 -57 -6 -133 -16 -179c-28 0 -72 9 -95 22z" />
    <glyph glyph-name="Egrave" unicode="&#xc8;" horiz-adv-x="622" 
d="M570 0h-535c2 20 9 54 16 71c17 5 54 12 74 14v533c-22 2 -54 6 -71 9c-3 21 -4 52 -1 74h507v-163c-25 0 -60 4 -83 11c-5 19 -11 55 -12 75h-219v-231h173c1 12 6 36 10 49c20 6 55 11 81 11v-194c-24 -2 -60 0 -82 6c-4 15 -8 38 -9 53h-173v-239h222c2 26 7 60 13 83
c21 7 63 11 89 11v-173zM377 751l-264 101c17 27 63 66 91 78l204 -103c-4 -21 -18 -60 -31 -76z" />
    <glyph glyph-name="Eacute" unicode="&#xc9;" horiz-adv-x="622" 
d="M570 0h-535c2 20 9 54 16 71c17 5 54 12 74 14v533c-22 2 -54 6 -71 9c-3 21 -4 52 -1 74h507v-163c-25 0 -60 4 -83 11c-5 19 -11 55 -12 75h-219v-231h173c1 12 6 36 10 49c20 6 55 11 81 11v-194c-24 -2 -60 0 -82 6c-4 15 -8 38 -9 53h-173v-239h222c2 26 7 60 13 83
c21 7 63 11 89 11v-173zM532 844l-266 -96c-8 20 -14 59 -14 81l218 105c23 -19 50 -59 62 -90z" />
    <glyph glyph-name="Ecircumflex" unicode="&#xca;" horiz-adv-x="622" 
d="M570 0h-535c2 20 9 54 16 71c17 5 54 12 74 14v533c-22 2 -54 6 -71 9c-3 21 -4 52 -1 74h507v-163c-25 0 -60 4 -83 11c-5 19 -11 55 -12 75h-219v-231h173c1 12 6 36 10 49c20 6 55 11 81 11v-194c-24 -2 -60 0 -82 6c-4 15 -8 38 -9 53h-173v-239h222c2 26 7 60 13 83
c21 7 63 11 89 11v-173zM266 914h120l141 -105c-7 -21 -30 -49 -49 -60l-155 77l-165 -82c-14 17 -23 53 -25 73z" />
    <glyph glyph-name="Edieresis" unicode="&#xcb;" horiz-adv-x="622" 
d="M570 0h-535c2 20 9 54 16 71c17 5 54 12 74 14v533c-22 2 -54 6 -71 9c-3 21 -4 52 -1 74h507v-163c-25 0 -60 4 -83 11c-5 19 -11 55 -12 75h-219v-231h173c1 12 6 36 10 49c20 6 55 11 81 11v-194c-24 -2 -60 0 -82 6c-4 15 -8 38 -9 53h-173v-239h222c2 26 7 60 13 83
c21 7 63 11 89 11v-173zM188 897c42 0 72 -22 72 -65c0 -46 -30 -70 -72 -70c-48 0 -72 23 -72 70c0 40 29 65 72 65zM471 897c42 0 72 -22 72 -65c0 -46 -30 -70 -72 -70c-48 0 -72 23 -72 70c0 40 29 65 72 65z" />
    <glyph glyph-name="Igrave" unicode="&#xcc;" horiz-adv-x="371" 
d="M334 0h-299c2 20 9 54 16 71c17 5 54 12 74 14v533c-22 2 -54 6 -71 9c-3 21 -5 52 -1 74h273c3 -16 2 -56 -2 -73c-20 -4 -55 -8 -78 -9v-535c27 -2 62 -6 85 -11c3 -12 5 -28 5 -46c0 -11 -1 -20 -2 -27zM229 751l-264 101c17 27 63 66 91 78l204 -103
c-4 -21 -18 -60 -31 -76z" />
    <glyph glyph-name="Iacute" unicode="&#xcd;" horiz-adv-x="371" 
d="M334 0h-299c2 20 9 54 16 71c17 5 54 12 74 14v533c-22 2 -54 6 -71 9c-3 21 -5 52 -1 74h273c3 -16 2 -56 -2 -73c-20 -4 -55 -8 -78 -9v-535c27 -2 62 -6 85 -11c3 -12 5 -28 5 -46c0 -11 -1 -20 -2 -27zM394 844l-266 -96c-8 20 -14 59 -14 81l218 105
c23 -19 50 -59 62 -90z" />
    <glyph glyph-name="Icircumflex" unicode="&#xce;" horiz-adv-x="371" 
d="M334 0h-299c2 20 9 54 16 71c17 5 54 12 74 14v533c-22 2 -54 6 -71 9c-3 21 -5 52 -1 74h273c3 -16 2 -56 -2 -73c-20 -4 -55 -8 -78 -9v-535c27 -2 62 -6 85 -11c3 -12 5 -28 5 -46c0 -11 -1 -20 -2 -27zM125 914h120l141 -105c-7 -21 -30 -49 -49 -60l-155 77
l-165 -82c-14 17 -23 53 -25 73z" />
    <glyph glyph-name="Idieresis" unicode="&#xcf;" horiz-adv-x="371" 
d="M58 897c42 0 72 -22 72 -65c0 -46 -30 -70 -72 -70c-48 0 -72 23 -72 70c0 40 29 65 72 65zM311 897c42 0 72 -22 72 -65c0 -46 -30 -70 -72 -70c-48 0 -72 23 -72 70c0 40 29 65 72 65zM334 0h-299c2 20 9 54 16 71c17 5 54 12 74 14v533c-22 2 -54 6 -71 9
c-3 21 -5 52 -1 74h273c3 -16 2 -56 -2 -73c-20 -4 -55 -8 -78 -9v-535c27 -2 62 -6 85 -11c3 -12 5 -28 5 -46c0 -11 -1 -20 -2 -27z" />
    <glyph glyph-name="Eth" unicode="&#xd0;" horiz-adv-x="746" 
d="M137 86v226h-82c0 21 4 55 11 76h71v221c-22 1 -51 4 -71 7c-3 21 -5 53 -1 76c77 9 203 16 276 16c215 0 369 -113 369 -351c0 -250 -167 -362 -335 -362c-92 0 -232 2 -327 6c2 21 9 54 16 71c16 6 53 12 73 14zM258 626v-238h167c4 -14 7 -54 4 -76h-171v-234
c26 -2 62 -3 88 -3c142 0 238 81 238 268c0 197 -104 286 -255 286c-18 0 -53 -1 -71 -3z" />
    <glyph glyph-name="Ntilde" unicode="&#xd1;" horiz-adv-x="774" 
d="M285 701l236 -429c21 -37 46 -105 55 -147h9v493c-23 2 -57 6 -75 9c-3 18 -5 58 -1 74h236c2 -6 3 -18 3 -28c0 -17 -2 -35 -5 -45c-17 -4 -48 -8 -68 -9v-626h-133l-270 493c-16 29 -34 73 -43 107h-9v-509c26 -2 59 -6 81 -11c5 -17 7 -57 4 -73h-267c2 20 9 54 15 71
c16 5 51 12 70 14v533c-22 2 -54 6 -70 9c-4 18 -5 58 -2 74h234zM547 899c23 0 47 -3 66 -12c-1 -61 -44 -128 -137 -128c-66 0 -103 46 -160 46c-30 0 -52 -21 -57 -42c-22 2 -50 18 -63 35c10 56 54 104 135 104c76 0 101 -44 160 -44c30 0 50 18 56 41z" />
    <glyph glyph-name="Ograve" unicode="&#xd2;" horiz-adv-x="746" 
d="M375 721c194 0 324 -128 324 -361c0 -241 -128 -380 -324 -380c-211 0 -328 131 -328 380c0 223 141 361 328 361zM177 360c0 -181 73 -298 198 -298c130 0 195 113 195 298c0 163 -78 280 -195 280c-130 0 -198 -109 -198 -280zM429 751l-264 101c17 27 63 66 91 78
l204 -103c-4 -21 -18 -60 -31 -76z" />
    <glyph glyph-name="Oacute" unicode="&#xd3;" horiz-adv-x="746" 
d="M375 721c194 0 324 -128 324 -361c0 -241 -128 -380 -324 -380c-211 0 -328 131 -328 380c0 223 141 361 328 361zM177 360c0 -181 73 -298 198 -298c130 0 195 113 195 298c0 163 -78 280 -195 280c-130 0 -198 -109 -198 -280zM572 844l-266 -96c-8 20 -14 59 -14 81
l218 105c23 -19 50 -59 62 -90z" />
    <glyph glyph-name="Ocircumflex" unicode="&#xd4;" horiz-adv-x="746" 
d="M375 721c194 0 324 -128 324 -361c0 -241 -128 -380 -324 -380c-211 0 -328 131 -328 380c0 223 141 361 328 361zM177 360c0 -181 73 -298 198 -298c130 0 195 113 195 298c0 163 -78 280 -195 280c-130 0 -198 -109 -198 -280zM317 914h120l141 -105
c-7 -21 -30 -49 -49 -60l-155 77l-165 -82c-14 17 -23 53 -25 73z" />
    <glyph glyph-name="Otilde" unicode="&#xd5;" horiz-adv-x="746" 
d="M375 721c194 0 324 -128 324 -361c0 -241 -128 -380 -324 -380c-211 0 -328 131 -328 380c0 223 141 361 328 361zM177 360c0 -181 73 -298 198 -298c130 0 195 113 195 298c0 163 -78 280 -195 280c-130 0 -198 -109 -198 -280zM517 899c23 0 47 -3 66 -12
c-1 -61 -44 -128 -137 -128c-66 0 -103 46 -160 46c-30 0 -52 -21 -57 -42c-22 2 -50 18 -63 35c10 56 54 104 135 104c76 0 101 -44 160 -44c30 0 50 18 56 41z" />
    <glyph glyph-name="Odieresis" unicode="&#xd6;" horiz-adv-x="746" 
d="M221 897c42 0 72 -22 72 -65c0 -46 -30 -70 -72 -70c-48 0 -72 23 -72 70c0 40 29 65 72 65zM538 897c42 0 72 -22 72 -65c0 -46 -30 -70 -72 -70c-48 0 -72 23 -72 70c0 40 29 65 72 65zM375 721c194 0 324 -128 324 -361c0 -241 -128 -380 -324 -380
c-211 0 -328 131 -328 380c0 223 141 361 328 361zM177 360c0 -181 73 -298 198 -298c130 0 195 113 195 298c0 163 -78 280 -195 280c-130 0 -198 -109 -198 -280z" />
    <glyph glyph-name="multiply" unicode="&#xd7;" 
d="M346 268l164 -161c-10 -20 -44 -53 -64 -65l-161 164l-160 -164c-23 14 -55 47 -66 65l164 161l-169 165c15 18 51 43 76 54l155 -158l152 157c26 -8 64 -35 79 -53z" />
    <glyph glyph-name="Oslash" unicode="&#xd8;" horiz-adv-x="778" 
d="M588 661l77 87c24 -6 69 -31 85 -47l-96 -108c41 -58 63 -137 63 -233c0 -241 -129 -380 -327 -380c-90 0 -164 24 -218 70l-102 -114c-17 13 -51 52 -60 72l102 116c-34 60 -52 139 -52 236c0 223 142 361 330 361c78 0 146 -21 198 -60zM565 502l-322 -361
c34 -51 84 -79 147 -79c134 0 200 113 200 298c0 53 -9 101 -25 142zM208 221l315 354c-34 41 -80 65 -133 65c-133 0 -202 -109 -202 -279c0 -53 6 -101 20 -140z" />
    <glyph glyph-name="Ugrave" unicode="&#xd9;" horiz-adv-x="757" 
d="M234 619v-353c0 -134 52 -204 164 -204c119 0 170 88 170 205v351c-20 2 -49 6 -65 9c-4 18 -5 58 -1 74h231c2 -6 3 -18 3 -28c0 -17 -2 -35 -5 -45c-16 -4 -46 -8 -66 -9v-346c0 -173 -85 -293 -290 -293c-180 0 -262 95 -262 278v360c-20 2 -54 6 -71 10
c-5 17 -9 56 -9 73h281c4 -16 3 -56 -2 -73c-20 -4 -54 -8 -78 -9zM445 751l-264 101c17 27 63 66 91 78l204 -103c-4 -21 -18 -60 -31 -76z" />
    <glyph glyph-name="Uacute" unicode="&#xda;" horiz-adv-x="757" 
d="M234 619v-353c0 -134 52 -204 164 -204c119 0 170 88 170 205v351c-20 2 -49 6 -65 9c-4 18 -5 58 -1 74h231c2 -6 3 -18 3 -28c0 -17 -2 -35 -5 -45c-16 -4 -46 -8 -66 -9v-346c0 -173 -85 -293 -290 -293c-180 0 -262 95 -262 278v360c-20 2 -54 6 -71 10
c-5 17 -9 56 -9 73h281c4 -16 3 -56 -2 -73c-20 -4 -54 -8 -78 -9zM605 844l-266 -96c-8 20 -14 59 -14 81l218 105c23 -19 50 -59 62 -90z" />
    <glyph glyph-name="Ucircumflex" unicode="&#xdb;" horiz-adv-x="757" 
d="M234 619v-353c0 -134 52 -204 164 -204c119 0 170 88 170 205v351c-20 2 -49 6 -65 9c-4 18 -5 58 -1 74h231c2 -6 3 -18 3 -28c0 -17 -2 -35 -5 -45c-16 -4 -46 -8 -66 -9v-346c0 -173 -85 -293 -290 -293c-180 0 -262 95 -262 278v360c-20 2 -54 6 -71 10
c-5 17 -9 56 -9 73h281c4 -16 3 -56 -2 -73c-20 -4 -54 -8 -78 -9zM342 914h120l141 -105c-7 -21 -30 -49 -49 -60l-155 77l-165 -82c-14 17 -23 53 -25 73z" />
    <glyph glyph-name="Udieresis" unicode="&#xdc;" horiz-adv-x="757" 
d="M234 619v-353c0 -134 52 -204 164 -204c119 0 170 88 170 205v351c-20 2 -49 6 -65 9c-4 18 -5 58 -1 74h231c2 -6 3 -18 3 -28c0 -17 -2 -35 -5 -45c-16 -4 -46 -8 -66 -9v-346c0 -173 -85 -293 -290 -293c-180 0 -262 95 -262 278v360c-20 2 -54 6 -71 10
c-5 17 -9 56 -9 73h281c4 -16 3 -56 -2 -73c-20 -4 -54 -8 -78 -9zM260 897c42 0 72 -22 72 -65c0 -46 -30 -70 -72 -70c-48 0 -72 23 -72 70c0 40 29 65 72 65zM543 897c42 0 72 -22 72 -65c0 -46 -30 -70 -72 -70c-48 0 -72 23 -72 70c0 40 29 65 72 65z" />
    <glyph glyph-name="Yacute" unicode="&#xdd;" horiz-adv-x="657" 
d="M340 345h10c4 25 17 58 29 80l72 136c10 19 25 41 40 58c-18 1 -43 5 -59 9c-6 20 -11 53 -11 73h229c0 -20 -5 -57 -11 -75c-14 -4 -34 -6 -49 -7l-204 -348v-187c31 -2 70 -6 97 -11c5 -17 6 -57 4 -73h-325c2 20 11 54 18 70c20 6 61 13 84 15v180l-188 353
c-15 1 -38 5 -52 10c-6 19 -11 51 -12 73h278c0 -21 -6 -55 -12 -75c-19 -4 -49 -7 -71 -8c15 -16 29 -37 39 -58l68 -135c10 -20 22 -55 26 -80zM554 844l-266 -96c-8 20 -14 59 -14 81l218 105c23 -19 50 -59 62 -90z" />
    <glyph glyph-name="Thorn" unicode="&#xde;" horiz-adv-x="628" 
d="M337 0h-302c2 20 9 54 16 71c17 5 54 12 74 14v533c-23 2 -52 6 -71 9c-3 18 -4 57 -1 74h275c3 -16 2 -56 -2 -72c-23 -5 -55 -9 -80 -10v-61c26 2 56 2 82 2c159 0 275 -63 275 -194c0 -151 -129 -216 -257 -216c-33 0 -69 2 -100 8v-74c28 -2 64 -6 87 -12
c5 -17 7 -56 4 -72zM246 478v-244c30 -4 68 -6 100 -6c81 0 134 38 134 130c0 79 -68 124 -166 124c-17 0 -49 -2 -68 -4z" />
    <glyph glyph-name="germandbls" unicode="&#xdf;" horiz-adv-x="683" 
d="M222 0h-190c2 19 8 44 15 58c15 9 42 18 61 24v314c-21 2 -49 7 -67 12c-4 19 -5 56 -2 73h71c6 177 101 263 260 263c93 0 208 -30 208 -133c0 -55 -32 -85 -62 -112c-28 -25 -49 -45 -49 -82c0 -54 46 -74 93 -103c50 -31 103 -76 103 -162c0 -116 -97 -169 -203 -169
c-55 0 -111 15 -158 39c-2 12 -4 28 -4 42c0 33 5 65 12 83c27 0 65 -5 88 -13v-59c20 -12 47 -19 71 -19c50 0 79 30 79 77c0 56 -42 82 -88 109c-52 30 -113 71 -113 156c0 68 39 102 74 132c26 22 43 42 43 71c0 52 -53 68 -100 68c-104 0 -142 -80 -142 -212v-457z" />
    <glyph glyph-name="agrave" unicode="&#xe0;" horiz-adv-x="523" 
d="M329 57h-7c-27 -47 -76 -74 -143 -74c-73 0 -143 45 -143 141c0 107 89 161 195 161c30 0 63 -6 87 -17v46c0 64 -31 94 -91 94c-45 0 -118 -23 -154 -45c-3 8 -4 23 -4 34c0 26 6 55 15 70c35 17 114 31 171 31c117 0 175 -50 175 -183v-181c0 -26 5 -51 13 -63
c17 0 49 5 68 10c1 -5 1 -10 1 -13c0 -19 -6 -40 -14 -56c-24 -14 -80 -29 -124 -29c-21 12 -39 42 -45 74zM320 110v102c-18 5 -46 8 -63 8c-68 0 -106 -32 -106 -80c0 -51 36 -73 77 -73c39 0 74 18 92 43zM260 554l-161 165c22 16 82 29 119 29l124 -172
c-17 -10 -60 -22 -82 -22z" />
    <glyph glyph-name="aacute" unicode="&#xe1;" horiz-adv-x="523" 
d="M329 57h-7c-27 -47 -76 -74 -143 -74c-73 0 -143 45 -143 141c0 107 89 161 195 161c30 0 63 -6 87 -17v46c0 64 -31 94 -91 94c-45 0 -118 -23 -154 -45c-3 8 -4 23 -4 34c0 26 6 55 15 70c35 17 114 31 171 31c117 0 175 -50 175 -183v-181c0 -26 5 -51 13 -63
c17 0 49 5 68 10c1 -5 1 -10 1 -13c0 -19 -6 -40 -14 -56c-24 -14 -80 -29 -124 -29c-21 12 -39 42 -45 74zM320 110v102c-18 5 -46 8 -63 8c-68 0 -106 -32 -106 -80c0 -51 36 -73 77 -73c39 0 74 18 92 43zM395 715l-169 -174c-19 8 -48 33 -59 49l119 165
c26 0 88 -20 109 -40z" />
    <glyph glyph-name="acircumflex" unicode="&#xe2;" horiz-adv-x="523" 
d="M329 57h-7c-27 -47 -76 -74 -143 -74c-73 0 -143 45 -143 141c0 107 89 161 195 161c30 0 63 -6 87 -17v46c0 64 -31 94 -91 94c-45 0 -118 -23 -154 -45c-3 8 -4 23 -4 34c0 26 6 55 15 70c35 17 114 31 171 31c117 0 175 -50 175 -183v-181c0 -26 5 -51 13 -63
c17 0 49 5 68 10c1 -5 1 -10 1 -13c0 -19 -6 -40 -14 -56c-24 -14 -80 -29 -124 -29c-21 12 -39 42 -45 74zM320 110v102c-18 5 -46 8 -63 8c-68 0 -106 -32 -106 -80c0 -51 36 -73 77 -73c39 0 74 18 92 43zM198 735l94 4l125 -141c-11 -18 -41 -43 -64 -49l-111 101
l-117 -105c-17 12 -37 42 -44 63z" />
    <glyph glyph-name="atilde" unicode="&#xe3;" horiz-adv-x="523" 
d="M329 57h-7c-27 -47 -76 -74 -143 -74c-73 0 -143 45 -143 141c0 107 89 161 195 161c30 0 63 -6 87 -17v46c0 64 -31 94 -91 94c-45 0 -118 -23 -154 -45c-3 8 -4 23 -4 34c0 26 6 55 15 70c35 17 114 31 171 31c117 0 175 -50 175 -183v-181c0 -26 5 -51 13 -63
c17 0 49 5 68 10c1 -5 1 -10 1 -13c0 -19 -6 -40 -14 -56c-24 -14 -80 -29 -124 -29c-21 12 -39 42 -45 74zM320 110v102c-18 5 -46 8 -63 8c-68 0 -106 -32 -106 -80c0 -51 36 -73 77 -73c39 0 74 18 92 43zM367 699c20 0 40 -2 59 -12c-2 -57 -37 -120 -117 -120
c-56 0 -88 44 -136 44c-27 0 -43 -19 -48 -39c-21 1 -44 13 -57 30c9 55 44 101 116 101c65 0 87 -42 136 -42c26 0 42 17 47 38z" />
    <glyph glyph-name="adieresis" unicode="&#xe4;" horiz-adv-x="523" 
d="M329 57h-7c-27 -47 -76 -74 -143 -74c-73 0 -143 45 -143 141c0 107 89 161 195 161c30 0 63 -6 87 -17v46c0 64 -31 94 -91 94c-45 0 -118 -23 -154 -45c-3 8 -4 23 -4 34c0 26 6 55 15 70c35 17 114 31 171 31c117 0 175 -50 175 -183v-181c0 -26 5 -51 13 -63
c17 0 49 5 68 10c1 -5 1 -10 1 -13c0 -19 -6 -40 -14 -56c-24 -14 -80 -29 -124 -29c-21 12 -39 42 -45 74zM320 110v102c-18 5 -46 8 -63 8c-68 0 -106 -32 -106 -80c0 -51 36 -73 77 -73c39 0 74 18 92 43zM129 698c38 0 65 -22 65 -62c0 -44 -27 -68 -65 -68
c-44 0 -66 23 -66 68c0 38 27 62 66 62zM365 698c38 0 65 -22 65 -62c0 -44 -27 -68 -65 -68c-44 0 -66 23 -66 68c0 38 27 62 66 62z" />
    <glyph glyph-name="aring" unicode="&#xe5;" horiz-adv-x="523" 
d="M329 57h-7c-27 -47 -76 -74 -143 -74c-73 0 -143 45 -143 141c0 107 89 161 195 161c30 0 63 -6 87 -17v46c0 64 -31 94 -91 94c-45 0 -118 -23 -154 -45c-3 8 -4 23 -4 34c0 26 6 55 15 70c35 17 114 31 171 31c117 0 175 -50 175 -183v-181c0 -26 5 -51 13 -63
c17 0 49 5 68 10c1 -5 1 -10 1 -13c0 -19 -6 -40 -14 -56c-24 -14 -80 -29 -124 -29c-21 12 -39 42 -45 74zM320 110v102c-18 5 -46 8 -63 8c-68 0 -106 -32 -106 -80c0 -51 36 -73 77 -73c39 0 74 18 92 43zM249 767c68 0 115 -38 115 -104c0 -74 -47 -111 -115 -111
c-80 0 -120 35 -120 111c0 63 48 104 120 104zM250 714c-32 0 -53 -18 -53 -51c0 -41 18 -58 53 -58c29 0 48 19 48 58c0 34 -19 51 -48 51z" />
    <glyph glyph-name="ae" unicode="&#xe6;" horiz-adv-x="773" 
d="M318 268v46c0 64 -31 94 -91 94c-45 0 -118 -23 -154 -45c-3 8 -4 23 -4 34c0 26 6 55 15 70c34 17 114 31 170 31c84 0 120 -28 138 -69h6c23 37 77 69 151 69c127 0 179 -87 179 -223c0 -18 -1 -37 -3 -56h-297c6 -90 56 -146 158 -146c41 0 106 14 138 27
c2 -21 -6 -58 -19 -77c-37 -20 -98 -40 -163 -40c-88 0 -152 39 -178 94h-7c-21 -45 -78 -94 -168 -94c-84 0 -153 46 -153 141c0 105 90 161 195 161c30 0 63 -6 87 -17zM336 120c-12 28 -19 59 -21 93c-16 4 -42 7 -59 7c-67 0 -105 -34 -105 -81c0 -45 30 -72 79 -72
c42 0 77 17 106 53zM426 293h188c7 61 -11 134 -82 134c-61 0 -101 -54 -106 -134z" />
    <glyph glyph-name="ccedilla" unicode="&#xe7;" horiz-adv-x="485" 
d="M210 -80l27 65c-121 13 -196 112 -196 246c0 156 105 267 258 267c56 0 105 -14 144 -36c2 -10 3 -28 3 -40c0 -33 -7 -71 -17 -97c-25 0 -65 10 -85 21v67c-16 7 -32 11 -47 11c-77 0 -133 -54 -133 -174c0 -125 61 -182 145 -182c42 0 97 12 133 27
c2 -21 -6 -55 -19 -75c-29 -15 -69 -27 -110 -33l-8 -43c31 -8 65 -34 65 -73c0 -60 -65 -99 -130 -106c-19 12 -33 27 -44 47c38 6 68 26 68 56c0 28 -24 45 -54 52z" />
    <glyph glyph-name="egrave" unicode="&#xe8;" horiz-adv-x="510" 
d="M462 220h-301c5 -93 64 -148 151 -148c44 0 111 13 148 27c2 -21 -7 -57 -19 -76c-36 -20 -97 -40 -164 -40c-150 0 -236 107 -236 248c0 152 96 267 243 267c128 0 181 -89 181 -224c0 -17 -1 -36 -3 -54zM159 294h193c6 61 -13 134 -85 134c-61 0 -102 -55 -108 -134z
M294 554l-161 165c22 16 82 29 119 29l124 -172c-17 -10 -60 -22 -82 -22z" />
    <glyph glyph-name="eacute" unicode="&#xe9;" horiz-adv-x="510" 
d="M462 220h-301c5 -93 64 -148 151 -148c44 0 111 13 148 27c2 -21 -7 -57 -19 -76c-36 -20 -97 -40 -164 -40c-150 0 -236 107 -236 248c0 152 96 267 243 267c128 0 181 -89 181 -224c0 -17 -1 -36 -3 -54zM159 294h193c6 61 -13 134 -85 134c-61 0 -102 -55 -108 -134z
M421 715l-169 -174c-19 8 -48 33 -59 49l119 165c26 0 88 -20 109 -40z" />
    <glyph glyph-name="ecircumflex" unicode="&#xea;" horiz-adv-x="510" 
d="M462 220h-301c5 -93 64 -148 151 -148c44 0 111 13 148 27c2 -21 -7 -57 -19 -76c-36 -20 -97 -40 -164 -40c-150 0 -236 107 -236 248c0 152 96 267 243 267c128 0 181 -89 181 -224c0 -17 -1 -36 -3 -54zM159 294h193c6 61 -13 134 -85 134c-61 0 -102 -55 -108 -134z
M225 735l94 4l125 -141c-11 -18 -41 -43 -64 -49l-111 101l-117 -105c-17 12 -37 42 -44 63z" />
    <glyph glyph-name="edieresis" unicode="&#xeb;" horiz-adv-x="510" 
d="M462 220h-301c5 -93 64 -148 151 -148c44 0 111 13 148 27c2 -21 -7 -57 -19 -76c-36 -20 -97 -40 -164 -40c-150 0 -236 107 -236 248c0 152 96 267 243 267c128 0 181 -89 181 -224c0 -17 -1 -36 -3 -54zM159 294h193c6 61 -13 134 -85 134c-61 0 -102 -55 -108 -134z
M155 698c38 0 65 -22 65 -62c0 -44 -27 -68 -65 -68c-44 0 -66 23 -66 68c0 38 27 62 66 62zM391 698c38 0 65 -22 65 -62c0 -44 -27 -68 -65 -68c-44 0 -66 23 -66 68c0 38 27 62 66 62z" />
    <glyph glyph-name="igrave" unicode="&#xec;" horiz-adv-x="323" 
d="M107 403h-72c1 22 10 54 21 71c24 10 63 17 101 17c22 0 49 -3 65 -8v-405c23 -2 56 -9 75 -16c3 -13 4 -26 4 -39c0 -9 -1 -17 -2 -23h-268c2 19 8 44 15 58c15 9 41 18 61 24v321zM172 554l-161 165c22 16 82 29 119 29l124 -172c-17 -10 -60 -22 -82 -22z" />
    <glyph glyph-name="iacute" unicode="&#xed;" horiz-adv-x="323" 
d="M107 403h-72c1 22 10 54 21 71c24 10 63 17 101 17c22 0 49 -3 65 -8v-405c23 -2 56 -9 75 -16c3 -13 4 -26 4 -39c0 -9 -1 -17 -2 -23h-268c2 19 8 44 15 58c15 9 41 18 61 24v321zM313 715l-169 -174c-19 8 -48 33 -59 49l119 165c26 0 88 -20 109 -40z" />
    <glyph glyph-name="icircumflex" unicode="&#xee;" horiz-adv-x="323" 
d="M112 735l94 4l125 -141c-11 -18 -41 -43 -64 -49l-111 101l-117 -105c-17 12 -37 42 -44 63zM107 403h-72c1 22 10 54 21 71c24 10 63 17 101 17c22 0 49 -3 65 -8v-405c23 -2 56 -9 75 -16c3 -13 4 -26 4 -39c0 -9 -1 -17 -2 -23h-268c2 19 8 44 15 58c15 9 41 18 61 24
v321z" />
    <glyph glyph-name="idieresis" unicode="&#xef;" horiz-adv-x="323" 
d="M59 698c38 0 65 -22 65 -62c0 -44 -27 -68 -65 -68c-44 0 -66 23 -66 68c0 38 27 62 66 62zM269 698c38 0 65 -22 65 -62c0 -44 -27 -68 -65 -68c-44 0 -66 23 -66 68c0 38 27 62 66 62zM107 403h-72c1 22 10 54 21 71c24 10 63 17 101 17c22 0 49 -3 65 -8v-405
c23 -2 56 -9 75 -16c3 -13 4 -26 4 -39c0 -9 -1 -17 -2 -23h-268c2 19 8 44 15 58c15 9 41 18 61 24v321z" />
    <glyph glyph-name="eth" unicode="&#xf0;" horiz-adv-x="572" 
d="M387 428h9c-19 66 -54 114 -94 148l-129 -72c-9 22 -14 55 -15 75l76 40c-41 23 -83 33 -123 42c6 26 28 56 46 73c59 -13 120 -32 176 -64l105 58c12 -11 34 -42 41 -59l-81 -46c73 -65 124 -165 124 -320c0 -200 -86 -320 -253 -320c-134 0 -219 83 -219 236
c0 144 78 255 217 255c56 0 94 -19 120 -46zM405 354c-28 23 -63 42 -112 42c-82 0 -127 -68 -127 -165c0 -109 43 -169 113 -169c93 0 130 91 130 227c0 22 -1 45 -4 65z" />
    <glyph glyph-name="ntilde" unicode="&#xf1;" horiz-adv-x="627" 
d="M222 350v-272c22 -3 53 -9 69 -16c4 -14 6 -45 3 -62h-263c2 19 8 44 15 58c15 9 42 18 61 24v321h-72c1 22 10 54 21 71c22 10 57 17 92 17c20 0 43 -3 57 -8v-76h13c22 43 73 91 162 91c81 0 156 -25 156 -181c0 -79 -3 -162 -7 -239c24 -2 56 -9 76 -16
c3 -13 4 -26 4 -39c0 -9 -1 -17 -2 -23h-254c2 19 7 44 14 58c13 9 36 18 52 24v215c0 68 -22 113 -86 113c-46 0 -90 -31 -111 -60zM447 699c20 0 40 -2 59 -12c-2 -57 -37 -120 -117 -120c-56 0 -88 44 -136 44c-27 0 -43 -19 -48 -39c-21 1 -44 13 -57 30
c9 55 44 101 116 101c65 0 87 -42 136 -42c26 0 42 17 47 38z" />
    <glyph glyph-name="ograve" unicode="&#xf2;" horiz-adv-x="560" 
d="M280 498c143 0 239 -89 239 -250c0 -169 -94 -265 -239 -265c-153 0 -239 91 -239 265c0 155 103 250 239 250zM159 248c0 -114 46 -189 121 -189c81 0 120 73 120 189c0 100 -47 175 -120 175c-78 0 -121 -70 -121 -175zM302 554l-161 165c22 16 82 29 119 29l124 -172
c-17 -10 -60 -22 -82 -22z" />
    <glyph glyph-name="oacute" unicode="&#xf3;" horiz-adv-x="560" 
d="M280 498c143 0 239 -89 239 -250c0 -169 -94 -265 -239 -265c-153 0 -239 91 -239 265c0 155 103 250 239 250zM159 248c0 -114 46 -189 121 -189c81 0 120 73 120 189c0 100 -47 175 -120 175c-78 0 -121 -70 -121 -175zM427 715l-169 -174c-19 8 -48 33 -59 49l119 165
c26 0 88 -20 109 -40z" />
    <glyph glyph-name="ocircumflex" unicode="&#xf4;" horiz-adv-x="560" 
d="M280 498c143 0 239 -89 239 -250c0 -169 -94 -265 -239 -265c-153 0 -239 91 -239 265c0 155 103 250 239 250zM159 248c0 -114 46 -189 121 -189c81 0 120 73 120 189c0 100 -47 175 -120 175c-78 0 -121 -70 -121 -175zM236 735l94 4l125 -141c-11 -18 -41 -43 -64 -49
l-111 101l-117 -105c-17 12 -37 42 -44 63z" />
    <glyph glyph-name="otilde" unicode="&#xf5;" horiz-adv-x="560" 
d="M280 498c143 0 239 -89 239 -250c0 -169 -94 -265 -239 -265c-153 0 -239 91 -239 265c0 155 103 250 239 250zM159 248c0 -114 46 -189 121 -189c81 0 120 73 120 189c0 100 -47 175 -120 175c-78 0 -121 -70 -121 -175zM401 699c20 0 40 -2 59 -12
c-2 -57 -37 -120 -117 -120c-56 0 -88 44 -136 44c-27 0 -43 -19 -48 -39c-21 1 -44 13 -57 30c9 55 44 101 116 101c65 0 87 -42 136 -42c26 0 42 17 47 38z" />
    <glyph glyph-name="odieresis" unicode="&#xf6;" horiz-adv-x="560" 
d="M154 698c38 0 65 -22 65 -62c0 -44 -27 -68 -65 -68c-44 0 -66 23 -66 68c0 38 27 62 66 62zM416 698c38 0 65 -22 65 -62c0 -44 -27 -68 -65 -68c-44 0 -66 23 -66 68c0 38 27 62 66 62zM280 498c143 0 239 -89 239 -250c0 -169 -94 -265 -239 -265
c-153 0 -239 91 -239 265c0 155 103 250 239 250zM159 248c0 -114 46 -189 121 -189c81 0 120 73 120 189c0 100 -47 175 -120 175c-78 0 -121 -70 -121 -175z" />
    <glyph glyph-name="divide" unicode="&#xf7;" 
d="M518 227h-471c0 25 6 66 12 87h456c4 -16 6 -38 6 -55c0 -12 -1 -23 -3 -32zM284 135c37 0 63 -21 63 -60c0 -42 -26 -65 -63 -65c-41 0 -63 22 -63 65c0 37 27 60 63 60zM284 527c37 0 63 -21 63 -60c0 -42 -26 -65 -63 -65c-41 0 -63 22 -63 65c0 37 27 60 63 60z" />
    <glyph glyph-name="oslash" unicode="&#xf8;" horiz-adv-x="573" 
d="M289 498c48 0 91 -10 127 -31l54 70c19 -9 49 -30 61 -45l-57 -73c34 -42 53 -99 53 -171c0 -169 -94 -265 -238 -265c-52 0 -97 11 -132 31l-66 -85c-15 12 -36 43 -45 62l55 71c-34 44 -52 106 -52 186c0 155 103 250 240 250zM412 248c0 31 -6 61 -14 83l-187 -239
c20 -21 46 -33 78 -33c82 0 123 73 123 189zM164 248c0 -35 4 -68 14 -95l184 239c-19 19 -43 31 -73 31c-80 0 -125 -70 -125 -175z" />
    <glyph glyph-name="ugrave" unicode="&#xf9;" horiz-adv-x="606" 
d="M388 127v276h-71c1 22 10 53 21 71c24 11 63 17 101 17c22 0 48 -3 64 -8v-335c0 -23 2 -49 8 -72h74c1 -5 1 -11 1 -15c0 -16 -5 -40 -12 -53c-37 -12 -113 -20 -154 -20c-12 22 -21 53 -24 83h-7c-22 -42 -72 -88 -156 -88c-81 0 -152 27 -152 183c0 74 1 160 5 237
h-75c1 22 10 54 21 71c24 10 64 17 102 17c22 0 48 -3 64 -8v-298c0 -71 21 -113 85 -113c41 0 83 28 105 55zM304 554l-161 165c22 16 82 29 119 29l124 -172c-17 -10 -60 -22 -82 -22z" />
    <glyph glyph-name="uacute" unicode="&#xfa;" horiz-adv-x="606" 
d="M388 127v276h-71c1 22 10 53 21 71c24 11 63 17 101 17c22 0 48 -3 64 -8v-335c0 -23 2 -49 8 -72h74c1 -5 1 -11 1 -15c0 -16 -5 -40 -12 -53c-37 -12 -113 -20 -154 -20c-12 22 -21 53 -24 83h-7c-22 -42 -72 -88 -156 -88c-81 0 -152 27 -152 183c0 74 1 160 5 237
h-75c1 22 10 54 21 71c24 10 64 17 102 17c22 0 48 -3 64 -8v-298c0 -71 21 -113 85 -113c41 0 83 28 105 55zM429 715l-169 -174c-19 8 -48 33 -59 49l119 165c26 0 88 -20 109 -40z" />
    <glyph glyph-name="ucircumflex" unicode="&#xfb;" horiz-adv-x="606" 
d="M388 127v276h-71c1 22 10 53 21 71c24 11 63 17 101 17c22 0 48 -3 64 -8v-335c0 -23 2 -49 8 -72h74c1 -5 1 -11 1 -15c0 -16 -5 -40 -12 -53c-37 -12 -113 -20 -154 -20c-12 22 -21 53 -24 83h-7c-22 -42 -72 -88 -156 -88c-81 0 -152 27 -152 183c0 74 1 160 5 237
h-75c1 22 10 54 21 71c24 10 64 17 102 17c22 0 48 -3 64 -8v-298c0 -71 21 -113 85 -113c41 0 83 28 105 55zM241 735l94 4l125 -141c-11 -18 -41 -43 -64 -49l-111 101l-117 -105c-17 12 -37 42 -44 63z" />
    <glyph glyph-name="udieresis" unicode="&#xfc;" horiz-adv-x="606" 
d="M388 127v276h-71c1 22 10 53 21 71c24 11 63 17 101 17c22 0 48 -3 64 -8v-335c0 -23 2 -49 8 -72h74c1 -5 1 -11 1 -15c0 -16 -5 -40 -12 -53c-37 -12 -113 -20 -154 -20c-12 22 -21 53 -24 83h-7c-22 -42 -72 -88 -156 -88c-81 0 -152 27 -152 183c0 74 1 160 5 237
h-75c1 22 10 54 21 71c24 10 64 17 102 17c22 0 48 -3 64 -8v-298c0 -71 21 -113 85 -113c41 0 83 28 105 55zM168 698c38 0 65 -22 65 -62c0 -44 -27 -68 -65 -68c-44 0 -66 23 -66 68c0 38 27 62 66 62zM404 698c38 0 65 -22 65 -62c0 -44 -27 -68 -65 -68
c-44 0 -66 23 -66 68c0 38 27 62 66 62z" />
    <glyph glyph-name="yacute" unicode="&#xfd;" horiz-adv-x="540" 
d="M284 81h9c5 26 16 70 24 96l41 136c8 27 21 63 33 86c-16 3 -39 9 -52 15c-6 19 -9 45 -9 67h202c0 -21 -7 -56 -13 -73c-11 -4 -32 -8 -44 -9l-57 -161c-29 -82 -77 -214 -116 -289c-46 -91 -121 -164 -210 -193c-19 18 -42 58 -45 89c83 23 149 76 180 137l-166 413
c-16 4 -35 12 -47 19c-6 18 -10 46 -11 67h244c0 -22 -5 -51 -12 -69c-15 -6 -45 -12 -65 -14c14 -21 29 -52 38 -77l53 -145c8 -22 19 -69 23 -95zM432 715l-169 -174c-19 8 -48 33 -59 49l119 165c26 0 88 -20 109 -40z" />
    <glyph glyph-name="thorn" unicode="&#xfe;" horiz-adv-x="576" 
d="M201 423c23 40 63 75 142 75c91 0 192 -60 192 -240c0 -167 -99 -275 -247 -275c-34 0 -69 9 -91 25v-161c28 -3 75 -12 98 -20c4 -14 6 -44 4 -61h-293c2 19 8 44 15 58c15 9 42 18 61 24v797h-71c1 23 10 54 21 72c25 10 63 17 101 17c21 0 48 -3 64 -9v-171
c0 -43 -4 -93 -8 -131h12zM195 356v-281c21 -8 47 -14 73 -14c103 0 148 72 148 181c0 116 -45 172 -111 172c-55 0 -92 -30 -110 -58z" />
    <glyph glyph-name="ydieresis" unicode="&#xff;" horiz-adv-x="540" 
d="M284 81h9c5 26 16 70 24 96l41 136c8 27 21 63 33 86c-16 3 -39 9 -52 15c-6 19 -9 45 -9 67h202c0 -21 -7 -56 -13 -73c-11 -4 -32 -8 -44 -9l-57 -161c-29 -82 -77 -214 -116 -289c-46 -91 -121 -164 -210 -193c-19 18 -42 58 -45 89c83 23 149 76 180 137l-166 413
c-16 4 -35 12 -47 19c-6 18 -10 46 -11 67h244c0 -22 -5 -51 -12 -69c-15 -6 -45 -12 -65 -14c14 -21 29 -52 38 -77l53 -145c8 -22 19 -69 23 -95zM166 698c38 0 65 -22 65 -62c0 -44 -27 -68 -65 -68c-44 0 -66 23 -66 68c0 38 27 62 66 62zM402 698c38 0 65 -22 65 -62
c0 -44 -27 -68 -65 -68c-44 0 -66 23 -66 68c0 38 27 62 66 62z" />
    <glyph glyph-name="dotlessi" unicode="&#x131;" horiz-adv-x="323" 
d="M107 403h-72c1 22 10 54 21 71c24 10 63 17 101 17c22 0 49 -3 65 -8v-405c23 -2 56 -9 75 -16c3 -13 4 -26 4 -39c0 -9 -1 -17 -2 -23h-268c2 19 8 44 15 58c15 9 41 18 61 24v321z" />
    <glyph glyph-name="IJ" unicode="&#x132;" horiz-adv-x="747" 
d="M334 0h-299c2 20 9 54 16 71c17 5 54 12 74 14v533c-22 2 -54 6 -71 9c-3 21 -5 52 -1 74h273c3 -16 2 -56 -2 -73c-20 -4 -55 -8 -78 -9v-535c27 -2 62 -6 85 -11c3 -12 5 -28 5 -46c0 -11 -1 -20 -2 -27zM638 619v-385c0 -193 -85 -338 -250 -415c-14 13 -32 44 -37 64
c120 70 166 183 166 328v407c-28 2 -67 6 -88 9c-3 21 -5 52 -1 74h290c2 -6 3 -18 3 -28c0 -17 -2 -35 -5 -45c-20 -4 -55 -8 -78 -9z" />
    <glyph glyph-name="ij" unicode="&#x133;" horiz-adv-x="603" 
d="M107 403h-72c1 22 10 54 21 71c24 10 63 17 101 17c22 0 49 -3 65 -8v-405c23 -2 56 -9 75 -16c3 -13 4 -26 4 -39c0 -9 -1 -17 -2 -23h-268c2 19 8 44 15 58c15 9 41 18 61 24v321zM167 735c42 0 71 -26 71 -70c0 -48 -29 -75 -71 -75c-47 0 -72 26 -72 75
c0 42 30 70 72 70zM419 403h-72c1 22 10 54 20 71c25 10 64 17 102 17c22 0 49 -3 65 -8v-397c0 -150 -79 -250 -156 -328c-24 8 -52 31 -65 51c52 57 106 137 106 253v341zM479 735c42 0 71 -26 71 -70c0 -48 -29 -75 -71 -75c-47 0 -72 26 -72 75c0 42 30 70 72 70z" />
    <glyph glyph-name="Lslash" unicode="&#x141;" horiz-adv-x="616" 
d="M135 85v177l-71 -44c-11 19 -19 61 -19 85l90 55v260c-23 2 -54 6 -71 9c-3 18 -5 57 -1 74h292c3 -16 2 -56 -3 -73c-24 -4 -68 -8 -96 -9v-205l141 87c13 -14 35 -52 40 -69l-181 -113v-239h227c2 29 7 76 12 99c23 8 67 12 92 12v-191h-542c1 20 9 54 16 71
c16 5 53 12 74 14z" />
    <glyph glyph-name="lslash" unicode="&#x142;" horiz-adv-x="347" 
d="M233 725v-307l59 36c12 -11 30 -41 34 -58l-93 -58v-260c23 -2 57 -9 77 -16c3 -14 5 -45 2 -62h-270c2 19 8 44 15 58c15 9 41 18 61 24v202l-74 -47c-8 15 -16 51 -16 71l90 57v280h-71c1 23 10 54 21 72c24 10 63 17 101 17c21 0 48 -3 64 -9z" />
    <glyph glyph-name="OE" unicode="&#x152;" horiz-adv-x="989" 
d="M937 0h-437c-41 -13 -83 -17 -119 -17c-212 0 -333 130 -333 370c0 230 139 365 332 365c40 0 81 -4 121 -17h425v-163c-25 0 -60 4 -83 11c-5 19 -11 55 -12 75h-209v-231h163c1 12 6 36 10 49c20 6 55 11 81 11v-194c-24 -2 -60 0 -82 6c-4 15 -8 38 -9 53h-163v-239
h213c2 26 7 60 13 83c21 7 63 11 89 11v-173zM500 84v525c-32 20 -75 29 -116 29c-139 0 -208 -106 -208 -279c0 -185 74 -295 212 -295c37 0 79 5 112 20z" />
    <glyph glyph-name="oe" unicode="&#x153;" horiz-adv-x="864" 
d="M816 218h-304c6 -92 64 -146 152 -146c45 0 113 13 150 27c3 -21 -6 -57 -19 -76c-37 -20 -98 -40 -165 -40c-93 0 -149 40 -171 85h-7c-23 -46 -81 -85 -173 -85c-149 0 -238 92 -238 260c0 161 100 255 240 255c88 0 147 -36 175 -81h7c28 45 90 81 174 81
c129 0 182 -88 182 -224c0 -18 -1 -37 -3 -56zM159 247c0 -114 46 -188 122 -188c80 0 119 74 119 186c0 104 -45 178 -121 178c-78 0 -120 -70 -120 -176zM622 428c-62 0 -103 -56 -110 -135h192c7 61 -12 135 -82 135z" />
    <glyph glyph-name="Scaron" unicode="&#x160;" horiz-adv-x="579" 
d="M404 543v82c-24 13 -55 19 -84 19c-75 0 -121 -38 -121 -88c0 -164 335 -114 335 -358c0 -166 -126 -218 -268 -218c-71 0 -152 13 -214 38c0 52 6 133 14 182c25 0 73 -6 98 -14v-102c35 -16 79 -26 119 -26c86 0 132 41 132 112c0 171 -337 105 -337 364
c0 113 90 187 237 187c61 0 140 -13 197 -34c0 -45 -7 -119 -17 -163c-26 0 -68 8 -91 19zM365 754h-124l-142 115c15 18 53 38 79 43l138 -74l127 69c21 -6 51 -27 62 -42z" />
    <glyph glyph-name="scaron" unicode="&#x161;" horiz-adv-x="447" 
d="M296 368v52c-13 6 -33 11 -52 11c-44 0 -69 -19 -69 -52c0 -106 234 -64 234 -243c0 -112 -91 -153 -192 -153c-62 0 -119 12 -166 38c-3 13 -5 33 -5 51c0 28 4 59 10 77c31 0 64 -3 92 -12v-62c21 -13 50 -20 76 -20c44 0 72 22 72 61c0 106 -237 59 -237 245
c0 81 70 137 181 137c50 0 105 -9 154 -30c1 -8 2 -22 2 -33c0 -29 -5 -63 -11 -86c-32 0 -68 8 -89 19zM281 551l-95 -4l-133 156c13 16 56 29 79 31l115 -99l110 102c21 -5 49 -20 63 -33z" />
    <glyph glyph-name="Ydieresis" unicode="&#x178;" horiz-adv-x="657" 
d="M340 345h10c4 25 17 58 29 80l72 136c10 19 25 41 40 58c-18 1 -43 5 -59 9c-6 20 -11 53 -11 73h229c0 -20 -5 -57 -11 -75c-14 -4 -34 -6 -49 -7l-204 -348v-187c31 -2 70 -6 97 -11c5 -17 6 -57 4 -73h-325c2 20 11 54 18 70c20 6 61 13 84 15v180l-188 353
c-15 1 -38 5 -52 10c-6 19 -11 51 -12 73h278c0 -21 -6 -55 -12 -75c-19 -4 -49 -7 -71 -8c15 -16 29 -37 39 -58l68 -135c10 -20 22 -55 26 -80zM202 897c42 0 72 -22 72 -65c0 -46 -30 -70 -72 -70c-48 0 -72 23 -72 70c0 40 29 65 72 65zM485 897c42 0 72 -22 72 -65
c0 -46 -30 -70 -72 -70c-48 0 -72 23 -72 70c0 40 29 65 72 65z" />
    <glyph glyph-name="Zcaron" unicode="&#x17d;" horiz-adv-x="616" 
d="M52 0v79l366 532v10h-240c-1 -21 -10 -72 -15 -93c-24 -5 -65 -9 -93 -9v182h492v-79l-361 -530v-9h265c2 25 9 73 14 97c22 8 65 14 92 14v-194h-520zM378 754h-124l-142 115c15 18 53 38 79 43l138 -74l127 69c21 -6 51 -27 62 -42z" />
    <glyph glyph-name="zcaron" unicode="&#x17e;" horiz-adv-x="479" 
d="M51 0l-13 55l253 346v9h-137c-3 -22 -12 -52 -20 -72c-23 0 -65 5 -83 14v129h373l14 -55l-253 -347v-9c50 0 118 3 162 9c5 22 13 51 22 71c14 4 36 7 56 7c12 0 24 -1 32 -3l-18 -154h-388zM298 551l-95 -4l-133 156c13 16 56 29 79 31l115 -99l110 102
c21 -5 49 -20 63 -33z" />
    <glyph glyph-name="longs" unicode="&#x17f;" horiz-adv-x="347" 
d="M107 82v313c-21 2 -51 8 -68 13c-3 15 -4 27 -4 43c0 11 1 23 3 30h69v58c0 139 86 198 202 198c37 0 91 -7 132 -21c2 -12 3 -26 3 -40c0 -34 -7 -73 -15 -97c-23 1 -65 9 -83 20v64c-10 5 -27 7 -38 7c-50 0 -86 -33 -86 -119v-470c29 -3 75 -12 98 -20
c4 -14 6 -44 4 -61h-293c2 19 8 44 15 58c15 9 42 19 61 24z" />
    <glyph glyph-name="florin" unicode="&#x192;" horiz-adv-x="501" 
d="M436 196h-144l-13 -157c-12 -147 -106 -201 -204 -201c-35 0 -80 8 -114 21c1 41 15 105 29 144c21 -3 62 -15 80 -23l-6 -65c6 -4 17 -6 27 -6c35 0 66 34 74 116l16 171h-123c1 21 9 56 16 74h114l8 81c14 145 106 201 202 201c33 0 78 -7 111 -21
c-4 -41 -18 -98 -32 -133c-23 1 -58 13 -74 23l7 54c-7 4 -17 7 -28 7c-36 0 -69 -33 -76 -117l-8 -95h141c3 -18 1 -56 -3 -74z" />
    <glyph glyph-name="uni02BB" unicode="&#x2bb;" horiz-adv-x="279" 
d="M224 716c-23 -55 -54 -145 -64 -193l50 -12c-5 -21 -27 -62 -44 -79c-39 4 -92 20 -119 36c22 86 63 177 101 237c17 7 50 11 76 11z" />
    <glyph glyph-name="afii57929" unicode="&#x2bc;" horiz-adv-x="278" 
d="M115 626l-49 12c7 25 23 62 39 79c14 3 30 5 46 5c28 0 61 -4 85 -13c-16 -90 -72 -219 -108 -278c-21 6 -47 20 -57 31c17 50 37 117 44 164z" />
    <glyph glyph-name="circumflex" unicode="&#x2c6;" horiz-adv-x="445" 
d="M174 735l94 4l125 -141c-11 -18 -41 -43 -64 -49l-111 101l-117 -105c-17 12 -37 42 -44 63z" />
    <glyph glyph-name="caron" unicode="&#x2c7;" horiz-adv-x="461" 
d="M281 551l-95 -4l-133 156c13 16 56 29 79 31l115 -99l110 102c21 -5 49 -20 63 -33z" />
    <glyph glyph-name="breve" unicode="&#x2d8;" horiz-adv-x="447" 
d="M132 726c13 -62 42 -91 91 -91s81 32 95 88c26 -1 52 -9 71 -20c-12 -91 -70 -153 -166 -153s-149 53 -164 145c16 16 45 27 73 31z" />
    <glyph glyph-name="dotaccent" unicode="&#x2d9;" horiz-adv-x="361" 
d="M181 702c39 0 68 -23 68 -65c0 -47 -29 -71 -68 -71c-47 0 -69 23 -69 71c0 39 28 65 69 65z" />
    <glyph glyph-name="ring" unicode="&#x2da;" horiz-adv-x="393" 
d="M199 767c68 0 115 -38 115 -104c0 -74 -47 -111 -115 -111c-80 0 -120 35 -120 111c0 63 48 104 120 104zM200 714c-32 0 -53 -18 -53 -51c0 -41 18 -58 53 -58c29 0 48 19 48 58c0 34 -19 51 -48 51z" />
    <glyph glyph-name="ogonek" unicode="&#x2db;" horiz-adv-x="392" 
d="M263 -143c8 -12 14 -47 14 -63c-18 -7 -48 -11 -68 -11c-67 0 -125 34 -125 109c0 38 32 88 105 112c19 2 70 5 101 5c-70 -31 -105 -66 -105 -105c0 -38 25 -51 53 -51c8 0 19 2 25 4z" />
    <glyph glyph-name="tilde" unicode="&#x2dc;" horiz-adv-x="453" 
d="M348 699c20 0 40 -2 59 -12c-2 -57 -37 -120 -117 -120c-56 0 -88 44 -136 44c-27 0 -43 -19 -48 -39c-21 1 -44 13 -57 30c9 55 44 101 116 101c65 0 87 -42 136 -42c26 0 42 17 47 38z" />
    <glyph glyph-name="hungarumlaut" unicode="&#x2dd;" horiz-adv-x="483" 
d="M248 717l-139 -178c-21 8 -49 28 -63 44l96 168c28 0 84 -18 106 -34zM454 717l-139 -178c-21 8 -49 28 -63 44l96 168c28 0 84 -18 106 -34z" />
    <glyph glyph-name="gravecomb" unicode="&#x300;" horiz-adv-x="1" 
d="M-81 554l-161 165c22 16 82 29 119 29l124 -172c-17 -10 -60 -22 -82 -22z" />
    <glyph glyph-name="acutecomb" unicode="&#x301;" horiz-adv-x="1" 
d="M1 715l-169 -174c-19 8 -48 33 -59 49l119 165c26 0 88 -20 109 -40z" />
    <glyph glyph-name="uni0302" unicode="&#x302;" horiz-adv-x="1" 
d="M-218 735l94 4l125 -141c-11 -18 -41 -43 -64 -49l-111 101l-117 -105c-17 12 -37 42 -44 63z" />
    <glyph glyph-name="tildecomb" unicode="&#x303;" horiz-adv-x="1" 
d="M-58 699c20 0 40 -2 59 -12c-2 -57 -37 -120 -117 -120c-56 0 -88 44 -136 44c-27 0 -43 -19 -48 -39c-21 1 -44 13 -57 30c9 55 44 101 116 101c65 0 87 -42 136 -42c26 0 42 17 47 38z" />
    <glyph glyph-name="uni0304" unicode="&#x304;" horiz-adv-x="1" 
d="M-1 589h-302c0 24 6 64 12 85h287c3 -13 5 -35 5 -55c0 -12 -1 -23 -2 -30z" />
    <glyph glyph-name="uni0306" unicode="&#x306;" horiz-adv-x="1" 
d="M-256 726c13 -62 42 -91 91 -91s81 32 95 88c26 -1 52 -9 71 -20c-12 -91 -70 -153 -166 -153s-149 53 -164 145c16 16 45 27 73 31z" />
    <glyph glyph-name="uni0307" unicode="&#x307;" horiz-adv-x="1" 
d="M-67 702c39 0 68 -23 68 -65c0 -47 -29 -71 -68 -71c-47 0 -69 23 -69 71c0 39 28 65 69 65z" />
    <glyph glyph-name="uni0308" unicode="&#x308;" horiz-adv-x="1" 
d="M-300 698c38 0 65 -22 65 -62c0 -44 -27 -68 -65 -68c-44 0 -66 23 -66 68c0 38 27 62 66 62zM-64 698c38 0 65 -22 65 -62c0 -44 -27 -68 -65 -68c-44 0 -66 23 -66 68c0 38 27 62 66 62z" />
    <glyph glyph-name="uni030A" unicode="&#x30a;" horiz-adv-x="1" 
d="M-114 767c68 0 115 -38 115 -104c0 -74 -47 -111 -115 -111c-80 0 -120 35 -120 111c0 63 48 104 120 104zM-113 714c-32 0 -53 -18 -53 -51c0 -41 18 -58 53 -58c29 0 48 19 48 58c0 34 -19 51 -48 51z" />
    <glyph glyph-name="uni030B" unicode="&#x30b;" horiz-adv-x="1" 
d="M-205 717l-139 -178c-21 8 -49 28 -63 44l96 168c28 0 84 -18 106 -34zM1 717l-139 -178c-21 8 -49 28 -63 44l96 168c28 0 84 -18 106 -34z" />
    <glyph glyph-name="uni030C" unicode="&#x30c;" horiz-adv-x="1" 
d="M-138 551l-95 -4l-133 156c13 16 56 29 79 31l115 -99l110 102c21 -5 49 -20 63 -33z" />
    <glyph glyph-name="uni0312" unicode="&#x312;" horiz-adv-x="1" 
d="M-9 778c-14 -39 -33 -106 -39 -140l49 -11c-4 -20 -26 -58 -43 -74c-40 5 -85 17 -113 35c16 65 47 134 75 179c14 6 48 11 71 11z" />
    <glyph glyph-name="uni0313" unicode="&#x313;" horiz-adv-x="1" 
d="M-108 646l-44 9c6 22 21 53 34 69c12 2 28 4 44 4c23 0 53 -5 75 -13c-12 -70 -60 -183 -91 -233c-21 5 -46 19 -56 27c15 38 32 98 38 137z" />
    <glyph glyph-name="uni0326" unicode="&#x326;" horiz-adv-x="1" 
d="M-110 -134l-45 9c6 23 21 55 34 70c12 3 29 5 45 5c24 0 55 -5 77 -13c-12 -68 -59 -181 -90 -230c-20 4 -47 18 -57 27c14 38 30 95 36 132z" />
    <glyph glyph-name="uni0394" unicode="&#x394;" horiz-adv-x="675" 
d="M294 711h99l257 -645v-66h-623v55zM145 78h366l-141 364c-15 40 -33 107 -37 144h-9c-4 -38 -20 -102 -37 -145z" />
    <glyph glyph-name="uni03A9" unicode="&#x3a9;" horiz-adv-x="863" 
d="M483 0v74c74 52 142 145 142 294c0 135 -57 275 -197 275c-135 0 -193 -130 -193 -267c0 -143 62 -250 141 -302v-74h-339v157c24 0 65 -3 86 -8c5 -16 11 -48 12 -67h125v9c-79 48 -150 138 -150 288c0 208 133 340 319 340c192 0 321 -139 321 -336
c0 -154 -81 -247 -150 -292v-9h129c2 20 6 50 10 69c21 5 63 9 88 9v-160h-344z" />
    <glyph glyph-name="uni03BC" unicode="&#x3bc;" horiz-adv-x="620" 
d="M151 76h-9c25 -115 43 -256 43 -348c-44 2 -97 12 -122 25c9 241 16 503 16 721c23 8 91 14 114 14c-3 -66 -6 -151 -6 -217c0 -131 34 -200 106 -200c50 0 91 39 111 79c-3 32 -5 65 -5 104c0 73 3 164 7 220c23 9 81 14 104 14c-5 -72 -6 -160 -6 -232
c0 -145 16 -186 50 -186c13 0 36 6 48 14c1 -5 1 -10 1 -14c0 -21 -7 -51 -16 -65c-17 -12 -45 -22 -71 -22c-57 0 -85 42 -96 95h-7c-16 -44 -47 -95 -138 -95c-58 0 -105 29 -124 93z" />
    <glyph glyph-name="pi" unicode="&#x3c0;" horiz-adv-x="634" 
d="M42 415c43 42 114 74 252 74c87 0 221 -3 311 -8c4 -16 7 -40 7 -63c0 -14 -1 -28 -3 -39c-32 2 -68 5 -106 6c-4 -40 -5 -86 -5 -129c0 -128 6 -179 41 -179c16 0 34 5 46 12c2 -26 -8 -72 -19 -92c-15 -8 -40 -14 -61 -14c-93 0 -109 102 -109 249c0 53 3 111 7 156
c-26 3 -57 4 -89 4c-16 0 -34 0 -49 -1c1 -20 3 -46 3 -66v-37c-1 -110 -9 -224 -34 -311c-47 4 -88 19 -111 36c27 86 43 184 43 301c0 18 -1 49 -3 69c-47 -6 -96 -34 -123 -62c-4 11 -6 27 -6 42c1 17 3 38 8 52z" />
    <glyph glyph-name="uni2007" unicode="&#x2007;" horiz-adv-x="652" 
 />
    <glyph glyph-name="uni2008" unicode="&#x2008;" horiz-adv-x="307" 
 />
    <glyph glyph-name="uni200B" unicode="&#x200b;" horiz-adv-x="0" 
 />
    <glyph glyph-name="endash" unicode="&#x2013;" horiz-adv-x="500" 
d="M463 231h-428c0 25 6 67 12 88h413c4 -16 6 -38 6 -55c0 -12 -1 -24 -3 -33z" />
    <glyph glyph-name="emdash" unicode="&#x2014;" horiz-adv-x="1000" 
d="M948 231h-903c0 25 6 67 12 88h888c4 -16 6 -38 6 -55c0 -12 -1 -24 -3 -33z" />
    <glyph glyph-name="quoteleft" unicode="&#x2018;" horiz-adv-x="279" 
d="M224 716c-23 -55 -54 -145 -64 -193l50 -12c-5 -21 -27 -62 -44 -79c-39 4 -92 20 -119 36c22 86 63 177 101 237c17 7 50 11 76 11z" />
    <glyph glyph-name="quoteright" unicode="&#x2019;" horiz-adv-x="278" 
d="M115 626l-49 12c7 25 23 62 39 79c14 3 30 5 46 5c28 0 61 -4 85 -13c-16 -90 -72 -219 -108 -278c-21 6 -47 20 -57 31c17 50 37 117 44 164z" />
    <glyph glyph-name="quotesinglbase" unicode="&#x201a;" horiz-adv-x="279" 
d="M105 16l-49 12c7 25 23 62 39 79c14 4 32 5 48 5c29 0 62 -4 86 -12c-16 -89 -74 -224 -110 -283c-22 6 -49 21 -60 31c18 50 39 121 46 168z" />
    <glyph glyph-name="quotereversed" unicode="&#x201b;" horiz-adv-x="278" 
d="M227 637l-49 -12c8 -49 26 -122 43 -171c-13 -8 -46 -21 -67 -24c-33 62 -80 185 -98 276c24 7 58 13 89 13c15 0 30 -1 43 -4c15 -17 31 -53 39 -78z" />
    <glyph glyph-name="quotedblleft" unicode="&#x201c;" horiz-adv-x="481" 
d="M221 716c-23 -55 -54 -145 -63 -193l49 -12c-5 -21 -27 -62 -44 -79c-39 4 -89 20 -116 36c22 86 63 177 101 237c17 7 47 11 73 11zM427 716c-23 -55 -54 -145 -64 -193l50 -12c-5 -21 -28 -62 -45 -79c-38 4 -89 20 -116 36c22 86 64 177 101 237c17 7 48 11 74 11z
" />
    <glyph glyph-name="quotedblright" unicode="&#x201d;" horiz-adv-x="477" 
d="M115 626l-49 12c7 25 23 62 39 79c14 3 29 5 45 5c28 0 60 -4 83 -13c-16 -89 -71 -219 -107 -278c-21 6 -45 20 -55 31c18 50 37 117 44 164zM317 626l-49 12c7 25 23 62 39 79c14 3 29 5 45 5c28 0 59 -4 83 -13c-16 -89 -71 -219 -108 -278c-20 6 -44 20 -55 31
c18 50 38 117 45 164z" />
    <glyph glyph-name="quotedblbase" unicode="&#x201e;" horiz-adv-x="481" 
d="M104 16l-48 12c7 25 22 62 38 79c14 4 30 5 45 5c30 0 62 -4 86 -12c-16 -89 -74 -224 -110 -283c-21 6 -46 21 -57 31c18 50 39 121 46 168zM310 16l-48 12c7 25 22 62 38 79c14 4 30 5 45 5c30 0 62 -4 86 -12c-16 -89 -74 -224 -110 -283c-21 6 -46 21 -56 31
c17 50 38 121 45 168z" />
    <glyph glyph-name="dagger" unicode="&#x2020;" horiz-adv-x="500" 
d="M462 404h-159l-14 -574c-9 -2 -23 -4 -39 -4c-15 0 -30 2 -40 4l-15 574h-151c0 21 5 57 12 78h137l-5 209c25 8 59 11 89 11c10 0 22 -1 32 -2l-5 -218h155c3 -13 5 -33 5 -48c0 -11 -1 -24 -2 -30z" />
    <glyph glyph-name="daggerdbl" unicode="&#x2021;" horiz-adv-x="500" 
d="M463 111h-167l-6 -280c-9 -3 -23 -4 -39 -4c-15 0 -30 1 -40 4l-8 280h-157c0 21 5 58 12 78h144l-7 215h-151c0 21 5 57 12 78h137l-5 208c25 8 59 11 88 11c10 0 22 0 33 -2l-5 -217h153c3 -11 5 -33 5 -48c0 -12 -1 -24 -2 -30h-157l-4 -215h161c3 -13 5 -33 5 -48
c0 -11 -1 -24 -2 -30z" />
    <glyph glyph-name="bullet" unicode="&#x2022;" horiz-adv-x="594" 
d="M297 398c90 0 156 -56 156 -151c0 -104 -66 -163 -156 -163c-102 0 -156 57 -156 163c0 90 64 151 156 151z" />
    <glyph glyph-name="ellipsis" unicode="&#x2026;" horiz-adv-x="908" 
d="M154 144c45 0 77 -27 77 -75c0 -53 -32 -81 -77 -81c-51 0 -78 27 -78 81c0 45 32 75 78 75zM455 144c45 0 77 -27 77 -75c0 -53 -32 -81 -77 -81c-51 0 -78 27 -78 81c0 45 32 75 78 75zM755 144c45 0 77 -27 77 -75c0 -53 -32 -81 -77 -81c-51 0 -78 27 -78 81
c0 45 32 75 78 75z" />
    <glyph glyph-name="perthousand" unicode="&#x2030;" horiz-adv-x="1351" 
d="M200 550c104 0 170 -54 170 -156c0 -107 -65 -164 -170 -164c-110 0 -170 54 -170 164c0 96 71 156 170 156zM130 394c0 -61 26 -98 70 -98c47 0 69 36 69 98c0 52 -24 90 -69 90s-70 -35 -70 -90zM703 540l-384 -575c-24 5 -64 26 -77 39l371 556c25 -1 66 -10 90 -20z
M734 302c104 0 170 -54 170 -156c0 -107 -65 -164 -170 -164c-110 0 -170 54 -170 164c0 96 71 156 170 156zM664 146c0 -61 26 -98 70 -98c47 0 69 36 69 98c0 52 -24 90 -69 90s-70 -35 -70 -90zM1150 302c104 0 170 -54 170 -156c0 -107 -65 -164 -170 -164
c-110 0 -170 54 -170 164c0 96 71 156 170 156zM1080 146c0 -61 26 -98 70 -98c47 0 69 36 69 98c0 52 -24 90 -69 90s-70 -35 -70 -90z" />
    <glyph glyph-name="guilsinglleft" unicode="&#x2039;" horiz-adv-x="384" 
d="M204 254c24 -66 53 -130 87 -196c-23 -10 -70 -20 -98 -20c-44 70 -88 149 -118 216c29 67 62 126 104 194c31 9 82 18 119 18c-35 -70 -68 -143 -94 -212z" />
    <glyph glyph-name="guilsinglright" unicode="&#x203a;" horiz-adv-x="384" 
d="M95 64c32 65 60 124 85 190c-25 65 -52 127 -85 192c24 11 65 21 97 21c44 -71 88 -148 116 -213c-30 -67 -76 -148 -119 -218c-29 2 -71 15 -94 28z" />
    <glyph glyph-name="uni203E" unicode="&#x203e;" horiz-adv-x="500" 
d="M-2 728h504c4 -17 5 -34 5 -49c0 -10 -1 -21 -3 -30h-518c0 22 5 58 12 79z" />
    <glyph glyph-name="fraction" unicode="&#x2044;" horiz-adv-x="150" 
d="M364 689l-500 -721c-26 5 -61 24 -76 40l488 701c28 -1 64 -9 88 -20z" />
    <glyph glyph-name="uni2070" unicode="&#x2070;" horiz-adv-x="385" 
d="M192 773c97 0 160 -68 160 -194c0 -135 -62 -207 -160 -207c-103 0 -159 69 -159 207c0 119 66 194 159 194zM131 579c0 -88 20 -141 61 -141c42 0 62 52 62 141c0 74 -22 129 -62 129c-41 0 -61 -50 -61 -129z" />
    <glyph glyph-name="uni2074" unicode="&#x2074;" horiz-adv-x="385" 
d="M305 473v-92c-6 -3 -28 -4 -43 -4s-38 1 -47 4v92h-188v56l165 237h113v-224h54c3 -19 4 -46 4 -69h-58zM215 542v84c0 18 1 40 4 59h-6l-95 -139v-6c13 2 30 2 44 2h53z" />
    <glyph glyph-name="uni2075" unicode="&#x2075;" horiz-adv-x="385" 
d="M164 687l-5 -65c15 3 31 4 47 4c76 0 132 -34 132 -118c0 -103 -85 -136 -175 -136c-33 0 -79 5 -102 11c-9 17 -14 49 -14 65c0 5 0 12 1 18c33 -13 80 -25 117 -25c44 0 73 18 73 61c0 45 -31 58 -78 58c-26 0 -67 -4 -95 -9l15 215h259c0 -23 -2 -54 -6 -79h-169z" />
    <glyph glyph-name="uni2076" unicode="&#x2076;" horiz-adv-x="385" 
d="M141 595h7c12 19 36 35 80 35c80 0 121 -51 121 -123c0 -87 -58 -135 -152 -135c-105 0 -155 59 -155 176c0 154 86 225 203 225c24 0 61 -3 80 -10c9 -19 14 -62 11 -83c-23 12 -64 22 -95 22c-47 0 -91 -24 -100 -107zM142 537v-9c0 -63 17 -94 55 -94
c34 0 53 26 53 68c0 40 -17 61 -51 61c-25 0 -42 -12 -57 -26z" />
    <glyph glyph-name="uni2077" unicode="&#x2077;" horiz-adv-x="385" 
d="M355 766v-69c-67 -111 -110 -210 -144 -316c-15 -3 -33 -4 -48 -4c-20 0 -40 1 -59 4c37 103 95 211 160 304v7h-127c-1 -12 -6 -36 -11 -48c-20 -5 -53 -9 -77 -9v131h306z" />
    <glyph glyph-name="uni2078" unicode="&#x2078;" horiz-adv-x="385" 
d="M108 575v7c-32 14 -59 42 -59 88c0 76 74 103 148 103c72 0 142 -25 142 -93c0 -43 -27 -73 -56 -86v-7c35 -15 66 -45 66 -99c0 -78 -65 -116 -161 -116c-77 0 -152 25 -152 105c0 52 31 85 72 98zM168 549c-21 -14 -35 -35 -35 -63c0 -38 25 -54 59 -54
c32 0 61 15 61 49c0 38 -38 51 -85 68zM217 623c18 12 28 30 28 50c0 32 -25 42 -49 42c-22 0 -53 -8 -53 -36c0 -30 34 -42 74 -56z" />
    <glyph glyph-name="uni2079" unicode="&#x2079;" horiz-adv-x="385" 
d="M249 555h-7c-12 -19 -37 -35 -81 -35c-79 0 -119 51 -119 121c0 85 57 132 152 132c105 0 154 -58 154 -178c0 -156 -83 -223 -201 -223c-25 0 -67 3 -86 9c-9 20 -14 64 -11 85c24 -10 69 -22 102 -22c48 0 89 25 97 111zM249 612v9c0 60 -18 91 -56 91
c-34 0 -53 -26 -53 -67c0 -38 17 -59 51 -59c25 0 43 12 58 26z" />
    <glyph glyph-name="uni2080" unicode="&#x2080;" horiz-adv-x="385" 
d="M192 244c97 0 160 -68 160 -194c0 -135 -62 -207 -160 -207c-103 0 -159 69 -159 207c0 119 66 194 159 194zM131 50c0 -88 20 -141 61 -141c42 0 62 52 62 141c0 74 -22 129 -62 129c-41 0 -61 -50 -61 -129z" />
    <glyph glyph-name="uni2081" unicode="&#x2081;" horiz-adv-x="385" 
d="M250 244v-328c21 -1 53 -4 72 -8c3 -11 5 -27 5 -41c0 -5 0 -11 -1 -17h-250c1 17 8 43 14 57c18 5 44 9 64 10v249l-89 -9c1 18 5 46 13 65c36 8 106 19 172 22z" />
    <glyph glyph-name="uni2082" unicode="&#x2082;" horiz-adv-x="385" 
d="M44 -150v67c62 59 196 141 196 217c0 30 -19 45 -52 45c-20 0 -45 -5 -61 -13v-47c-19 -7 -56 -11 -76 -11c-5 29 -8 69 -8 103c38 17 88 33 151 33c85 0 147 -25 147 -104c0 -88 -135 -176 -195 -215v-6c58 1 137 3 208 8c0 -18 -3 -58 -7 -77h-303z" />
    <glyph glyph-name="uni2083" unicode="&#x2083;" horiz-adv-x="385" 
d="M179 174c-31 0 -80 -8 -115 -23c-2 22 1 53 10 75c33 13 76 18 110 18c76 0 145 -29 145 -97c0 -48 -30 -80 -77 -89v-7c46 -6 86 -36 86 -91c0 -84 -76 -117 -173 -117c-35 0 -76 4 -103 13c-8 17 -13 41 -13 60c0 4 0 14 1 21c32 -14 86 -25 121 -25c37 0 67 14 67 48
c0 41 -37 53 -141 53c-3 20 -1 49 6 69c86 0 128 14 128 53c0 31 -25 39 -52 39z" />
    <glyph glyph-name="uni2084" unicode="&#x2084;" horiz-adv-x="385" 
d="M305 -56v-92c-6 -3 -28 -4 -43 -4s-38 1 -47 4v92h-188v56l165 237h113v-224h54c3 -19 4 -46 4 -69h-58zM215 13v84c0 18 1 40 4 59h-6l-95 -139v-6c13 2 30 2 44 2h53z" />
    <glyph glyph-name="uni2085" unicode="&#x2085;" horiz-adv-x="385" 
d="M164 158l-5 -65c15 3 31 4 47 4c76 0 132 -34 132 -118c0 -103 -85 -136 -175 -136c-33 0 -79 5 -102 11c-9 17 -14 49 -14 65c0 5 0 12 1 18c33 -13 80 -25 117 -25c44 0 73 18 73 61c0 45 -31 58 -78 58c-26 0 -67 -4 -95 -9l15 215h259c0 -23 -2 -54 -6 -79h-169z" />
    <glyph glyph-name="uni2086" unicode="&#x2086;" horiz-adv-x="385" 
d="M141 66h7c12 19 36 35 80 35c80 0 121 -51 121 -123c0 -87 -58 -135 -152 -135c-105 0 -155 59 -155 176c0 154 86 225 203 225c24 0 61 -3 80 -10c9 -19 14 -62 11 -83c-23 12 -64 22 -95 22c-47 0 -91 -24 -100 -107zM142 8v-9c0 -63 17 -94 55 -94c34 0 53 26 53 68
c0 40 -17 61 -51 61c-25 0 -42 -12 -57 -26z" />
    <glyph glyph-name="uni2087" unicode="&#x2087;" horiz-adv-x="385" 
d="M355 237v-69c-67 -111 -110 -210 -144 -316c-15 -3 -33 -4 -48 -4c-20 0 -40 1 -59 4c37 103 95 211 160 304v7h-127c-1 -12 -6 -36 -11 -48c-20 -5 -53 -9 -77 -9v131h306z" />
    <glyph glyph-name="uni2088" unicode="&#x2088;" horiz-adv-x="385" 
d="M108 46v7c-32 14 -59 42 -59 88c0 76 74 103 148 103c72 0 142 -25 142 -93c0 -43 -27 -73 -56 -86v-7c35 -15 66 -45 66 -99c0 -78 -65 -116 -161 -116c-77 0 -152 25 -152 105c0 52 31 85 72 98zM168 20c-21 -14 -35 -35 -35 -63c0 -38 25 -54 59 -54c32 0 61 15 61 49
c0 38 -38 51 -85 68zM217 94c18 12 28 30 28 50c0 32 -25 42 -49 42c-22 0 -53 -8 -53 -36c0 -30 34 -42 74 -56z" />
    <glyph glyph-name="uni2089" unicode="&#x2089;" horiz-adv-x="385" 
d="M249 26h-7c-12 -19 -37 -35 -81 -35c-79 0 -119 51 -119 121c0 85 57 132 152 132c105 0 154 -58 154 -178c0 -156 -83 -223 -201 -223c-25 0 -67 3 -86 9c-9 20 -14 64 -11 85c24 -10 69 -22 102 -22c48 0 89 25 97 111zM249 83v9c0 60 -18 91 -56 91
c-34 0 -53 -26 -53 -67c0 -38 17 -59 51 -59c25 0 43 12 58 26z" />
    <glyph glyph-name="Euro" unicode="&#x20ac;" horiz-adv-x="585" 
d="M429 281h-406c0 18 4 47 9 63h65c33 125 140 208 288 208c66 0 121 -15 169 -42c2 -12 3 -27 3 -39c0 -31 -6 -63 -15 -88c-29 0 -74 9 -98 21v58c-21 9 -44 13 -67 13c-76 0 -136 -42 -156 -131h206c3 -11 5 -46 2 -63zM33 223h395c3 -11 5 -46 2 -63h-197
c27 -63 81 -92 153 -92c47 0 115 11 162 29c2 -21 -8 -58 -18 -76c-47 -22 -111 -41 -177 -41c-125 0 -219 72 -253 180h-76c0 18 4 47 9 63z" />
    <glyph glyph-name="afii61289" unicode="&#x2113;" horiz-adv-x="497" 
d="M110 281v199c0 144 87 216 176 216c75 0 139 -50 139 -153c0 -108 -76 -211 -204 -306v-69c0 -74 28 -106 69 -106c38 0 72 18 108 62c18 -9 45 -30 57 -44c-50 -77 -110 -100 -176 -100c-109 0 -169 67 -169 201c-14 -10 -33 -22 -48 -30c-11 24 -17 67 -17 90
c22 12 45 26 65 40zM221 350c69 63 98 125 98 186c0 56 -18 81 -42 81c-39 0 -56 -55 -56 -152v-115z" />
    <glyph glyph-name="afii61352" unicode="&#x2116;" horiz-adv-x="1111" 
d="M887 512c100 0 166 -58 166 -160c0 -109 -65 -173 -166 -173c-105 0 -167 61 -167 173c0 99 72 160 167 160zM813 352c0 -66 28 -108 74 -108c47 0 72 42 72 108c0 55 -29 97 -72 97c-48 0 -74 -39 -74 -97zM749 137h283c3 -12 6 -51 3 -71h-297c0 19 5 53 11 71z
M279 532l179 -288c19 -31 48 -89 55 -124h9v333c-26 1 -64 6 -82 11c-5 18 -6 52 -3 68h235c2 -9 2 -18 2 -24c0 -18 -2 -34 -5 -46c-16 -4 -41 -8 -60 -9v-452l-124 -14l-200 330c-14 23 -41 74 -51 104h-9v-337c21 -2 57 -10 75 -17c4 -17 6 -50 3 -67h-246
c2 19 9 49 16 63c16 10 40 19 61 25v365c-22 1 -52 6 -68 11c-4 18 -5 52 -2 68h215z" />
    <glyph glyph-name="trademark" unicode="&#x2122;" horiz-adv-x="999" 
d="M267 652v-191c19 -1 42 -3 59 -8c3 -11 4 -36 2 -47h-200c1 12 6 34 12 46c13 4 33 7 48 9v191h-61c-1 -15 -5 -44 -9 -56c-18 -8 -41 -9 -58 -9v114h338v-113c-17 0 -42 1 -58 4c-6 17 -9 41 -11 60h-62zM587 406h-146c0 12 5 35 9 47c10 3 29 6 40 8v184
c-13 2 -29 3 -45 7c-2 11 -3 36 -1 49h161l61 -176c8 -22 15 -48 18 -70h7c4 22 10 48 18 70l64 176h153c2 -11 1 -38 -1 -50c-14 -2 -32 -5 -45 -5v-186c17 -1 36 -3 51 -7c2 -9 3 -20 3 -28c0 -6 0 -14 -1 -19h-169c1 14 6 35 10 47c9 3 27 6 36 7v190h-7
c-3 -24 -15 -62 -26 -91l-60 -158h-82l-58 162c-11 31 -20 61 -24 87h-7v-191c13 -1 29 -3 40 -7c3 -11 3 -34 1 -46z" />
    <glyph glyph-name="Omega" unicode="&#x2126;" horiz-adv-x="863" 
d="M483 0v74c74 52 142 145 142 294c0 135 -57 275 -197 275c-135 0 -193 -130 -193 -267c0 -143 62 -250 141 -302v-74h-339v157c24 0 65 -3 86 -8c5 -16 11 -48 12 -67h125v9c-79 48 -150 138 -150 288c0 208 133 340 319 340c192 0 321 -139 321 -336
c0 -154 -81 -247 -150 -292v-9h129c2 20 6 50 10 69c21 5 63 9 88 9v-160h-344z" />
    <glyph glyph-name="estimated" unicode="&#x212e;" horiz-adv-x="879" 
d="M836 325h-633c-3 0 -5 -1 -5 -4v-191c0 -8 3 -16 9 -23c59 -64 145 -104 240 -104c102 0 190 45 251 117h57c-71 -84 -183 -137 -309 -137c-217 0 -392 158 -392 351c0 196 175 355 392 355c215 0 390 -159 390 -355v-9zM693 352v191c0 10 -4 18 -11 24
c-59 61 -142 100 -235 100c-94 0 -179 -40 -239 -104c-7 -5 -10 -14 -10 -24v-187c0 -2 2 -5 5 -5h486c2 0 4 3 4 5z" />
    <glyph glyph-name="onethird" unicode="&#x2153;" horiz-adv-x="926" 
d="M762 689l-500 -721c-26 5 -61 24 -76 40l488 701c28 -1 64 -9 88 -20zM236 683v-328c21 -1 53 -4 72 -8c3 -11 5 -27 5 -41c0 -5 0 -11 -1 -17h-250c1 17 8 43 14 57c18 5 44 9 64 10v249l-89 -9c1 18 5 46 13 65c36 8 106 19 172 22zM715 324c-31 0 -80 -8 -115 -23
c-2 22 1 53 10 75c33 13 76 18 110 18c76 0 145 -29 145 -97c0 -48 -30 -80 -77 -89v-7c46 -6 86 -36 86 -91c0 -84 -76 -117 -173 -117c-35 0 -76 4 -103 13c-8 17 -13 41 -13 60c0 4 0 14 1 21c32 -14 86 -25 121 -25c37 0 67 14 67 48c0 41 -37 53 -141 53
c-3 20 -1 49 6 69c86 0 128 14 128 53c0 31 -25 39 -52 39z" />
    <glyph glyph-name="twothirds" unicode="&#x2154;" horiz-adv-x="926" 
d="M790 689l-500 -721c-26 5 -61 24 -76 40l488 701c28 -1 64 -9 88 -20zM50 289v67c62 59 196 141 196 217c0 30 -19 45 -52 45c-20 0 -45 -5 -61 -13v-47c-19 -7 -56 -11 -76 -11c-5 29 -8 69 -8 103c38 17 88 33 151 33c85 0 147 -25 147 -104c0 -88 -135 -176 -195 -215
v-6c58 1 137 3 208 8c0 -18 -3 -58 -7 -77h-303zM733 324c-31 0 -80 -8 -115 -23c-2 22 1 53 10 75c33 13 76 18 110 18c76 0 145 -29 145 -97c0 -48 -30 -80 -77 -89v-7c46 -6 86 -36 86 -91c0 -84 -76 -117 -173 -117c-35 0 -76 4 -103 13c-8 17 -13 41 -13 60
c0 4 0 14 1 21c32 -14 86 -25 121 -25c37 0 67 14 67 48c0 41 -37 53 -141 53c-3 20 -1 49 6 69c86 0 128 14 128 53c0 31 -25 39 -52 39z" />
    <glyph glyph-name="partialdiff" unicode="&#x2202;" horiz-adv-x="568" 
d="M412 304c-32 33 -73 55 -119 55c-85 0 -126 -80 -126 -167c0 -77 38 -128 103 -128c89 0 133 118 142 240zM406 383h10c-10 209 -99 275 -195 275c-42 0 -92 -13 -127 -29c-5 30 3 75 16 101c31 11 83 19 121 19c148 0 293 -116 293 -391c0 -206 -82 -375 -251 -375
c-129 0 -220 83 -220 212c0 131 83 251 222 251c69 0 114 -30 131 -63z" />
    <glyph glyph-name="Delta" unicode="&#x2206;" horiz-adv-x="675" 
d="M294 711h99l257 -645v-66h-623v55zM145 78h366l-141 364c-15 40 -33 107 -37 144h-9c-4 -38 -20 -102 -37 -145z" />
    <glyph glyph-name="product" unicode="&#x220f;" horiz-adv-x="794" 
d="M676 618v-702c26 -2 60 -6 82 -11c3 -12 5 -31 5 -47c0 -9 -1 -20 -2 -26h-282c1 20 8 54 14 71c15 5 49 12 67 14v706h-326v-707c25 -2 56 -6 77 -11c5 -17 7 -57 4 -73h-284c1 20 9 54 15 71c16 5 52 12 72 14v700c-22 2 -51 5 -69 9c-4 17 -5 59 -2 75h707
c3 -16 2 -57 -2 -74c-18 -5 -55 -8 -76 -9z" />
    <glyph glyph-name="summation" unicode="&#x2211;" horiz-adv-x="631" 
d="M29 -168v72l277 354l-265 372v71h548v-171c-25 0 -61 4 -85 11c-5 21 -11 59 -13 82h-314v-9c27 -20 65 -61 89 -96l166 -238l-183 -239c-30 -40 -69 -82 -101 -103v-9h348c2 28 7 65 13 89c20 6 65 11 91 11v-197h-571z" />
    <glyph glyph-name="minus" unicode="&#x2212;" 
d="M65 313h447c4 -17 6 -38 6 -56c0 -12 -1 -24 -3 -33h-463c0 25 7 67 13 89z" />
    <glyph glyph-name="uni2219" unicode="&#x2219;" 
d="M285 426c90 0 156 -56 156 -151c0 -104 -66 -163 -156 -163c-102 0 -156 57 -156 163c0 90 64 151 156 151z" />
    <glyph glyph-name="radical" unicode="&#x221a;" horiz-adv-x="567" 
d="M24 402l137 34l83 -254c13 -38 23 -99 26 -140h10c4 40 16 101 29 143l186 610c25 0 74 -11 97 -20l-258 -826l-121 -15l-135 390l-65 -16c0 29 5 70 11 94z" />
    <glyph glyph-name="infinity" unicode="&#x221e;" horiz-adv-x="879" 
d="M429 198c-58 -62 -127 -110 -214 -110c-112 0 -175 79 -175 175c0 97 66 186 191 186c86 0 153 -42 222 -109c56 60 131 108 214 108c107 0 172 -78 172 -171c0 -103 -79 -190 -195 -190c-84 0 -155 47 -215 111zM374 258c-58 64 -105 96 -152 96c-48 0 -82 -35 -82 -83
c0 -52 40 -93 95 -93c51 0 101 36 139 80zM508 281c48 -55 93 -98 149 -98c52 0 83 37 83 83c0 55 -42 92 -94 92c-48 0 -98 -33 -138 -77z" />
    <glyph glyph-name="integral" unicode="&#x222b;" horiz-adv-x="344" 
d="M345 803c6 -18 13 -55 13 -90c-19 17 -51 25 -73 25c-59 0 -69 -62 -69 -149c0 -145 24 -387 24 -536c0 -124 -40 -232 -166 -232c-27 0 -57 5 -83 18c0 21 12 65 24 90c19 -12 40 -18 59 -18c49 0 56 51 56 140c0 153 -25 389 -25 538c0 125 51 231 167 231
c29 0 58 -6 73 -17z" />
    <glyph glyph-name="approxequal" unicode="&#x2248;" 
d="M471 225c16 -13 37 -43 44 -60c-26 -31 -70 -64 -137 -64c-92 0 -123 51 -200 51c-38 0 -76 -20 -97 -40c-12 20 -21 50 -24 73c28 27 72 55 128 55c89 0 128 -51 200 -51c31 0 60 14 86 36zM471 421c16 -13 37 -43 44 -60c-26 -31 -70 -64 -137 -64
c-92 0 -123 51 -200 51c-38 0 -76 -20 -97 -40c-12 20 -21 50 -24 73c28 27 72 55 128 55c89 0 128 -51 200 -51c31 0 60 14 86 36z" />
    <glyph glyph-name="notequal" unicode="&#x2260;" 
d="M499 132h-262l-54 -90c-15 4 -47 21 -58 33l34 57h-98c0 24 7 64 13 84h133l64 104h-210c0 24 6 64 12 84h245l46 74c21 0 52 -6 69 -14l-37 -60h100c4 -16 6 -36 6 -53c0 -12 -1 -22 -3 -31h-150l-64 -104h211c4 -16 6 -36 6 -53c0 -12 -1 -22 -3 -31z" />
    <glyph glyph-name="lessequal" unicode="&#x2264;" 
d="M477 554l-253 -173v-10l250 -167c-6 -17 -46 -63 -61 -73l-315 216l3 61l298 208c24 -13 61 -43 78 -62zM82 83h405c4 -18 5 -34 5 -52c0 -12 -1 -22 -3 -31h-419c0 24 6 62 12 83z" />
    <glyph glyph-name="greaterequal" unicode="&#x2265;" 
d="M475 347l-318 -221c-15 11 -51 55 -59 75l252 170v9l-257 169c16 19 58 51 80 64l298 -205zM85 83h405c4 -18 5 -34 5 -52c0 -12 -1 -22 -3 -31h-418c0 24 5 62 11 83z" />
    <glyph glyph-name="dotmath" unicode="&#x22c5;" 
d="M286 350c48 0 81 -29 81 -80c0 -55 -33 -85 -81 -85c-54 0 -83 29 -83 85c0 48 34 80 83 80z" />
    <glyph glyph-name="H18543" unicode="&#x25aa;" 
d="M45 0v481h480v-481h-480z" />
    <glyph glyph-name="H18551" unicode="&#x25ab;" 
d="M39 0v481h492v-481h-492zM146 391v-301h278v301h-278z" />
    <glyph glyph-name="uni25B8" unicode="&#x25b8;" 
d="M72 -32c-4 69 -7 174 -7 278s3 207 7 267c126 -56 387 -196 497 -269c-112 -75 -372 -219 -497 -276z" />
    <glyph glyph-name="uni25B9" unicode="&#x25b9;" 
d="M71 -32c-6 68 -9 173 -9 278c0 103 3 205 9 267c127 -55 391 -195 502 -268c-113 -77 -376 -220 -502 -277zM169 122c56 25 179 90 228 124c-49 31 -172 94 -227 118c-4 -28 -5 -76 -5 -119c0 -44 1 -93 4 -123z" />
    <glyph glyph-name="uni25C2" unicode="&#x25c2;" 
d="M503 -32c-124 57 -383 201 -494 276c109 73 369 213 494 269c4 -60 7 -163 7 -267s-3 -209 -7 -278z" />
    <glyph glyph-name="uni25C3" unicode="&#x25c3;" 
d="M508 -32c-127 57 -389 200 -502 277c111 73 375 213 502 268c5 -62 8 -164 8 -267c0 -105 -3 -210 -8 -278zM410 122c3 30 4 79 4 123c0 43 -2 91 -5 119c-56 -24 -179 -87 -228 -118c49 -34 173 -99 229 -124z" />
    <glyph glyph-name="lozenge" unicode="&#x25ca;" horiz-adv-x="553" 
d="M25 338l193 370l116 12l194 -369l-193 -370l-116 -10zM143 360l102 -193c16 -30 31 -75 36 -106h10c6 31 22 79 37 109l80 160l-101 200c-14 28 -28 68 -33 95h-10c-5 -28 -18 -67 -33 -96z" />
    <glyph glyph-name="circle" unicode="&#x25cb;" 
d="M288 498c147 0 254 -92 254 -254c0 -167 -116 -261 -262 -261c-149 0 -251 98 -251 255s103 260 259 260zM288 404c-91 0 -151 -62 -151 -162c0 -101 61 -165 147 -165c85 0 151 62 151 170c0 103 -61 157 -147 157z" />
    <glyph glyph-name="H18533" unicode="&#x25cf;" 
d="M288 498c147 0 254 -92 254 -254c0 -167 -116 -261 -262 -261c-149 0 -251 98 -251 255s103 260 259 260z" />
    <glyph glyph-name="uniFB00" unicode="&#xfb00;" horiz-adv-x="733" 
d="M588 481h133c4 -19 7 -56 5 -77h-138v-323c29 -3 76 -12 98 -20c5 -14 7 -44 4 -61h-293c2 19 8 44 15 58c15 9 42 19 62 24v322h-252v-323c28 -3 73 -11 94 -19c5 -14 7 -45 4 -62h-289c2 19 8 44 15 58c15 9 42 19 61 24v322h-78c1 18 8 53 16 71c16 8 43 16 62 20v31
c0 141 84 201 197 201c38 0 88 -7 129 -21c2 -12 3 -26 3 -40c0 -34 -6 -70 -15 -97c-23 1 -65 10 -83 20v64c-10 5 -24 7 -34 7c-49 0 -82 -32 -82 -122v-57h252v56c0 140 86 200 203 200c39 0 90 -7 130 -21c3 -12 4 -26 4 -40c0 -34 -7 -69 -15 -97c-24 1 -65 10 -84 20
v64c-10 5 -26 7 -36 7c-51 0 -88 -33 -88 -122v-67z" />
    <glyph glyph-name="fi" unicode="&#xfb01;" horiz-adv-x="686" 
d="M221 481h117c4 -19 7 -56 5 -77h-122v-323c27 -3 72 -11 93 -19c5 -14 7 -45 4 -62h-288c2 19 8 44 15 58c15 9 42 19 61 24v322h-77c0 19 6 54 15 71c16 8 43 16 62 20v18c0 157 101 224 263 224c62 0 146 -14 207 -39c2 -10 3 -27 3 -40c0 -32 -5 -70 -13 -92
c-25 0 -81 10 -100 22v57c-25 13 -64 22 -96 22c-96 0 -149 -45 -149 -150v-36zM470 82v321h-72c0 22 8 54 20 71c25 10 64 17 102 17c22 0 49 -3 65 -8v-405c23 -2 55 -9 75 -16c3 -13 4 -27 4 -40c0 -8 -1 -16 -2 -22h-268c2 19 8 44 15 58c15 9 41 19 61 24z" />
    <glyph glyph-name="fl" unicode="&#xfb02;" horiz-adv-x="680" 
d="M221 481h128c4 -19 7 -56 5 -77h-133v-323c26 -3 70 -11 90 -19c4 -14 6 -45 4 -62h-285c2 19 8 44 15 58c15 9 42 19 61 24v322h-77c0 19 6 54 15 71c16 8 43 16 62 20v23c0 150 106 219 268 219c61 0 146 -11 205 -31v-628c23 -2 57 -9 77 -16c3 -13 4 -26 4 -39
c0 -9 -1 -17 -2 -23h-268c2 19 8 44 15 58c14 9 40 18 59 24v568c-25 10 -58 16 -88 16c-96 0 -155 -45 -155 -144v-41z" />
    <glyph glyph-name="uniFB03" unicode="&#xfb03;" horiz-adv-x="1054" 
d="M589 481h117c4 -19 7 -56 5 -77h-122v-323c27 -3 72 -11 93 -19c5 -14 7 -45 4 -62h-288c2 19 8 44 15 58c15 9 42 19 61 24v322h-252v-323c28 -3 73 -11 94 -19c5 -14 7 -45 4 -62h-289c2 19 8 44 15 58c15 9 42 19 61 24v322h-78c1 18 8 53 16 71c16 8 43 16 62 20v31
c0 141 84 201 197 201c38 0 88 -7 129 -21c2 -12 3 -26 3 -40c0 -34 -6 -70 -15 -97c-23 1 -65 10 -83 20v64c-10 5 -24 7 -34 7c-49 0 -82 -32 -82 -122v-57h252v32c0 157 101 224 263 224c62 0 146 -14 207 -39c2 -10 3 -27 3 -40c0 -32 -5 -70 -13 -92
c-25 0 -81 10 -100 22v57c-25 13 -64 22 -96 22c-96 0 -149 -45 -149 -150v-36zM838 82v321h-72c0 22 8 54 20 71c25 10 64 17 102 17c22 0 49 -3 65 -8v-405c23 -2 55 -9 75 -16c3 -13 4 -27 4 -40c0 -8 -1 -16 -2 -22h-268c2 19 8 44 15 58c15 9 41 19 61 24z" />
    <glyph glyph-name="uniFB04" unicode="&#xfb04;" horiz-adv-x="1048" 
d="M589 481h128c4 -19 7 -56 5 -77h-133v-323c26 -3 70 -11 90 -19c4 -14 6 -45 4 -62h-285c2 19 8 44 15 58c15 9 42 19 61 24v322h-252v-323c28 -3 73 -11 94 -19c5 -14 7 -45 4 -62h-289c2 19 8 44 15 58c15 9 42 19 61 24v322h-78c1 18 8 53 16 71c16 8 43 16 62 20v31
c0 141 84 201 197 201c38 0 88 -7 129 -21c2 -12 3 -26 3 -40c0 -34 -6 -70 -15 -97c-23 1 -65 10 -83 20v64c-10 5 -24 7 -34 7c-49 0 -82 -32 -82 -122v-57h252v37c0 150 106 219 268 219c61 0 146 -11 205 -31v-628c23 -2 57 -9 77 -16c3 -13 4 -26 4 -39
c0 -9 -1 -17 -2 -23h-268c2 19 8 44 15 58c14 9 40 18 59 24v568c-25 10 -58 16 -88 16c-96 0 -155 -45 -155 -144v-41z" />
    <glyph glyph-name="zero.numr" horiz-adv-x="385" 
d="M192 683c97 0 160 -68 160 -194c0 -135 -62 -207 -160 -207c-103 0 -159 69 -159 207c0 119 66 194 159 194zM131 489c0 -88 20 -141 61 -141c42 0 62 52 62 141c0 74 -22 129 -62 129c-41 0 -61 -50 -61 -129z" />
    <glyph glyph-name="one.numr" horiz-adv-x="385" 
d="M250 683v-328c21 -1 53 -4 72 -8c3 -11 5 -27 5 -41c0 -5 0 -11 -1 -17h-250c1 17 8 43 14 57c18 5 44 9 64 10v249l-89 -9c1 18 5 46 13 65c36 8 106 19 172 22z" />
    <glyph glyph-name="two.numr" horiz-adv-x="385" 
d="M44 289v67c62 59 196 141 196 217c0 30 -19 45 -52 45c-20 0 -45 -5 -61 -13v-47c-19 -7 -56 -11 -76 -11c-5 29 -8 69 -8 103c38 17 88 33 151 33c85 0 147 -25 147 -104c0 -88 -135 -176 -195 -215v-6c58 1 137 3 208 8c0 -18 -3 -58 -7 -77h-303z" />
    <glyph glyph-name="three.numr" horiz-adv-x="385" 
d="M179 613c-31 0 -80 -8 -115 -23c-2 22 1 53 10 75c33 13 76 18 110 18c76 0 145 -29 145 -97c0 -48 -30 -80 -77 -89v-7c46 -6 86 -36 86 -91c0 -84 -76 -117 -173 -117c-35 0 -76 4 -103 13c-8 17 -13 41 -13 60c0 4 0 14 1 21c32 -14 86 -25 121 -25c37 0 67 14 67 48
c0 41 -37 53 -141 53c-3 20 -1 49 6 69c86 0 128 14 128 53c0 31 -25 39 -52 39z" />
    <glyph glyph-name="four.numr" horiz-adv-x="385" 
d="M305 383v-92c-6 -3 -28 -4 -43 -4s-38 1 -47 4v92h-188v56l165 237h113v-224h54c3 -19 4 -46 4 -69h-58zM215 452v84c0 18 1 40 4 59h-6l-95 -139v-6c13 2 30 2 44 2h53z" />
    <glyph glyph-name="five.numr" horiz-adv-x="385" 
d="M164 597l-5 -65c15 3 31 4 47 4c76 0 132 -34 132 -118c0 -103 -85 -136 -175 -136c-33 0 -79 5 -102 11c-9 17 -14 49 -14 65c0 5 0 12 1 18c33 -13 80 -25 117 -25c44 0 73 18 73 61c0 45 -31 58 -78 58c-26 0 -67 -4 -95 -9l15 215h259c0 -23 -2 -54 -6 -79h-169z" />
    <glyph glyph-name="six.numr" horiz-adv-x="385" 
d="M141 505h7c12 19 36 35 80 35c80 0 121 -51 121 -123c0 -87 -58 -135 -152 -135c-105 0 -155 59 -155 176c0 154 86 225 203 225c24 0 61 -3 80 -10c9 -19 14 -62 11 -83c-23 12 -64 22 -95 22c-47 0 -91 -24 -100 -107zM142 447v-9c0 -63 17 -94 55 -94
c34 0 53 26 53 68c0 40 -17 61 -51 61c-25 0 -42 -12 -57 -26z" />
    <glyph glyph-name="seven.numr" horiz-adv-x="385" 
d="M355 676v-69c-67 -111 -110 -210 -144 -316c-15 -3 -33 -4 -48 -4c-20 0 -40 1 -59 4c37 103 95 211 160 304v7h-127c-1 -12 -6 -36 -11 -48c-20 -5 -53 -9 -77 -9v131h306z" />
    <glyph glyph-name="eight.numr" horiz-adv-x="385" 
d="M108 485v7c-32 14 -59 42 -59 88c0 76 74 103 148 103c72 0 142 -25 142 -93c0 -43 -27 -73 -56 -86v-7c35 -15 66 -45 66 -99c0 -78 -65 -116 -161 -116c-77 0 -152 25 -152 105c0 52 31 85 72 98zM168 459c-21 -14 -35 -35 -35 -63c0 -38 25 -54 59 -54
c32 0 61 15 61 49c0 38 -38 51 -85 68zM217 533c18 12 28 30 28 50c0 32 -25 42 -49 42c-22 0 -53 -8 -53 -36c0 -30 34 -42 74 -56z" />
    <glyph glyph-name="nine.numr" horiz-adv-x="385" 
d="M249 465h-7c-12 -19 -37 -35 -81 -35c-79 0 -119 51 -119 121c0 85 57 132 152 132c105 0 154 -58 154 -178c0 -156 -83 -223 -201 -223c-25 0 -67 3 -86 9c-9 20 -14 64 -11 85c24 -10 69 -22 102 -22c48 0 89 25 97 111zM249 522v9c0 60 -18 91 -56 91
c-34 0 -53 -26 -53 -67c0 -38 17 -59 51 -59c25 0 43 12 58 26z" />
    <glyph glyph-name="zero.dnom" horiz-adv-x="385" 
d="M192 394c97 0 160 -68 160 -194c0 -135 -62 -207 -160 -207c-103 0 -159 69 -159 207c0 119 66 194 159 194zM131 200c0 -88 20 -141 61 -141c42 0 62 52 62 141c0 74 -22 129 -62 129c-41 0 -61 -50 -61 -129z" />
    <glyph glyph-name="one.dnom" horiz-adv-x="385" 
d="M250 394v-328c21 -1 53 -4 72 -8c3 -11 5 -27 5 -41c0 -5 0 -11 -1 -17h-250c1 17 8 43 14 57c18 5 44 9 64 10v249l-89 -9c1 18 5 46 13 65c36 8 106 19 172 22z" />
    <glyph glyph-name="two.dnom" horiz-adv-x="385" 
d="M44 0v67c62 59 196 141 196 217c0 30 -19 45 -52 45c-20 0 -45 -5 -61 -13v-47c-19 -7 -56 -11 -76 -11c-5 29 -8 69 -8 103c38 17 88 33 151 33c85 0 147 -25 147 -104c0 -88 -135 -176 -195 -215v-6c58 1 137 3 208 8c0 -18 -3 -58 -7 -77h-303z" />
    <glyph glyph-name="three.dnom" horiz-adv-x="385" 
d="M179 324c-31 0 -80 -8 -115 -23c-2 22 1 53 10 75c33 13 76 18 110 18c76 0 145 -29 145 -97c0 -48 -30 -80 -77 -89v-7c46 -6 86 -36 86 -91c0 -84 -76 -117 -173 -117c-35 0 -76 4 -103 13c-8 17 -13 41 -13 60c0 4 0 14 1 21c32 -14 86 -25 121 -25c37 0 67 14 67 48
c0 41 -37 53 -141 53c-3 20 -1 49 6 69c86 0 128 14 128 53c0 31 -25 39 -52 39z" />
    <glyph glyph-name="four.dnom" horiz-adv-x="385" 
d="M305 94v-92c-6 -3 -28 -4 -43 -4s-38 1 -47 4v92h-188v56l165 237h113v-224h54c3 -19 4 -46 4 -69h-58zM215 163v84c0 18 1 40 4 59h-6l-95 -139v-6c13 2 30 2 44 2h53z" />
    <glyph glyph-name="five.dnom" horiz-adv-x="385" 
d="M164 308l-5 -65c15 3 31 4 47 4c76 0 132 -34 132 -118c0 -103 -85 -136 -175 -136c-33 0 -79 5 -102 11c-9 17 -14 49 -14 65c0 5 0 12 1 18c33 -13 80 -25 117 -25c44 0 73 18 73 61c0 45 -31 58 -78 58c-26 0 -67 -4 -95 -9l15 215h259c0 -23 -2 -54 -6 -79h-169z" />
    <glyph glyph-name="six.dnom" horiz-adv-x="385" 
d="M141 216h7c12 19 36 35 80 35c80 0 121 -51 121 -123c0 -87 -58 -135 -152 -135c-105 0 -155 59 -155 176c0 154 86 225 203 225c24 0 61 -3 80 -10c9 -19 14 -62 11 -83c-23 12 -64 22 -95 22c-47 0 -91 -24 -100 -107zM142 158v-9c0 -63 17 -94 55 -94
c34 0 53 26 53 68c0 40 -17 61 -51 61c-25 0 -42 -12 -57 -26z" />
    <glyph glyph-name="seven.dnom" horiz-adv-x="385" 
d="M355 387v-69c-67 -111 -110 -210 -144 -316c-15 -3 -33 -4 -48 -4c-20 0 -40 1 -59 4c37 103 95 211 160 304v7h-127c-1 -12 -6 -36 -11 -48c-20 -5 -53 -9 -77 -9v131h306z" />
    <glyph glyph-name="eight.dnom" horiz-adv-x="385" 
d="M108 196v7c-32 14 -59 42 -59 88c0 76 74 103 148 103c72 0 142 -25 142 -93c0 -43 -27 -73 -56 -86v-7c35 -15 66 -45 66 -99c0 -78 -65 -116 -161 -116c-77 0 -152 25 -152 105c0 52 31 85 72 98zM168 170c-21 -14 -35 -35 -35 -63c0 -38 25 -54 59 -54
c32 0 61 15 61 49c0 38 -38 51 -85 68zM217 244c18 12 28 30 28 50c0 32 -25 42 -49 42c-22 0 -53 -8 -53 -36c0 -30 34 -42 74 -56z" />
    <glyph glyph-name="nine.dnom" horiz-adv-x="385" 
d="M249 176h-7c-12 -19 -37 -35 -81 -35c-79 0 -119 51 -119 121c0 85 57 132 152 132c105 0 154 -58 154 -178c0 -156 -83 -223 -201 -223c-25 0 -67 3 -86 9c-9 20 -14 64 -11 85c24 -10 69 -22 102 -22c48 0 89 25 97 111zM249 233v9c0 60 -18 91 -56 91
c-34 0 -53 -26 -53 -67c0 -38 17 -59 51 -59c25 0 43 12 58 26z" />
    <glyph glyph-name="space.frac" horiz-adv-x="42" 
 />
    <glyph glyph-name="quotedbl.tf" 
d="M162 453c-25 0 -57 4 -80 9c5 75 8 179 8 249c33 0 82 -6 111 -13c0 -63 -21 -183 -39 -245zM364 453c-25 0 -57 4 -80 9c5 75 8 179 8 249c33 0 82 -6 111 -13c0 -63 -21 -183 -39 -245z" />
    <glyph glyph-name="numbersign.tf" 
d="M513 199h-101l-30 -197c-10 -2 -35 -4 -53 -4c-16 0 -36 2 -46 4l32 197h-110l-30 -197c-10 -2 -35 -4 -53 -4c-16 0 -36 2 -45 4l31 197h-88c0 19 7 52 13 69h89l24 154h-96c0 19 7 52 13 69h97l30 182c24 5 64 9 93 9l-29 -191h113l30 182c23 5 64 9 93 9l-30 -191h87
c1 -7 1 -13 1 -21c0 -17 -1 -35 -4 -48h-97l-23 -154h92c3 -16 1 -52 -3 -69zM239 422l-23 -154h114l24 154h-115z" />
    <glyph glyph-name="dollar.tf" 
d="M371 522v79c-19 11 -46 18 -68 18c-62 0 -100 -37 -100 -85c0 -157 301 -114 301 -345c0 -130 -80 -188 -184 -204v-114c-9 -2 -29 -3 -47 -3c-16 0 -39 1 -49 3v110c-56 3 -116 16 -163 36c0 53 6 129 14 179c25 0 73 -5 99 -13v-99c27 -16 66 -25 97 -25
c77 0 115 39 115 108c0 160 -304 103 -304 348c0 97 61 162 165 177v88c23 5 68 8 97 8v-94c40 -4 93 -15 136 -30c0 -48 -7 -113 -17 -161c-27 0 -68 8 -92 19z" />
    <glyph glyph-name="percent.tf" horiz-adv-x="900" 
d="M220 696c104 0 170 -62 170 -175c0 -120 -65 -185 -170 -185c-110 0 -170 61 -170 185c0 107 71 175 170 175zM718 682l-450 -715c-23 4 -63 25 -77 39l439 698c27 -1 66 -11 88 -22zM152 521c0 -73 24 -117 68 -117c45 0 68 43 68 117c0 62 -24 107 -68 107
s-68 -41 -68 -107zM680 340c104 0 170 -62 170 -175c0 -120 -65 -185 -170 -185c-110 0 -170 61 -170 185c0 107 71 175 170 175zM612 165c0 -73 24 -117 68 -117c45 0 68 43 68 117c0 62 -24 107 -68 107s-68 -41 -68 -107z" />
    <glyph glyph-name="quotesingle.tf" horiz-adv-x="350" 
d="M163 453c-25 0 -57 4 -80 9c5 75 8 179 8 249c33 0 82 -6 111 -13c0 -63 -21 -183 -39 -245z" />
    <glyph glyph-name="comma.tf" horiz-adv-x="350" 
d="M84 16l-50 11c7 26 23 63 39 80c15 4 32 5 48 5c30 0 64 -6 89 -14c-15 -88 -70 -218 -106 -277c-23 5 -52 21 -63 31c18 49 36 117 43 164z" />
    <glyph glyph-name="period.tf" horiz-adv-x="350" 
d="M136 144c45 0 77 -27 77 -75c0 -53 -32 -81 -77 -81c-51 0 -78 27 -78 81c0 45 32 75 78 75z" />
    <glyph glyph-name="zero.tf" 
d="M285 696c151 0 240 -111 240 -348c0 -248 -87 -368 -240 -368c-162 0 -241 114 -241 368c0 225 94 348 241 348zM167 349c0 -183 41 -288 118 -288c82 0 117 102 117 288c0 162 -42 268 -117 268c-80 0 -118 -96 -118 -268z" />
    <glyph glyph-name="one.tf" 
d="M241 89v496l-150 -19c1 26 8 59 19 80c47 16 167 40 252 45v-603c38 -1 90 -6 125 -12c4 -13 7 -35 7 -53c0 -8 0 -15 -1 -23h-384c1 21 13 56 22 74c27 6 80 13 110 15z" />
    <glyph glyph-name="two.tf" 
d="M58 0v90c86 109 304 281 304 421c0 66 -32 101 -95 101c-32 0 -67 -9 -95 -22v-88c-23 -10 -65 -19 -93 -19c-11 54 -14 122 -14 170c51 24 127 43 205 43c123 0 221 -50 221 -165c0 -167 -207 -340 -305 -424v-9h218c2 22 8 61 14 85c23 6 64 11 89 11v-194h-449z" />
    <glyph glyph-name="three.tf" 
d="M183 600v-78c-21 -11 -65 -20 -93 -20c-12 55 -15 113 -15 161c58 21 143 33 204 33c107 0 209 -51 209 -172c0 -94 -62 -150 -146 -166v-7c86 -12 163 -64 163 -167c0 -144 -126 -204 -267 -204c-56 0 -118 9 -160 20c-14 23 -24 63 -24 92c0 7 0 13 2 21
c44 -20 129 -44 188 -44c67 0 132 28 132 108c0 99 -77 132 -237 132c-2 9 -3 20 -3 30c0 17 3 35 9 51c127 0 217 31 217 125c0 73 -51 100 -96 100c-25 0 -62 -8 -83 -15z" />
    <glyph glyph-name="four.tf" 
d="M43 186v80l263 418h131v-415h83c3 -17 5 -38 5 -56c0 -9 0 -18 -1 -27h-87v-110c28 -2 62 -6 86 -11c3 -9 5 -25 5 -39c0 -11 -1 -19 -2 -26h-294c2 20 9 48 16 65c20 5 55 11 78 14v107h-283zM326 269v189c0 34 1 73 7 108h-10l-177 -293v-10c34 5 77 6 114 6h66z" />
    <glyph glyph-name="five.tf" 
d="M216 572l-14 -166c27 5 52 8 80 8c115 0 214 -68 214 -209c0 -156 -124 -225 -256 -225c-56 0 -113 9 -152 21c-14 22 -23 60 -23 89c0 6 0 18 1 24c50 -26 116 -48 173 -48c72 0 130 43 130 130c0 107 -63 138 -144 138c-35 0 -90 -6 -129 -14l27 356h374
c0 -30 -4 -73 -10 -104h-271z" />
    <glyph glyph-name="six.tf" 
d="M182 369h9c22 37 62 62 132 62c132 0 202 -90 202 -219c0 -147 -91 -232 -232 -232c-157 0 -236 107 -236 310c0 264 131 406 303 406c44 0 92 -9 127 -26c12 -24 21 -79 16 -109c-37 27 -96 48 -142 48c-83 0 -161 -65 -179 -240zM183 293v-13c0 -143 35 -221 114 -221
c68 0 106 57 106 150c0 91 -38 141 -107 141c-48 0 -82 -23 -113 -57z" />
    <glyph glyph-name="seven.tf" 
d="M534 676v-87c-102 -204 -183 -391 -243 -586c-19 -4 -37 -6 -60 -6c-24 0 -47 2 -70 6c63 188 159 393 267 568v9h-250c-1 -22 -8 -68 -14 -89c-24 -7 -64 -13 -92 -13v198h462z" />
    <glyph glyph-name="eight.tf" 
d="M189 350v7c-58 23 -112 71 -112 159c0 131 117 180 222 180c102 0 207 -47 207 -161c0 -83 -56 -145 -113 -165v-7c65 -26 127 -77 127 -177c0 -135 -116 -206 -243 -206c-103 0 -227 46 -227 182c0 100 66 168 139 188zM251 320c-46 -27 -80 -76 -80 -144
c0 -84 52 -119 112 -119c58 0 119 34 119 112c0 85 -71 115 -151 151zM325 402c41 29 65 76 65 126c0 74 -52 98 -95 98c-39 0 -106 -20 -106 -93c0 -69 61 -96 136 -131z" />
    <glyph glyph-name="nine.tf" 
d="M396 321h-9c-21 -39 -63 -69 -131 -69c-131 0 -204 94 -204 216c0 143 91 228 227 228c161 0 240 -108 240 -324c0 -259 -109 -392 -279 -392c-56 0 -117 11 -159 30c-17 29 -26 86 -21 115c48 -27 124 -52 175 -52c94 0 151 81 161 248zM395 393
c-2 163 -41 227 -117 227c-67 0 -104 -59 -104 -147c0 -84 39 -139 112 -139c46 0 82 26 109 59z" />
    <glyph glyph-name="colon.tf" horiz-adv-x="350" 
d="M135 487c43 0 75 -28 75 -74c0 -50 -32 -79 -75 -79c-49 0 -76 28 -76 79c0 44 33 74 76 74zM135 142c44 0 76 -27 76 -75c0 -51 -32 -79 -76 -79c-50 0 -77 27 -77 79c0 45 32 75 77 75z" />
    <glyph glyph-name="semicolon.tf" horiz-adv-x="350" 
d="M136 486c42 0 74 -27 74 -73c0 -50 -32 -79 -74 -79c-49 0 -77 28 -77 79c0 43 33 73 77 73zM84 16l-50 11c7 26 23 63 39 80c15 4 32 5 48 5c30 0 64 -6 89 -14c-15 -88 -70 -218 -106 -277c-23 5 -52 21 -63 31c18 49 36 117 43 164z" />
    <glyph glyph-name="cent.tf" 
d="M392 460v67c-16 8 -35 11 -50 11c-82 0 -141 -54 -141 -176c0 -125 63 -183 151 -183c45 0 99 13 140 28c2 -20 -8 -58 -20 -76c-27 -15 -66 -26 -106 -32v-97c-8 -2 -29 -3 -46 -3s-39 1 -50 3v95c-120 17 -192 116 -192 247c0 137 82 240 208 263v84c23 5 68 8 96 8
v-90c42 -5 79 -19 110 -37c2 -11 2 -22 2 -33c0 -35 -6 -74 -17 -99c-24 0 -64 7 -85 20z" />
    <glyph glyph-name="sterling.tf" 
d="M114 85c21 47 38 108 38 154c0 19 -2 41 -3 58h-93c0 21 6 58 11 76h73c-8 42 -15 80 -15 123c0 131 73 200 222 200c44 0 106 -9 153 -25c0 -52 -5 -103 -15 -157c-29 0 -70 8 -90 17v76c-16 6 -37 10 -55 10c-64 0 -99 -43 -99 -114c0 -46 9 -91 15 -130h183
c4 -15 6 -53 3 -76h-179c1 -12 2 -26 2 -40c0 -64 -30 -135 -66 -171v-7h235c2 27 7 64 13 87c20 6 64 11 89 11v-177h-508c1 20 8 54 15 71c16 5 50 12 71 14z" />
    <glyph glyph-name="currency.tf" 
d="M173 523c33 19 72 30 115 30c42 0 80 -10 112 -26l58 73c23 -6 51 -28 62 -43l-64 -76c28 -34 44 -80 44 -136c0 -62 -18 -112 -47 -149l67 -78c-10 -17 -36 -37 -60 -42l-61 75c-31 -17 -70 -26 -111 -26c-45 0 -84 9 -116 26l-62 -77c-23 7 -49 27 -60 44l68 80
c-27 36 -42 86 -42 147c0 52 16 96 43 131l-67 80c10 15 38 37 62 43zM177 344c0 -84 45 -144 111 -144c71 0 110 58 110 144c0 74 -45 133 -110 133c-71 0 -111 -55 -111 -133z" />
    <glyph glyph-name="yen.tf" 
d="M493 172h-152v-93c31 -2 67 -6 93 -11c6 -16 7 -54 4 -68h-317c2 19 11 51 18 66c19 5 58 11 81 14v92h-149c0 19 5 52 10 71h139v31l-21 45h-128c0 19 5 52 10 71h85l-98 203c-14 2 -35 6 -48 10c-6 18 -11 52 -12 73h259c0 -20 -5 -54 -11 -74c-19 -4 -45 -7 -66 -8
c12 -16 24 -38 32 -57l50 -116c8 -20 18 -57 21 -82h9c4 26 13 60 24 83l56 117c8 17 22 39 36 56c-18 1 -42 5 -57 10c-6 18 -10 51 -10 71h216c0 -21 -5 -57 -10 -75c-12 -3 -32 -6 -45 -7l-110 -204h88c4 -13 6 -51 3 -71h-130l-22 -42v-34h149c4 -13 6 -51 3 -71z" />
    <glyph glyph-name="section.tf" 
d="M74 324c0 69 28 123 70 164c-8 21 -13 45 -13 75c0 101 70 159 182 159c59 0 121 -15 172 -37c0 -40 -5 -90 -13 -128c-29 0 -69 8 -89 19v66c-18 8 -42 15 -69 15c-53 0 -83 -30 -83 -77c0 -140 271 -114 271 -356c0 -61 -29 -112 -63 -148c13 -26 21 -58 21 -96
c0 -125 -97 -178 -215 -178c-65 0 -128 15 -183 45c0 30 4 90 12 141c25 0 70 -5 97 -13v-83c24 -16 56 -22 85 -22c67 0 105 38 105 98c0 157 -287 130 -287 356zM168 346c0 -108 133 -131 219 -208c12 22 21 50 21 75c0 117 -140 134 -220 215c-15 -25 -20 -54 -20 -82z
" />
    <glyph glyph-name="degree.tf" horiz-adv-x="350" 
d="M162 696c85 0 145 -48 145 -134c0 -90 -60 -142 -147 -142c-94 0 -144 49 -144 142c0 81 63 134 146 134zM103 562c0 -44 23 -75 59 -75c37 0 57 29 57 75c0 39 -23 67 -57 67c-37 0 -59 -27 -59 -67z" />
    <glyph glyph-name="florin.tf" 
d="M489 288h-160l-23 -283c-12 -148 -109 -201 -208 -201c-35 0 -80 8 -115 21c2 40 15 104 28 143c21 -3 63 -14 80 -22l-6 -67c7 -3 17 -5 29 -5c37 0 71 39 78 117l27 297h-136c1 21 9 56 15 74h127l13 133c14 144 108 201 205 201c34 0 79 -7 112 -21
c-4 -40 -18 -98 -31 -133c-24 2 -59 13 -76 23l8 55c-8 5 -20 6 -29 6c-37 0 -72 -34 -79 -117l-13 -147h157c3 -18 1 -56 -3 -74z" />
    <glyph glyph-name="uni2007.tf" 
 />
    <glyph glyph-name="uni2008.tf" horiz-adv-x="350" 
 />
    <glyph glyph-name="perthousand.tf" horiz-adv-x="1300" 
d="M217 696c104 0 170 -62 170 -175c0 -120 -65 -185 -170 -185c-110 0 -170 61 -170 185c0 107 71 175 170 175zM715 682l-450 -715c-23 4 -63 25 -77 39l439 698c27 -1 66 -11 88 -22zM149 521c0 -73 24 -117 68 -117c45 0 68 43 68 117c0 62 -24 107 -68 107
s-68 -41 -68 -107zM674 340c104 0 170 -62 170 -175c0 -120 -65 -185 -170 -185c-110 0 -170 61 -170 185c0 107 71 175 170 175zM606 165c0 -73 24 -117 68 -117c45 0 68 43 68 117c0 62 -24 107 -68 107s-68 -41 -68 -107zM1083 340c104 0 170 -62 170 -175
c0 -120 -65 -185 -170 -185c-110 0 -170 61 -170 185c0 107 71 175 170 175zM1015 165c0 -73 24 -117 68 -117c45 0 68 43 68 117c0 62 -24 107 -68 107s-68 -41 -68 -107z" />
    <glyph glyph-name="Euro.tf" 
d="M438 356h-411c0 18 4 52 10 70h52c33 173 150 270 295 270c64 0 120 -15 167 -38c0 -56 -6 -117 -15 -164c-29 0 -68 9 -93 25v81c-22 11 -45 16 -69 16c-80 0 -144 -65 -161 -190h222c3 -12 5 -51 3 -70zM438 225h-214c25 -104 87 -149 167 -149c47 0 112 13 157 31
c2 -23 -8 -64 -17 -83c-45 -25 -115 -44 -180 -44c-135 0 -230 93 -261 245h-63c0 18 4 52 10 70h398c3 -12 5 -51 3 -70z" />
    <glyph glyph-name="numbersign.lf" horiz-adv-x="610" 
d="M561 199h-117l-30 -197c-10 -2 -35 -4 -53 -4c-15 0 -36 2 -45 4l31 197h-124l-30 -197c-10 -2 -35 -4 -53 -4c-16 0 -36 2 -45 4l31 197h-103c1 19 8 52 14 69h103l24 154h-111c1 19 9 52 15 69h110l30 182c24 5 64 9 93 9l-29 -191h127l30 182c24 5 64 9 93 9l-29 -191
h101c1 -7 1 -13 1 -21c0 -17 -1 -35 -4 -48h-111l-23 -154h107c2 -16 1 -52 -3 -69zM258 422l-22 -154h125l24 154h-127z" />
    <glyph glyph-name="dollar.lf" horiz-adv-x="554" 
d="M378 522v79c-22 11 -52 18 -78 18c-70 0 -113 -37 -113 -85c0 -158 320 -113 320 -345c0 -130 -84 -188 -191 -204v-114c-16 -3 -32 -4 -48 -4s-33 1 -49 4v110c-61 3 -127 16 -178 36c0 53 6 129 14 179c25 0 73 -5 99 -13v-99c30 -16 73 -25 108 -25
c85 0 127 39 127 108c0 161 -323 102 -323 348c0 97 65 162 177 177v88c23 5 68 8 96 8v-94c48 -4 103 -15 148 -30c0 -48 -7 -113 -17 -161c-27 0 -69 8 -92 19z" />
    <glyph glyph-name="percent.lf" horiz-adv-x="891" 
d="M201 696c104 0 170 -62 170 -175c0 -120 -65 -185 -170 -185c-110 0 -170 61 -170 185c0 107 71 175 170 175zM729 682l-480 -715c-23 4 -63 25 -77 39l469 698c27 -1 66 -11 88 -22zM133 521c0 -73 24 -117 68 -117c45 0 68 43 68 117c0 62 -24 107 -68 107
s-68 -41 -68 -107zM690 340c104 0 170 -62 170 -175c0 -120 -65 -185 -170 -185c-110 0 -170 61 -170 185c0 107 71 175 170 175zM622 165c0 -73 24 -117 68 -117c45 0 68 43 68 117c0 62 -24 107 -68 107s-68 -41 -68 -107z" />
    <glyph glyph-name="zero.lf" horiz-adv-x="628" 
d="M314 696c162 0 259 -114 259 -348c0 -246 -94 -368 -259 -368c-173 0 -259 116 -259 368c0 223 102 348 259 348zM181 349c0 -181 47 -288 133 -288c92 0 133 104 133 288c0 159 -48 268 -133 268c-90 0 -133 -100 -133 -268z" />
    <glyph glyph-name="one.lf" horiz-adv-x="444" 
d="M178 89v496l-144 -18c0 26 7 59 18 80c46 15 164 39 247 44v-603c33 -2 77 -6 105 -12c4 -13 7 -35 7 -53c0 -8 0 -15 -1 -23h-344c1 21 11 56 18 74c24 6 68 13 94 15z" />
    <glyph glyph-name="two.lf" horiz-adv-x="571" 
d="M47 0v90c92 109 322 280 322 421c0 67 -34 101 -102 101c-35 0 -74 -10 -105 -24v-88c-23 -11 -65 -19 -92 -19c-12 54 -15 122 -15 171c53 24 130 44 214 44c127 0 229 -50 229 -164c0 -166 -217 -339 -322 -425v-9h235c1 22 8 61 15 85c23 6 63 11 88 11v-194h-467z
" />
    <glyph glyph-name="three.lf" horiz-adv-x="554" 
d="M173 600v-78c-20 -11 -64 -20 -92 -20c-12 55 -15 112 -15 161c56 20 145 33 204 33c111 0 216 -50 216 -171c0 -95 -63 -151 -147 -167v-7c86 -12 164 -64 164 -167c0 -144 -129 -204 -272 -204c-57 0 -120 9 -163 20c-13 23 -23 64 -23 94c0 6 1 15 2 19
c44 -20 132 -44 192 -44c68 0 135 28 135 108c0 99 -79 132 -242 132c-3 9 -4 19 -4 30c0 17 3 36 10 51c129 0 221 31 221 125c0 73 -53 100 -99 100c-25 0 -64 -7 -87 -15z" />
    <glyph glyph-name="four.lf" horiz-adv-x="573" 
d="M29 186v80l286 418h127v-415h90c3 -17 5 -38 5 -56c0 -9 0 -18 -1 -27h-94v-110c29 -2 64 -6 88 -11c3 -9 5 -25 5 -39c0 -10 -1 -20 -2 -26h-300c2 20 9 48 17 65c19 5 56 11 79 14v107h-300zM330 269v165c0 43 1 88 7 130h-10l-195 -290v-10c34 4 74 5 111 5h87z" />
    <glyph glyph-name="five.lf" horiz-adv-x="535" 
d="M194 572l-14 -166c28 5 54 8 82 8c118 0 220 -68 220 -209c0 -156 -126 -225 -261 -225c-56 0 -115 9 -155 21c-13 22 -23 63 -23 93c0 6 1 15 2 20c51 -26 118 -48 177 -48c73 0 133 43 133 130c0 107 -64 138 -148 138c-36 0 -93 -6 -132 -14l26 356h382
c0 -30 -4 -73 -10 -104h-279z" />
    <glyph glyph-name="six.lf" horiz-adv-x="585" 
d="M181 369h10c23 35 64 62 136 62c139 0 212 -89 212 -216c0 -148 -93 -235 -236 -235c-168 0 -248 105 -248 310c0 265 136 406 315 406c44 0 97 -10 131 -26c12 -24 21 -79 16 -109c-44 31 -101 48 -152 48c-83 0 -164 -68 -184 -240zM181 293v-20
c0 -141 39 -214 125 -214c70 0 110 59 110 152c0 89 -40 139 -115 139c-50 0 -88 -24 -120 -57z" />
    <glyph glyph-name="seven.lf" horiz-adv-x="528" 
d="M507 676v-87c-104 -204 -187 -391 -248 -586c-19 -4 -37 -6 -60 -6c-24 0 -47 2 -70 6c64 188 162 393 273 568v9h-259c-2 -22 -9 -68 -15 -89c-24 -7 -64 -13 -92 -13v198h471z" />
    <glyph glyph-name="eight.lf" horiz-adv-x="599" 
d="M198 350v7c-58 24 -112 72 -112 159c0 130 120 180 227 180c105 0 213 -47 213 -161c0 -81 -56 -143 -114 -165v-7c66 -28 128 -78 128 -176c0 -136 -119 -207 -249 -207c-106 0 -232 47 -232 183c0 98 66 166 139 187zM262 320c-47 -27 -82 -75 -82 -143
c0 -84 54 -120 117 -120c61 0 125 35 125 113c0 84 -74 114 -160 150zM341 402c44 29 68 76 68 125c0 74 -53 99 -99 99c-42 0 -113 -21 -113 -94c0 -67 61 -94 144 -130z" />
    <glyph glyph-name="nine.lf" horiz-adv-x="583" 
d="M408 321h-9c-23 -39 -65 -69 -137 -69c-138 0 -215 93 -215 216c0 143 95 228 235 228c167 0 249 -108 249 -324c0 -259 -112 -392 -287 -392c-59 0 -123 11 -168 30c-17 29 -25 87 -20 116c49 -29 127 -53 180 -53c100 0 161 81 172 248zM407 393
c-2 163 -44 227 -126 227c-71 0 -111 -59 -111 -147c0 -85 41 -139 120 -139c49 0 88 26 117 59z" />
    <glyph glyph-name="cent.lf" horiz-adv-x="517" 
d="M364 460v67c-17 8 -35 11 -50 11c-83 0 -141 -54 -141 -176c0 -125 62 -183 150 -183c45 0 100 13 140 28c2 -20 -8 -58 -19 -76c-27 -15 -67 -26 -106 -32v-97c-9 -2 -29 -3 -47 -3c-16 0 -38 1 -49 3v95c-120 17 -192 116 -192 247c0 137 82 240 208 263v84
c23 5 67 8 96 8v-90c42 -5 78 -18 109 -36c2 -10 3 -25 3 -36c0 -36 -7 -72 -17 -97c-25 0 -64 7 -85 20z" />
    <glyph glyph-name="sterling.lf" horiz-adv-x="597" 
d="M118 85c21 47 38 109 38 155c0 19 -1 39 -4 57h-95c0 21 6 58 12 76h75c-9 42 -15 80 -15 123c0 131 77 200 231 200c46 0 110 -9 158 -25c0 -52 -5 -103 -15 -157c-29 0 -70 8 -90 17v76c-17 6 -40 10 -60 10c-70 0 -107 -43 -107 -114c0 -46 7 -91 15 -130h195
c4 -15 6 -53 3 -76h-193c2 -15 3 -29 3 -45c0 -62 -30 -132 -66 -166v-7h251c2 27 8 64 13 87c21 6 65 11 90 11v-177h-528c2 20 9 54 16 71c17 5 53 12 73 14z" />
    <glyph glyph-name="currency.lf" horiz-adv-x="568" 
d="M172 523c33 19 72 30 115 30c42 0 80 -10 112 -26l58 73c23 -6 51 -28 62 -43l-64 -76c28 -34 44 -80 44 -136c0 -62 -18 -112 -47 -149l67 -78c-10 -17 -36 -37 -60 -42l-61 75c-31 -17 -70 -26 -111 -26c-45 0 -84 9 -116 26l-62 -77c-23 7 -49 27 -60 44l68 80
c-27 36 -42 86 -42 147c0 52 16 96 43 131l-67 80c10 15 38 37 62 43zM176 344c0 -84 45 -144 111 -144c71 0 110 58 110 144c0 74 -45 133 -110 133c-71 0 -111 -55 -111 -133z" />
    <glyph glyph-name="yen.lf" horiz-adv-x="607" 
d="M526 172h-165v-93c30 -2 69 -6 95 -11c6 -16 7 -54 4 -68h-321c2 19 11 51 18 66c19 5 60 11 83 14v92h-163c0 19 5 52 11 71h152v31l-23 44h-140c0 19 5 52 11 71h93l-104 204c-15 2 -36 6 -48 10c-7 18 -12 52 -12 73h263c0 -20 -6 -54 -12 -74c-20 -4 -48 -7 -70 -8
c14 -16 28 -39 36 -57l54 -116c9 -20 21 -57 24 -82h10c4 25 14 60 26 83l61 117c9 17 23 39 38 56c-18 1 -43 5 -59 10c-6 18 -10 51 -10 71h219c0 -21 -5 -57 -11 -75c-11 -3 -32 -6 -45 -7l-117 -205h99c4 -13 6 -51 3 -71h-142l-23 -41v-34h162c4 -13 6 -51 3 -71z" />
    <glyph glyph-name="section.lf" horiz-adv-x="490" 
d="M40 324c0 68 25 120 66 161c-9 22 -14 46 -14 78c0 101 70 159 182 159c59 0 121 -15 172 -37c0 -40 -5 -90 -14 -128c-28 0 -68 8 -88 19v66c-18 8 -42 15 -69 15c-54 0 -83 -30 -83 -77c0 -140 270 -114 270 -356c0 -58 -25 -107 -59 -144c15 -27 24 -59 24 -100
c0 -125 -98 -178 -216 -178c-65 0 -128 15 -183 45c0 30 4 90 12 141c25 0 70 -5 97 -13v-83c24 -16 56 -22 85 -22c67 0 105 38 105 98c0 157 -287 130 -287 356zM134 346c0 -105 130 -130 216 -204c11 23 19 47 19 71c0 115 -137 135 -217 212c-13 -25 -18 -52 -18 -79z
" />
    <glyph glyph-name="degree.lf" horiz-adv-x="350" 
d="M162 696c85 0 145 -48 145 -134c0 -90 -60 -142 -147 -142c-94 0 -144 49 -144 142c0 81 63 134 146 134zM103 562c0 -44 23 -75 59 -75c37 0 57 29 57 75c0 39 -23 67 -57 67c-37 0 -59 -27 -59 -67z" />
    <glyph glyph-name="florin.lf" horiz-adv-x="499" 
d="M449 288h-159l-24 -283c-13 -148 -109 -201 -208 -201c-35 0 -80 8 -115 21c2 40 15 104 28 143c21 -3 63 -14 81 -22l-6 -66c6 -3 17 -6 29 -6c37 0 70 39 77 117l28 297h-137c1 21 9 56 16 74h127l12 133c13 144 108 201 206 201c33 0 79 -7 112 -21
c-5 -40 -19 -98 -32 -133c-23 2 -59 13 -75 23l7 54c-8 5 -19 7 -29 7c-37 0 -72 -34 -79 -117l-12 -147h156c3 -18 1 -56 -3 -74z" />
    <glyph glyph-name="perthousand.lf" horiz-adv-x="1311" 
d="M201 696c104 0 170 -62 170 -175c0 -120 -65 -185 -170 -185c-110 0 -170 61 -170 185c0 107 71 175 170 175zM729 682l-480 -715c-23 4 -63 25 -77 39l469 698c27 -1 66 -11 88 -22zM133 521c0 -73 24 -117 68 -117c45 0 68 43 68 117c0 62 -24 107 -68 107
s-68 -41 -68 -107zM690 340c104 0 170 -62 170 -175c0 -120 -65 -185 -170 -185c-110 0 -170 61 -170 185c0 107 71 175 170 175zM622 165c0 -73 24 -117 68 -117c45 0 68 43 68 117c0 62 -24 107 -68 107s-68 -41 -68 -107zM1110 340c104 0 170 -62 170 -175
c0 -120 -65 -185 -170 -185c-110 0 -170 61 -170 185c0 107 71 175 170 175zM1042 165c0 -73 24 -117 68 -117c45 0 68 43 68 117c0 62 -24 107 -68 107s-68 -41 -68 -107z" />
    <glyph glyph-name="Euro.lf" horiz-adv-x="622" 
d="M465 361h-441c0 19 5 52 10 71h54c39 166 174 264 330 264c71 0 134 -15 184 -38c0 -56 -5 -117 -14 -164c-29 0 -69 9 -94 25v81c-26 11 -55 16 -85 16c-93 0 -173 -64 -197 -184h250c4 -13 6 -51 3 -71zM465 219h-242c32 -96 104 -143 191 -143c55 0 132 16 186 35
c2 -23 -7 -63 -18 -82c-53 -28 -130 -49 -205 -49c-144 0 -252 98 -288 239h-65c0 19 5 52 10 71h428c4 -13 6 -51 3 -71z" />
    <glyph glyph-name="quotedbl.tosf" 
d="M161 393c-25 0 -56 4 -79 9c5 75 8 179 8 249c33 0 83 -5 112 -13c0 -62 -23 -183 -41 -245zM362 393c-25 0 -56 4 -79 9c5 75 8 179 8 249c33 0 83 -5 112 -13c0 -62 -23 -183 -41 -245z" />
    <glyph glyph-name="numbersign.tosf" 
d="M505 136h-82l-20 -134c-10 -2 -35 -4 -53 -4c-16 0 -36 2 -45 4l21 134h-123l-20 -134c-10 -2 -35 -4 -53 -4c-16 0 -36 2 -45 4l21 134h-76c0 19 8 51 14 69h75l24 143h-82c1 19 8 52 15 69h80l18 111c24 5 65 9 94 9l-19 -120h127l19 111c23 5 64 9 93 9l-19 -120h69
c1 -4 2 -16 2 -25c0 -16 -2 -32 -5 -44h-78l-21 -143h72c4 -17 2 -53 -3 -69zM235 348l-21 -143h127l23 143h-129z" />
    <glyph glyph-name="dollar.tosf" 
d="M358 411v59c-14 6 -40 12 -64 12c-54 0 -78 -25 -78 -62c0 -110 275 -73 275 -267c0 -102 -74 -155 -168 -169v-83c-9 -2 -30 -3 -47 -3c-16 0 -39 1 -50 3v81c-52 5 -101 18 -144 42c-4 13 -5 32 -5 50c0 32 5 68 12 87c35 0 75 -5 106 -16v-71c25 -14 58 -20 90 -20
c57 0 88 28 88 74c0 125 -276 76 -276 268c0 83 57 138 150 151v68c24 5 68 8 97 8v-75c45 -5 89 -17 126 -35c1 -7 2 -21 2 -32c0 -32 -6 -72 -12 -93c-35 0 -79 8 -102 23z" />
    <glyph glyph-name="percent.tosf" horiz-adv-x="900" 
d="M198 552c103 0 170 -54 170 -156c0 -107 -66 -164 -170 -164c-111 0 -170 54 -170 164c0 96 70 156 170 156zM127 396c0 -61 26 -98 71 -98c46 0 68 36 68 98c0 52 -24 90 -68 90c-46 0 -71 -35 -71 -90zM671 540l-356 -575c-23 5 -63 26 -76 39l343 556
c25 -1 65 -10 89 -20zM701 300c103 0 170 -54 170 -156c0 -107 -66 -164 -170 -164c-111 0 -170 54 -170 164c0 96 70 156 170 156zM630 144c0 -61 26 -98 71 -98c46 0 68 36 68 98c0 52 -24 90 -68 90c-46 0 -71 -35 -71 -90z" />
    <glyph glyph-name="quotesingle.tosf" horiz-adv-x="350" 
d="M162 393c-25 0 -56 4 -79 9c5 75 8 179 8 249c33 0 83 -5 112 -13c0 -62 -23 -183 -41 -245z" />
    <glyph glyph-name="comma.tosf" horiz-adv-x="350" 
d="M84 16l-50 11c7 26 23 63 39 80c15 4 32 5 48 5c30 0 64 -6 89 -14c-15 -88 -70 -218 -106 -277c-23 5 -52 21 -63 31c18 49 36 117 43 164z" />
    <glyph glyph-name="period.tosf" horiz-adv-x="350" 
d="M136 144c45 0 77 -27 77 -75c0 -53 -32 -81 -77 -81c-51 0 -78 27 -78 81c0 45 32 75 78 75z" />
    <glyph glyph-name="zero.tosf" 
d="M285 552c149 0 242 -97 242 -278c0 -192 -91 -294 -242 -294c-158 0 -243 97 -243 294c0 173 99 278 243 278zM166 274c0 -133 43 -215 119 -215c80 0 118 79 118 215c0 118 -43 200 -118 200c-79 0 -119 -76 -119 -200z" />
    <glyph glyph-name="one.tosf" 
d="M236 92v355l-145 -19c2 29 8 60 19 81c42 14 141 39 245 43v-463c32 -3 83 -11 114 -19c4 -13 6 -30 6 -45c0 -10 -1 -19 -2 -25h-361c3 21 13 49 22 67c25 9 71 20 102 25z" />
    <glyph glyph-name="two.tosf" 
d="M184 364c-24 -13 -64 -21 -95 -21c-8 28 -14 77 -14 110c0 15 1 37 3 49c51 26 119 50 203 50c111 0 198 -35 198 -131c0 -140 -184 -257 -266 -321v-9c91 2 192 6 284 16c2 -13 2 -23 2 -33c0 -26 -3 -55 -7 -74h-410l-15 83c81 75 285 206 285 318c0 47 -32 69 -82 69
c-33 0 -63 -9 -86 -21v-85z" />
    <glyph glyph-name="three.tosf" 
d="M174 456v-66c-22 -14 -65 -21 -96 -22c-8 29 -13 72 -13 101c0 13 1 34 3 49c59 22 137 34 200 34c104 0 206 -44 206 -149c0 -80 -58 -141 -122 -165v-7c72 -12 139 -54 139 -142c0 -130 -139 -204 -278 -204c-48 0 -109 9 -146 20c-11 17 -19 51 -19 72c0 5 0 11 1 16
c45 -14 109 -22 153 -22c79 0 160 28 160 109c0 67 -57 104 -203 104c-7 14 -10 35 -10 49c0 10 1 22 2 30c95 3 196 41 196 128c0 59 -46 80 -91 80c-26 0 -62 -7 -82 -15z" />
    <glyph glyph-name="four.tosf" 
d="M440 75v-169c-13 -3 -36 -5 -56 -5c-21 0 -46 2 -58 5v169h-276l-16 62c79 138 174 281 278 413l128 -19v-371h73c3 -14 5 -37 5 -56c0 -10 -1 -22 -2 -29h-76zM326 160v168c0 29 1 73 6 106h-9c-61 -79 -127 -186 -171 -268v-10c33 4 75 4 110 4h64z" />
    <glyph glyph-name="five.tosf" 
d="M120 532h370c0 -30 -5 -73 -14 -107c-87 5 -173 8 -260 10l-13 -155c22 4 55 7 80 7c117 0 205 -54 205 -172c0 -158 -134 -230 -271 -230c-51 0 -102 8 -137 18c-10 15 -17 47 -17 70c0 4 0 8 1 14c41 -10 100 -17 145 -17c81 0 154 46 154 137c0 71 -47 101 -130 101
c-37 0 -87 -5 -139 -16z" />
    <glyph glyph-name="six.tosf" 
d="M181 334h9c22 34 67 64 134 64c124 0 195 -87 195 -199c0 -131 -96 -219 -230 -219c-150 0 -233 110 -233 290c0 237 142 376 314 376c40 0 78 -8 113 -24c10 -21 17 -68 13 -92c-29 17 -84 30 -121 30c-88 0 -176 -70 -194 -226zM292 317c-45 0 -83 -21 -113 -53v-17
c0 -115 38 -189 112 -189c66 0 107 58 107 137c0 77 -39 122 -106 122z" />
    <glyph glyph-name="seven.tosf" 
d="M515 532l17 -78c-114 -181 -208 -367 -253 -546c-18 -4 -39 -6 -62 -6c-25 0 -51 3 -69 7c54 180 148 355 257 514v9h-230c-5 -24 -17 -66 -26 -86c-22 0 -67 8 -85 16l14 170h437z" />
    <glyph glyph-name="eight.tosf" 
d="M193 326v7c-55 21 -109 64 -109 147c0 117 110 166 215 166c99 0 203 -43 203 -154c0 -78 -53 -133 -110 -150v-7c64 -25 122 -73 122 -164c0 -126 -112 -191 -234 -191c-98 0 -223 41 -223 173c0 91 60 154 136 173zM260 295c-52 -24 -85 -63 -85 -126
c0 -83 56 -114 112 -114c52 0 110 26 110 101s-60 102 -137 139zM320 374c45 25 66 68 66 111c0 68 -53 92 -94 92c-36 0 -96 -18 -96 -82c0 -61 55 -89 124 -121z" />
    <glyph glyph-name="nine.tosf" 
d="M392 199h-9c-22 -36 -68 -64 -137 -64c-124 0 -193 91 -193 202c0 130 93 215 225 215c151 0 236 -111 236 -297c0 -231 -132 -370 -304 -370c-47 0 -99 10 -133 25c-14 22 -23 66 -19 89c40 -15 96 -24 140 -24c89 0 178 68 194 224zM278 216c47 0 88 25 114 60
c-1 130 -34 200 -114 200c-69 0 -105 -52 -105 -131c0 -77 35 -129 105 -129z" />
    <glyph glyph-name="colon.tosf" horiz-adv-x="350" 
d="M135 487c43 0 75 -28 75 -74c0 -50 -32 -79 -75 -79c-49 0 -76 28 -76 79c0 44 33 74 76 74zM135 142c44 0 76 -27 76 -75c0 -51 -32 -79 -76 -79c-50 0 -77 27 -77 79c0 45 32 75 77 75z" />
    <glyph glyph-name="semicolon.tosf" horiz-adv-x="350" 
d="M136 486c42 0 74 -27 74 -73c0 -50 -32 -79 -74 -79c-49 0 -77 28 -77 79c0 43 33 73 77 73zM84 16l-50 11c7 26 23 63 39 80c15 4 32 5 48 5c30 0 64 -6 89 -14c-15 -88 -70 -218 -106 -277c-23 5 -52 21 -63 31c18 49 36 117 43 164z" />
    <glyph glyph-name="cent.tosf" 
d="M390 363v67c-17 7 -35 11 -50 11c-83 0 -141 -49 -141 -158s58 -166 150 -166c45 0 100 13 140 28c2 -20 -8 -58 -19 -76c-27 -14 -64 -26 -106 -32v-85c-10 -2 -29 -4 -47 -4c-17 0 -37 2 -49 4v83c-120 16 -192 108 -192 230c0 127 82 224 208 245v67c23 5 67 8 96 8
v-73c42 -5 79 -19 110 -37c1 -11 2 -22 2 -33c0 -35 -7 -75 -17 -100c-25 0 -64 8 -85 21z" />
    <glyph glyph-name="sterling.tosf" 
d="M427 235h-168c1 -7 2 -19 2 -27c0 -53 -29 -102 -57 -124v-7h208c3 18 10 50 17 68c20 4 57 8 81 6v-151h-468c2 19 9 49 15 63c15 10 39 19 58 25c20 34 36 75 36 108c0 14 -1 27 -3 39h-82c0 19 5 53 11 71h60c-7 29 -12 59 -12 91c0 96 74 155 206 155
c55 0 104 -11 153 -29c2 -9 3 -22 3 -33c0 -36 -7 -79 -14 -101c-31 1 -66 11 -87 22v58c-18 7 -36 9 -54 9c-58 0 -91 -31 -91 -80c0 -36 4 -63 10 -92h174c3 -12 5 -51 2 -71z" />
    <glyph glyph-name="currency.tosf" 
d="M173 448c32 19 72 30 116 30c41 0 79 -10 110 -26l59 73c23 -6 51 -28 61 -43l-63 -76c29 -35 44 -80 44 -137c0 -62 -18 -111 -47 -148l66 -78c-9 -17 -35 -37 -60 -42l-61 75c-32 -18 -70 -26 -112 -26c-45 0 -83 9 -115 26l-61 -77c-24 7 -49 27 -60 44l67 80
c-26 33 -41 86 -41 143c0 55 14 99 42 135l-66 80c10 15 38 37 61 43zM177 267c0 -83 45 -142 112 -142s108 59 108 139c0 81 -42 138 -112 138c-68 0 -108 -56 -108 -135z" />
    <glyph glyph-name="yen.tosf" 
d="M487 121h-144v-39c25 -3 69 -12 89 -19c5 -16 7 -46 4 -63h-298c1 18 9 46 16 60c20 10 48 18 71 24v37h-149c0 16 5 45 10 61h139v16l-27 44h-122c0 16 5 45 10 61h73l-84 140c-18 5 -35 12 -49 20c-5 16 -9 48 -9 69h254c0 -24 -6 -53 -11 -73c-12 -5 -41 -12 -58 -15
c12 -10 26 -29 33 -43l39 -76c8 -14 18 -38 22 -55h10c5 17 14 40 23 55l43 76c7 12 22 34 33 44c-15 3 -37 10 -48 16c-6 19 -10 48 -10 71h210c0 -21 -9 -58 -16 -75c-11 -5 -32 -10 -47 -11l-89 -143h79c3 -11 5 -44 3 -61h-121l-23 -38v-22h141c3 -11 5 -44 3 -61z" />
    <glyph glyph-name="section.tosf" 
d="M169 52v-78c24 -15 55 -22 84 -22c66 0 102 28 102 77c0 109 -278 88 -278 295c0 62 25 111 62 147c-3 11 -4 23 -4 37c0 90 68 138 180 138c58 0 119 -15 170 -37c0 -37 -5 -85 -12 -122c-29 0 -69 8 -91 19v60c-17 8 -40 15 -66 15c-52 0 -81 -22 -81 -60
c0 -94 262 -75 262 -289c0 -52 -24 -100 -53 -133c6 -18 11 -38 11 -61c0 -109 -92 -153 -214 -153c-63 0 -125 15 -180 44c0 28 3 86 11 135c25 0 70 -5 97 -12zM170 342c0 -90 141 -107 222 -177c7 17 13 36 13 54c0 98 -149 109 -223 183c-9 -19 -12 -40 -12 -60z" />
    <glyph glyph-name="degree.tosf" horiz-adv-x="350" 
d="M162 646c85 0 145 -48 145 -134c0 -90 -60 -142 -147 -142c-94 0 -144 49 -144 142c0 81 63 134 146 134zM103 512c0 -44 23 -75 59 -75c37 0 57 29 57 75c0 39 -23 67 -57 67c-37 0 -59 -27 -59 -67z" />
    <glyph glyph-name="florin.tosf" 
d="M472 196h-142l-13 -157c-12 -148 -101 -201 -197 -201c-36 0 -78 7 -114 21c2 41 15 105 29 144c21 -3 62 -15 80 -23l-6 -65c5 -3 16 -6 25 -6c32 0 63 31 70 116l15 171h-120c1 21 9 56 16 74h112l7 81c13 146 102 201 195 201c34 0 76 -7 111 -21
c-4 -41 -17 -98 -32 -133c-23 1 -58 13 -74 23l7 54c-6 4 -17 7 -25 7c-34 0 -65 -32 -72 -117l-8 -95h139c3 -18 1 -56 -3 -74z" />
    <glyph glyph-name="uni2007.tosf" 
 />
    <glyph glyph-name="uni2008.tosf" horiz-adv-x="350" 
 />
    <glyph glyph-name="perthousand.tosf" horiz-adv-x="1300" 
d="M197 552c103 0 170 -54 170 -156c0 -107 -66 -164 -170 -164c-111 0 -170 54 -170 164c0 96 70 156 170 156zM126 396c0 -61 26 -98 71 -98c46 0 68 36 68 98c0 52 -24 90 -68 90c-46 0 -71 -35 -71 -90zM670 540l-356 -575c-23 5 -63 26 -76 39l343 556
c25 -1 65 -10 89 -20zM700 300c103 0 170 -54 170 -156c0 -107 -66 -164 -170 -164c-111 0 -170 54 -170 164c0 96 70 156 170 156zM629 144c0 -61 26 -98 71 -98c46 0 68 36 68 98c0 52 -24 90 -68 90c-46 0 -71 -35 -71 -90zM1104 300c103 0 170 -54 170 -156
c0 -107 -66 -164 -170 -164c-111 0 -170 54 -170 164c0 96 70 156 170 156zM1033 144c0 -61 26 -98 71 -98c46 0 68 36 68 98c0 52 -24 90 -68 90c-46 0 -71 -35 -71 -90z" />
    <glyph glyph-name="Euro.tosf" 
d="M408 281h-379c0 18 4 47 9 63h57c32 126 134 208 277 208c63 0 116 -15 162 -42c2 -12 3 -27 3 -39c0 -30 -5 -62 -14 -88c-29 0 -75 9 -99 21v58c-20 9 -40 13 -62 13c-70 0 -125 -42 -143 -131h187c3 -11 5 -46 2 -63zM39 223h368c3 -11 5 -46 2 -63h-178
c26 -63 77 -92 145 -92c44 0 108 11 152 29c2 -21 -8 -58 -18 -76c-45 -22 -106 -41 -170 -41c-119 0 -209 72 -241 180h-69c0 18 4 47 9 63z" />
    <glyph glyph-name="f_i.sc" horiz-adv-x="959" 
d="M257 293h120c4 12 11 27 20 37c16 7 42 11 63 12v-176c-22 -3 -53 0 -69 5c-5 12 -11 35 -12 48h-122v-135c23 -2 67 -11 87 -18c5 -16 7 -49 4 -66h-285c2 19 9 49 15 63c16 10 41 19 61 25v365c-21 1 -50 6 -67 11c-4 18 -5 52 -2 68h446v-147c-23 0 -56 3 -76 10
c-10 18 -18 40 -23 61h-160v-163zM820 453v-369c20 -2 58 -10 76 -17c2 -11 4 -28 4 -44c0 -9 0 -16 -1 -23h-273c2 19 9 49 15 63c16 10 41 19 61 25v365c-21 1 -50 6 -67 11c-4 18 -5 52 -2 68h260c2 -17 1 -52 -3 -69c-19 -5 -49 -9 -70 -10z" />
    <glyph glyph-name="f_l.sc" horiz-adv-x="1127" 
d="M257 293h120c4 12 11 27 20 37c16 7 42 11 63 12v-176c-22 -3 -53 0 -69 5c-5 12 -11 35 -12 48h-122v-135c23 -2 67 -11 87 -18c5 -16 7 -49 4 -66h-285c2 19 9 49 15 63c16 10 41 19 61 25v365c-21 1 -50 6 -67 11c-4 18 -5 52 -2 68h446v-147c-23 0 -56 3 -76 10
c-10 18 -18 40 -23 61h-160v-163zM820 74c50 0 117 2 166 9c2 21 10 56 18 78c18 4 56 7 78 4v-165h-456c2 19 9 49 15 63c16 10 41 19 61 25v365c-21 1 -50 6 -67 11c-4 18 -5 52 -2 68h285c2 -15 0 -51 -3 -69c-27 -5 -66 -9 -95 -10v-379z" />
    <glyph glyph-name="exclam.sc" horiz-adv-x="350" 
d="M242 543l-19 -352c-11 -3 -28 -4 -43 -4c-16 0 -32 1 -43 4l-30 343c25 8 62 12 97 12c13 0 28 -1 38 -3zM179 129c42 0 71 -25 71 -70c0 -48 -29 -75 -71 -75c-48 0 -73 26 -73 75c0 43 30 70 73 70z" />
    <glyph glyph-name="quotedbl.sc" horiz-adv-x="427" 
d="M138 282c-24 0 -53 4 -74 9c4 74 7 178 7 248c31 0 79 -5 107 -12c0 -63 -22 -184 -40 -245zM339 282c-24 0 -53 4 -74 9c4 74 7 178 7 248c31 0 79 -5 107 -12c0 -63 -22 -184 -40 -245z" />
    <glyph glyph-name="quotesingle.sc" horiz-adv-x="226" 
d="M138 282c-24 0 -53 4 -74 9c4 74 7 178 7 248c31 0 79 -5 107 -12c0 -63 -22 -184 -40 -245z" />
    <glyph glyph-name="parenleft.sc" horiz-adv-x="313" 
d="M178 -124c-87 139 -119 279 -119 387c0 103 25 231 92 355c23 11 78 17 107 17c-54 -108 -84 -244 -84 -364c0 -127 29 -254 88 -358c-20 -16 -56 -31 -84 -37z" />
    <glyph glyph-name="parenright.sc" horiz-adv-x="311" 
d="M147 -117c-30 5 -62 19 -84 35c63 101 90 221 90 347c0 118 -26 245 -78 348c23 13 64 22 94 22c72 -127 98 -255 98 -359c0 -108 -30 -254 -120 -393z" />
    <glyph glyph-name="slash.sc" horiz-adv-x="411" 
d="M378 560l-233 -612c-24 3 -75 20 -93 32l228 598c25 0 75 -9 98 -18z" />
    <glyph glyph-name="question.sc" horiz-adv-x="466" 
d="M178 171c-18 16 -34 52 -34 78c0 86 123 120 123 180c0 26 -18 44 -63 44c-16 0 -37 -3 -51 -9v-53c-23 -7 -69 -12 -96 -12c-8 34 -12 80 -12 123c42 13 128 25 185 25c110 0 173 -38 173 -103c0 -96 -143 -139 -143 -192c0 -16 7 -36 16 -49c-23 -15 -66 -29 -98 -32z
M222 129c42 0 72 -25 72 -70c0 -48 -30 -75 -72 -75c-47 0 -73 26 -73 75c0 43 30 70 73 70z" />
    <glyph glyph-name="at.sc" horiz-adv-x="692" 
d="M502 369l-27 -180c0 -5 3 -13 6 -18c76 11 111 85 111 150c0 114 -109 174 -216 174c-145 0 -247 -109 -247 -250c0 -131 88 -225 231 -225c54 0 114 13 158 35c10 -10 25 -38 30 -53c-56 -28 -130 -44 -198 -44c-183 0 -299 113 -299 281c0 183 138 319 328 319
c152 0 288 -88 288 -230c0 -106 -75 -220 -249 -229c-8 13 -15 29 -16 46h-7c-19 -30 -49 -46 -85 -46c-57 0 -99 39 -99 121c0 47 14 93 45 130c29 36 71 58 127 58c52 0 91 -18 119 -39zM386 198l22 143c-8 5 -20 7 -27 7c-23 0 -43 -17 -53 -35c-13 -23 -19 -59 -19 -87
c0 -41 13 -56 31 -56c17 0 34 11 46 28z" />
    <glyph glyph-name="bracketleft.sc" horiz-adv-x="327" 
d="M97 -109v746h179c2 -16 0 -57 -4 -74c-19 -4 -45 -7 -64 -8v-582c24 -1 61 -6 78 -11c3 -10 4 -24 4 -39c0 -11 -1 -24 -3 -32h-190z" />
    <glyph glyph-name="backslash.sc" horiz-adv-x="401" 
d="M131 603l238 -623c-19 -12 -66 -29 -93 -33l-229 609c16 15 59 40 84 47z" />
    <glyph glyph-name="bracketright.sc" horiz-adv-x="327" 
d="M236 637v-746h-187c-2 11 -3 20 -3 29c0 14 1 29 5 43c16 4 54 9 75 10v581c-21 2 -44 5 -63 9c-3 16 -4 59 0 74h173z" />
    <glyph glyph-name="a.sc" horiz-adv-x="683" 
d="M433 162h-204l-12 -29c-6 -15 -18 -38 -27 -50c17 -2 47 -9 60 -15c7 -15 13 -47 13 -68h-235c1 22 6 46 13 61c15 11 40 22 57 27l196 449l102 12l200 -470c14 -1 35 -5 48 -9c7 -18 15 -47 17 -70h-261c2 20 11 50 20 66c14 6 41 13 55 15c-12 12 -24 37 -30 52z
M338 437h-10c-3 -22 -17 -63 -26 -86l-47 -119h151l-46 120c-8 22 -20 62 -22 85z" />
    <glyph glyph-name="b.sc" horiz-adv-x="635" 
d="M139 89v365c-19 1 -51 5 -67 9c-4 16 -5 54 -1 69c68 4 163 7 234 7c144 0 243 -41 243 -140c0 -55 -32 -98 -91 -112v-7c72 -14 120 -56 120 -119c0 -119 -112 -166 -248 -166c-86 0 -190 2 -265 6c1 17 8 51 15 64c18 11 41 20 60 24zM257 241v-167c21 -2 43 -3 66 -3
c85 0 131 24 131 85c0 58 -55 85 -129 85h-68zM257 464v-150h64c68 0 106 22 106 79c0 49 -50 72 -122 72c-13 0 -36 0 -48 -1z" />
    <glyph glyph-name="c.sc" horiz-adv-x="587" 
d="M411 381v77c-21 9 -43 12 -65 12c-91 0 -159 -60 -159 -199c0 -138 65 -197 169 -197c46 0 114 11 159 28c3 -22 -7 -61 -20 -81c-42 -22 -109 -41 -173 -41c-157 0 -262 117 -262 275c0 172 117 292 295 292c64 0 119 -15 166 -42c2 -13 3 -26 3 -40
c0 -36 -7 -77 -17 -104c-28 0 -73 10 -96 20z" />
    <glyph glyph-name="d.sc" horiz-adv-x="666" 
d="M139 89v361c-19 1 -51 5 -68 8c-3 17 -4 55 -1 69c72 7 177 12 246 12c180 0 305 -84 305 -258c0 -200 -133 -285 -288 -285c-75 0 -194 2 -270 5c2 17 9 51 15 64c19 11 42 20 61 24zM257 460v-383c19 -2 44 -3 65 -3c114 0 176 60 176 196c0 131 -79 193 -190 193
c-14 0 -39 -1 -51 -3z" />
    <glyph glyph-name="e.sc" horiz-adv-x="600" 
d="M257 77h182c2 17 10 49 17 66c20 4 56 8 80 6v-149h-473c2 19 9 49 15 63c16 10 41 19 61 25v365c-21 1 -49 6 -67 11c-4 18 -5 52 -2 68h454v-144c-23 0 -56 4 -77 10c-9 17 -17 38 -22 58h-168v-149h125c5 12 12 26 20 36c17 6 42 10 64 11v-168c-23 -2 -53 0 -70 5
c-5 11 -10 31 -12 43h-127v-157z" />
    <glyph glyph-name="f.sc" horiz-adv-x="563" 
d="M257 293h120c4 12 11 27 20 37c16 7 42 11 63 12v-176c-22 -3 -53 0 -69 5c-5 12 -11 35 -12 48h-122v-135c23 -2 67 -11 87 -18c5 -16 7 -49 4 -66h-285c2 19 9 49 15 63c16 10 41 19 61 25v365c-21 1 -50 6 -67 11c-4 18 -5 52 -2 68h446v-147c-23 0 -56 3 -76 10
c-10 18 -18 40 -23 61h-160v-163z" />
    <glyph glyph-name="g.sc" horiz-adv-x="657" 
d="M444 389v67c-25 11 -50 16 -80 16c-103 0 -176 -61 -176 -205c0 -147 68 -205 163 -205c26 0 60 3 87 7v119c-29 3 -74 11 -97 19c-5 16 -10 48 -10 65h286c-1 -19 -11 -48 -17 -63c-15 -8 -34 -15 -50 -19v-172c-49 -18 -144 -38 -228 -38c-161 0 -260 108 -260 269
c0 177 121 298 306 298c72 0 136 -17 185 -47c1 -9 2 -25 2 -34c0 -35 -6 -72 -14 -97c-28 1 -74 11 -97 20z" />
    <glyph glyph-name="h.sc" horiz-adv-x="744" 
d="M605 453v-369c21 -2 59 -10 77 -17c2 -11 4 -28 4 -44c0 -9 0 -16 -1 -23h-261c2 20 8 48 13 63c16 10 37 19 54 24v145h-238v-148c18 -2 53 -10 69 -17c4 -17 6 -50 3 -67h-262c2 19 9 49 15 63c16 10 41 19 61 25v365c-21 1 -50 6 -67 11c-4 18 -5 52 -2 68h249
c2 -15 1 -52 -3 -69c-16 -5 -42 -9 -63 -10v-146h238v146c-18 1 -43 6 -58 11c-4 18 -5 52 -2 68h247c2 -17 1 -52 -3 -69c-19 -5 -48 -9 -70 -10z" />
    <glyph glyph-name="i.sc" horiz-adv-x="396" 
d="M257 453v-369c20 -2 58 -10 76 -17c2 -11 4 -28 4 -44c0 -9 0 -16 -1 -23h-273c2 19 9 49 15 63c16 10 41 19 61 25v365c-21 1 -50 6 -67 11c-4 18 -5 52 -2 68h260c2 -17 1 -52 -3 -69c-19 -5 -49 -9 -70 -10z" />
    <glyph glyph-name="j.sc" horiz-adv-x="382" 
d="M27 -82c96 51 129 136 129 240v293c-29 2 -67 8 -89 14c-4 18 -5 51 -2 67h279c1 -7 1 -16 1 -22c0 -18 -2 -36 -4 -47c-18 -5 -47 -9 -67 -11v-274c0 -158 -68 -270 -213 -324c-14 13 -29 42 -34 64z" />
    <glyph glyph-name="k.sc" horiz-adv-x="677" 
d="M257 307h62l83 102c10 13 30 33 45 42c-17 3 -38 9 -51 15c-7 18 -11 47 -11 66h236c0 -19 -8 -54 -14 -71c-13 -5 -38 -10 -54 -12l-151 -170c79 -99 171 -196 191 -206l58 4c1 -6 1 -14 1 -17c0 -20 -8 -48 -17 -65c-29 -7 -66 -12 -101 -14c-44 20 -132 123 -231 254
h-46v-152c19 -2 54 -10 72 -17c3 -17 5 -49 3 -66h-269c2 19 9 49 15 63c16 10 41 19 61 25v365c-21 1 -50 6 -67 11c-4 18 -5 52 -2 68h249c2 -15 0 -52 -3 -70c-15 -4 -41 -8 -59 -9v-146z" />
    <glyph glyph-name="l.sc" horiz-adv-x="564" 
d="M257 74c50 0 117 2 166 9c2 21 10 56 18 78c18 4 56 7 78 4v-165h-456c2 19 9 49 15 63c16 10 41 19 61 25v365c-21 1 -50 6 -67 11c-4 18 -5 52 -2 68h285c2 -15 0 -51 -3 -69c-27 -5 -66 -9 -95 -10v-379z" />
    <glyph glyph-name="m.sc" horiz-adv-x="930" 
d="M389 -14l-97 310c-10 31 -21 89 -24 122h-10l-51 -334c19 -2 51 -10 67 -16c4 -17 6 -51 3 -68h-233c1 17 11 52 18 65c15 10 39 19 56 23l63 364c-21 1 -49 4 -67 8c-3 18 -4 55 0 72h222l103 -325c8 -24 18 -70 21 -100h9c4 30 14 77 21 99l105 326h231
c2 -15 0 -55 -4 -72c-21 -4 -52 -7 -77 -8l65 -368c19 -2 51 -9 68 -17c4 -12 6 -32 6 -45c0 -8 0 -16 -1 -22h-258c1 18 8 51 16 67c14 9 35 16 53 21l-55 330h-9c-5 -37 -17 -92 -27 -122l-96 -300z" />
    <glyph glyph-name="n.sc" horiz-adv-x="714" 
d="M279 532l179 -288c19 -31 48 -89 55 -124h9v333c-26 1 -64 6 -82 11c-5 18 -6 52 -3 68h235c2 -9 2 -18 2 -24c0 -18 -2 -34 -5 -46c-16 -4 -41 -8 -60 -9v-452l-124 -14l-200 330c-14 23 -41 74 -51 104h-9v-337c21 -2 57 -10 75 -17c4 -17 6 -50 3 -67h-246
c2 19 9 49 16 63c16 10 40 19 61 25v365c-22 1 -52 6 -68 11c-4 18 -5 52 -2 68h215z" />
    <glyph glyph-name="o.sc" horiz-adv-x="680" 
d="M342 547c166 0 277 -98 277 -277c0 -184 -109 -290 -277 -290c-181 0 -281 100 -281 290c0 172 121 277 281 277zM184 270c0 -128 59 -212 158 -212c102 0 154 81 154 212c0 115 -62 200 -154 200c-102 0 -158 -79 -158 -200z" />
    <glyph glyph-name="p.sc" horiz-adv-x="578" 
d="M139 88v365c-21 1 -48 4 -67 8c-3 17 -4 55 0 70c62 5 166 9 232 9c151 0 242 -43 242 -163c0 -124 -104 -176 -214 -176c-23 0 -54 2 -75 4v-120c25 -3 71 -12 91 -19c5 -16 7 -49 4 -66h-289c2 19 9 49 15 63c16 10 41 19 61 25zM255 461v-181c20 -2 48 -3 70 -3
c63 0 98 25 98 93c0 59 -45 94 -113 94c-15 0 -40 -1 -55 -3z" />
    <glyph glyph-name="q.sc" horiz-adv-x="683" 
d="M498 25v-7c56 -35 117 -65 141 -65l85 15c1 -6 1 -14 1 -17c0 -25 -7 -57 -16 -75c-22 -13 -58 -22 -76 -22c-48 0 -173 75 -243 130c-16 -2 -33 -4 -51 -4c-182 0 -283 101 -283 290c0 172 122 277 283 277c167 0 279 -98 279 -276c0 -119 -47 -208 -120 -246zM181 270
c0 -128 59 -213 158 -213c102 0 154 82 154 213c0 115 -62 201 -154 201c-102 0 -158 -80 -158 -201z" />
    <glyph glyph-name="r.sc" horiz-adv-x="634" 
d="M72 531c62 6 163 9 228 9c150 0 245 -44 245 -156c0 -77 -49 -126 -111 -149c48 -82 100 -160 114 -167l54 5c1 -5 1 -10 1 -13c0 -19 -7 -47 -16 -64c-30 -8 -73 -13 -109 -16c-31 17 -81 107 -144 238c-24 0 -54 2 -78 5v-140c19 -2 51 -9 67 -17c4 -15 6 -49 3 -66
h-263c2 19 9 49 15 63c16 10 41 19 61 25v365c-20 1 -48 4 -67 8c-3 17 -4 55 0 70zM255 460v-167c22 -2 49 -3 70 -3c64 0 97 24 97 88c0 56 -47 84 -116 84c-13 0 -38 0 -51 -2z" />
    <glyph glyph-name="s.sc" horiz-adv-x="544" 
d="M351 410v58c-17 9 -42 14 -65 14c-49 0 -74 -25 -74 -61c0 -113 271 -70 271 -268c0 -119 -99 -173 -218 -173c-68 0 -132 14 -188 44c-3 16 -4 33 -4 50c0 29 4 58 12 87c33 0 75 -5 105 -16v-70c25 -14 58 -20 89 -20c55 0 85 27 85 72c0 128 -271 74 -271 270
c0 96 77 155 193 155c61 0 126 -14 177 -40c1 -7 2 -21 2 -32c0 -32 -6 -71 -13 -93c-34 0 -78 10 -101 23z" />
    <glyph glyph-name="t.sc" horiz-adv-x="606" 
d="M464 458h-103v-374c24 -2 69 -11 89 -18c4 -17 6 -49 4 -66h-299c2 18 11 48 18 62c19 10 47 19 70 24v372h-101c-2 -20 -10 -56 -19 -77c-19 -8 -56 -14 -81 -14v165h521v-164c-25 0 -60 6 -78 14c-9 19 -18 53 -21 76z" />
    <glyph glyph-name="u.sc" horiz-adv-x="689" 
d="M582 453v-242c0 -139 -84 -231 -246 -231c-155 0 -223 83 -223 228v241c-20 3 -45 8 -62 14c-5 18 -8 50 -8 69h273c3 -17 1 -50 -3 -68c-22 -5 -58 -10 -83 -11v-240c0 -96 33 -150 122 -150c93 0 134 58 134 139v251c-21 1 -52 6 -69 11c-3 17 -5 52 -1 68h234
c1 -7 1 -16 1 -22c0 -18 -2 -36 -4 -47c-17 -5 -45 -9 -65 -10z" />
    <glyph glyph-name="v.sc" horiz-adv-x="632" 
d="M331 95h10c3 25 14 66 23 90l61 166c10 28 28 69 44 93c-19 4 -45 11 -58 17c-7 20 -11 48 -11 71h219c0 -21 -9 -57 -16 -76c-11 -4 -34 -9 -48 -11l-182 -449l-110 -13l-176 458c-17 5 -40 14 -51 23c-6 16 -11 47 -11 68h265c0 -24 -6 -53 -13 -73
c-15 -6 -51 -13 -72 -15c17 -26 32 -58 43 -90l62 -172c8 -21 18 -62 21 -87z" />
    <glyph glyph-name="w.sc" horiz-adv-x="902" 
d="M202 444c11 -22 24 -55 31 -83l41 -174c7 -28 16 -72 18 -101h9c3 29 11 74 18 103l86 339l131 13l80 -354c7 -31 14 -71 16 -101h10c2 30 11 71 19 101l43 171c6 22 20 63 32 86c-17 4 -41 11 -53 17c-7 20 -11 48 -11 71h209c0 -21 -8 -57 -15 -76
c-11 -4 -32 -9 -46 -10l-138 -450l-122 -13l-81 347c-8 32 -14 79 -16 107h-9c-2 -28 -9 -76 -17 -106l-85 -335l-130 -13l-130 458c-17 4 -38 14 -49 23c-5 16 -10 47 -10 68h245c0 -24 -6 -53 -12 -72c-14 -6 -46 -13 -64 -16z" />
    <glyph glyph-name="x.sc" horiz-adv-x="684" 
d="M371 331l53 72c9 13 25 33 37 44c-16 3 -35 9 -46 15c-5 18 -8 48 -9 70h216c0 -22 -9 -55 -17 -72c-12 -5 -36 -11 -51 -12l-135 -174l154 -191c16 -2 43 -8 57 -13c7 -15 16 -50 16 -70h-262c1 20 8 48 15 67c12 6 35 13 47 16c-15 10 -32 27 -43 41l-73 91l-67 -90
c-8 -11 -24 -31 -37 -42c17 -2 43 -8 57 -14c5 -17 10 -48 10 -69h-251c1 17 10 50 19 64c15 9 41 17 59 21l158 193l-135 165c-19 4 -43 11 -56 17c-9 18 -15 51 -15 72h252c0 -22 -5 -53 -10 -72c-10 -5 -30 -10 -45 -13c14 -10 33 -29 42 -41z" />
    <glyph glyph-name="y.sc" horiz-adv-x="600" 
d="M361 204v-120c25 -2 69 -11 89 -18c5 -17 7 -49 4 -66h-299c1 18 10 48 17 62c19 10 47 19 71 24v113l-155 244c-18 5 -36 12 -49 20c-6 16 -10 48 -10 69h258c0 -24 -6 -53 -11 -73c-13 -5 -43 -12 -60 -15c12 -10 26 -28 34 -43l41 -76c8 -14 19 -39 23 -55h10
c5 17 15 40 24 55l45 76c8 14 23 34 35 44c-16 3 -39 10 -51 16c-6 19 -10 48 -10 71h214c0 -21 -9 -58 -16 -75c-11 -5 -33 -10 -48 -11z" />
    <glyph glyph-name="z.sc" horiz-adv-x="575" 
d="M72 0l-11 58l293 388v10h-178c-4 -22 -14 -57 -23 -77c-25 0 -67 9 -86 17v136h428l11 -62l-293 -387v-9c65 0 142 4 202 12c3 21 11 54 18 74c21 6 71 8 95 5l-12 -165h-444z" />
    <glyph glyph-name="braceleft.sc" horiz-adv-x="342" 
d="M48 234c0 27 8 62 13 75c57 4 63 34 63 84v111c0 78 37 136 182 140c0 -20 -7 -61 -16 -80c-40 -4 -55 -24 -55 -70v-108c0 -64 -26 -97 -74 -111v-7c48 -14 74 -47 74 -118v-105c0 -62 21 -88 65 -92c4 -22 1 -59 -5 -74c-131 4 -171 61 -171 144v106
c0 65 -9 99 -76 105z" />
    <glyph glyph-name="bar.sc" horiz-adv-x="318" 
d="M204 562v-600c-8 -3 -28 -4 -44 -4c-15 0 -36 1 -46 4v593c25 4 62 7 90 7z" />
    <glyph glyph-name="braceright.sc" horiz-adv-x="342" 
d="M189 268v7c-46 13 -73 42 -73 107v108c0 52 -19 74 -71 78c0 20 9 61 19 76c129 -8 162 -68 162 -134v-113c0 -48 6 -84 70 -88c5 -17 9 -53 9 -75c-61 -5 -79 -30 -79 -94v-108c0 -88 -34 -149 -171 -153c-6 17 -9 55 -5 73c41 2 66 29 66 84v106c0 76 23 113 73 126z
" />
    <glyph glyph-name="exclamdown.sc" horiz-adv-x="350" 
d="M109 -8l19 343c19 7 59 12 86 9l30 -352c-21 -5 -42 -7 -66 -7s-47 2 -69 7zM173 546c42 0 72 -25 72 -70c0 -49 -30 -75 -72 -75c-47 0 -73 26 -73 75c0 43 30 70 73 70z" />
    <glyph glyph-name="brokenbar.sc" horiz-adv-x="318" 
d="M205 562v-215c-9 -3 -29 -4 -46 -4c-15 0 -36 1 -46 4v208c24 4 63 7 92 7zM205 185v-223c-9 -2 -29 -4 -46 -4c-15 0 -36 2 -46 4v215c24 5 63 8 92 8z" />
    <glyph glyph-name="cedilla.sc" horiz-adv-x="369" 
d="M113 -86l40 95c19 5 53 7 78 7l-15 -74c33 -7 67 -35 67 -76c0 -62 -69 -106 -136 -112c-19 13 -35 33 -46 51c38 8 69 30 69 59c0 28 -25 43 -57 50z" />
    <glyph glyph-name="questiondown.sc" horiz-adv-x="494" 
d="M314 359c17 -17 34 -53 34 -79c0 -86 -123 -122 -123 -182c0 -25 17 -44 63 -44c16 0 37 3 51 9v54c22 7 69 12 96 12c8 -34 12 -80 12 -124c-42 -13 -128 -25 -185 -25c-110 0 -173 38 -173 103c0 97 143 141 143 193c0 16 -7 37 -16 51c23 14 66 29 98 32zM272 546
c42 0 72 -25 72 -70c0 -48 -30 -75 -72 -75c-47 0 -73 26 -73 75c0 43 30 70 73 70z" />
    <glyph glyph-name="germandbls.sc" horiz-adv-x="1088" 
d="M351 410v58c-17 9 -42 14 -65 14c-49 0 -74 -25 -74 -61c0 -113 271 -70 271 -268c0 -119 -99 -173 -218 -173c-68 0 -132 14 -188 44c-3 16 -4 33 -4 50c0 29 4 58 12 87c33 0 75 -5 105 -16v-70c25 -14 58 -20 89 -20c55 0 85 27 85 72c0 128 -271 74 -271 270
c0 96 77 155 193 155c61 0 126 -14 177 -40c1 -7 2 -21 2 -32c0 -32 -6 -71 -13 -93c-34 0 -78 10 -101 23zM895 410v58c-17 9 -42 14 -65 14c-49 0 -74 -25 -74 -61c0 -113 271 -70 271 -268c0 -119 -99 -173 -218 -173c-68 0 -132 14 -188 44c-3 16 -4 33 -4 50
c0 29 4 58 12 87c33 0 75 -5 105 -16v-70c25 -14 58 -20 89 -20c55 0 85 27 85 72c0 128 -271 74 -271 270c0 96 77 155 193 155c61 0 126 -14 177 -40c1 -7 2 -21 2 -32c0 -32 -6 -71 -13 -93c-34 0 -78 10 -101 23z" />
    <glyph glyph-name="agrave.sc" horiz-adv-x="683" 
d="M433 162h-204l-12 -29c-6 -15 -18 -38 -27 -50c17 -2 47 -9 60 -15c7 -15 13 -47 13 -68h-235c1 22 6 46 13 61c15 11 40 22 57 27l196 449l102 12l200 -470c14 -1 35 -5 48 -9c7 -18 15 -47 17 -70h-261c2 20 11 50 20 66c14 6 41 13 55 15c-12 12 -24 37 -30 52z
M338 437h-10c-3 -22 -17 -63 -26 -86l-47 -119h151l-46 120c-8 22 -20 62 -22 85zM349 589l-168 155c24 18 91 34 125 34l124 -161c-16 -13 -58 -27 -81 -28z" />
    <glyph glyph-name="aacute.sc" horiz-adv-x="683" 
d="M433 162h-204l-12 -29c-6 -15 -18 -38 -27 -50c17 -2 47 -9 60 -15c7 -15 13 -47 13 -68h-235c1 22 6 46 13 61c15 11 40 22 57 27l196 449l102 12l200 -470c14 -1 35 -5 48 -9c7 -18 15 -47 17 -70h-261c2 20 11 50 20 66c14 6 41 13 55 15c-12 12 -24 37 -30 52z
M338 437h-10c-3 -22 -17 -63 -26 -86l-47 -119h151l-46 120c-8 22 -20 62 -22 85zM489 740l-168 -162c-22 9 -50 34 -61 50l125 158c27 -2 83 -27 104 -46z" />
    <glyph glyph-name="acircumflex.sc" horiz-adv-x="683" 
d="M433 162h-204l-12 -29c-6 -15 -18 -38 -27 -50c17 -2 47 -9 60 -15c7 -15 13 -47 13 -68h-235c1 22 6 46 13 61c15 11 40 22 57 27l196 449l102 12l200 -470c14 -1 35 -5 48 -9c7 -18 15 -47 17 -70h-261c2 20 11 50 20 66c14 6 41 13 55 15c-12 12 -24 37 -30 52z
M338 437h-10c-3 -22 -17 -63 -26 -86l-47 -119h151l-46 120c-8 22 -20 62 -22 85zM290 767l101 5l144 -144c-10 -18 -39 -48 -61 -56l-138 109l-131 -108c-19 14 -38 45 -44 68z" />
    <glyph glyph-name="atilde.sc" horiz-adv-x="683" 
d="M433 162h-204l-12 -29c-6 -15 -18 -38 -27 -50c17 -2 47 -9 60 -15c7 -15 13 -47 13 -68h-235c1 22 6 46 13 61c15 11 40 22 57 27l196 449l102 12l200 -470c14 -1 35 -5 48 -9c7 -18 15 -47 17 -70h-261c2 20 11 50 20 66c14 6 41 13 55 15c-12 12 -24 37 -30 52z
M338 437h-10c-3 -22 -17 -63 -26 -86l-47 -119h151l-46 120c-8 22 -20 62 -22 85zM468 734c22 0 41 -3 62 -13c-2 -58 -39 -121 -123 -121c-59 0 -92 43 -145 43c-27 0 -45 -19 -50 -39c-23 1 -46 15 -59 31c10 56 47 102 122 102c67 0 91 -42 144 -42c26 0 44 17 49 39z
" />
    <glyph glyph-name="adieresis.sc" horiz-adv-x="683" 
d="M433 162h-204l-12 -29c-6 -15 -18 -38 -27 -50c17 -2 47 -9 60 -15c7 -15 13 -47 13 -68h-235c1 22 6 46 13 61c15 11 40 22 57 27l196 449l102 12l200 -470c14 -1 35 -5 48 -9c7 -18 15 -47 17 -70h-261c2 20 11 50 20 66c14 6 41 13 55 15c-12 12 -24 37 -30 52z
M338 437h-10c-3 -22 -17 -63 -26 -86l-47 -119h151l-46 120c-8 22 -20 62 -22 85zM220 734c39 0 68 -22 68 -64c0 -45 -29 -69 -68 -69c-46 0 -68 23 -68 69c0 39 27 64 68 64zM463 734c39 0 68 -22 68 -64c0 -45 -29 -69 -68 -69c-46 0 -68 23 -68 69c0 39 27 64 68 64z
" />
    <glyph glyph-name="aring.sc" horiz-adv-x="683" 
d="M346 745c75 0 124 -38 124 -110c0 -52 -26 -87 -67 -103l193 -453c14 -1 35 -5 48 -9c7 -18 15 -47 17 -70h-261c2 20 11 50 20 66c14 6 41 13 55 15c-12 12 -24 37 -30 52l-12 29h-204l-12 -29c-6 -15 -18 -38 -27 -50c17 -2 47 -9 60 -15c7 -15 13 -47 13 -68h-235
c1 22 6 46 13 61c15 11 40 22 57 27l193 442c-46 14 -72 49 -72 102c0 70 48 113 127 113zM338 437h-10c-3 -22 -17 -63 -26 -86l-47 -119h151l-46 120c-8 22 -20 62 -22 85zM346 688c-32 0 -55 -20 -55 -54s22 -54 54 -54c30 0 53 19 53 55s-21 53 -52 53z" />
    <glyph glyph-name="ae.sc" horiz-adv-x="866" 
d="M334 0c2 19 9 49 15 63c15 10 40 19 59 25v84h-165l-21 -36c-10 -17 -28 -39 -42 -53c17 -2 42 -8 57 -14c8 -17 13 -48 14 -69h-234c1 22 6 46 13 61c15 11 38 22 55 27l222 364c-25 2 -56 7 -76 12c-5 18 -6 52 -3 68h563v-144c-23 0 -56 4 -77 10c-9 17 -17 38 -22 58
h-166v-151h121c5 12 12 26 20 36c17 6 42 10 64 11v-168c-23 -2 -53 0 -70 5c-5 11 -10 31 -12 43h-123v-155h179c2 17 10 49 17 66c20 4 56 8 80 6v-149h-468zM408 456h-9c-7 -19 -21 -50 -32 -69l-83 -144h124v213z" />
    <glyph glyph-name="ccedilla.sc" horiz-adv-x="587" 
d="M255 -86l29 69c-136 17 -224 127 -224 272c0 172 117 292 295 292c64 0 119 -15 166 -42c2 -13 3 -26 3 -40c0 -36 -7 -77 -17 -104c-28 0 -73 10 -96 20v77c-21 9 -43 12 -65 12c-91 0 -159 -60 -159 -199c0 -138 65 -197 169 -197c46 0 114 11 159 28
c3 -22 -7 -61 -20 -81c-33 -17 -80 -32 -129 -38l-8 -41c33 -7 67 -35 67 -76c0 -62 -69 -106 -136 -112c-19 13 -35 33 -46 51c38 8 69 30 69 59c0 28 -25 43 -57 50z" />
    <glyph glyph-name="egrave.sc" horiz-adv-x="600" 
d="M257 77h182c2 17 10 49 17 66c20 4 56 8 80 6v-149h-473c2 19 9 49 15 63c16 10 41 19 61 25v365c-21 1 -49 6 -67 11c-4 18 -5 52 -2 68h454v-144c-23 0 -56 4 -77 10c-9 17 -17 38 -22 58h-168v-149h125c5 12 12 26 20 36c17 6 42 10 64 11v-168c-23 -2 -53 0 -70 5
c-5 11 -10 31 -12 43h-127v-157zM341 589l-168 155c24 18 91 34 125 34l124 -161c-16 -13 -58 -27 -81 -28z" />
    <glyph glyph-name="eacute.sc" horiz-adv-x="600" 
d="M257 77h182c2 17 10 49 17 66c20 4 56 8 80 6v-149h-473c2 19 9 49 15 63c16 10 41 19 61 25v365c-21 1 -49 6 -67 11c-4 18 -5 52 -2 68h454v-144c-23 0 -56 4 -77 10c-9 17 -17 38 -22 58h-168v-149h125c5 12 12 26 20 36c17 6 42 10 64 11v-168c-23 -2 -53 0 -70 5
c-5 11 -10 31 -12 43h-127v-157zM471 740l-168 -162c-22 9 -50 34 -61 50l125 158c27 -2 83 -27 104 -46z" />
    <glyph glyph-name="ecircumflex.sc" horiz-adv-x="600" 
d="M257 77h182c2 17 10 49 17 66c20 4 56 8 80 6v-149h-473c2 19 9 49 15 63c16 10 41 19 61 25v365c-21 1 -49 6 -67 11c-4 18 -5 52 -2 68h454v-144c-23 0 -56 4 -77 10c-9 17 -17 38 -22 58h-168v-149h125c5 12 12 26 20 36c17 6 42 10 64 11v-168c-23 -2 -53 0 -70 5
c-5 11 -10 31 -12 43h-127v-157zM270 767l101 5l144 -144c-10 -18 -39 -48 -61 -56l-138 109l-131 -108c-19 14 -38 45 -44 68z" />
    <glyph glyph-name="edieresis.sc" horiz-adv-x="600" 
d="M257 77h182c2 17 10 49 17 66c20 4 56 8 80 6v-149h-473c2 19 9 49 15 63c16 10 41 19 61 25v365c-21 1 -49 6 -67 11c-4 18 -5 52 -2 68h454v-144c-23 0 -56 4 -77 10c-9 17 -17 38 -22 58h-168v-149h125c5 12 12 26 20 36c17 6 42 10 64 11v-168c-23 -2 -53 0 -70 5
c-5 11 -10 31 -12 43h-127v-157zM195 734c39 0 68 -22 68 -64c0 -45 -29 -69 -68 -69c-46 0 -68 23 -68 69c0 39 27 64 68 64zM438 734c39 0 68 -22 68 -64c0 -45 -29 -69 -68 -69c-46 0 -68 23 -68 69c0 39 27 64 68 64z" />
    <glyph glyph-name="igrave.sc" horiz-adv-x="396" 
d="M257 453v-369c20 -2 58 -10 76 -17c2 -11 4 -28 4 -44c0 -9 0 -16 -1 -23h-273c2 19 9 49 15 63c16 10 41 19 61 25v365c-21 1 -50 6 -67 11c-4 18 -5 52 -2 68h260c2 -17 1 -52 -3 -69c-19 -5 -49 -9 -70 -10zM212 589l-168 155c24 18 91 34 125 34l124 -161
c-16 -13 -58 -27 -81 -28z" />
    <glyph glyph-name="iacute.sc" horiz-adv-x="396" 
d="M257 453v-369c20 -2 58 -10 76 -17c2 -11 4 -28 4 -44c0 -9 0 -16 -1 -23h-273c2 19 9 49 15 63c16 10 41 19 61 25v365c-21 1 -50 6 -67 11c-4 18 -5 52 -2 68h260c2 -17 1 -52 -3 -69c-19 -5 -49 -9 -70 -10zM349 740l-168 -162c-22 9 -50 34 -61 50l125 158
c27 -2 83 -27 104 -46z" />
    <glyph glyph-name="icircumflex.sc" horiz-adv-x="396" 
d="M257 453v-369c20 -2 58 -10 76 -17c2 -11 4 -28 4 -44c0 -9 0 -16 -1 -23h-273c2 19 9 49 15 63c16 10 41 19 61 25v365c-21 1 -50 6 -67 11c-4 18 -5 52 -2 68h260c2 -17 1 -52 -3 -69c-19 -5 -49 -9 -70 -10zM149 767l101 5l144 -144c-10 -18 -39 -48 -61 -56l-138 109
l-131 -108c-19 14 -38 45 -44 68z" />
    <glyph glyph-name="idieresis.sc" horiz-adv-x="396" 
d="M91 734c39 0 68 -22 68 -64c0 -45 -29 -69 -68 -69c-46 0 -68 23 -68 69c0 39 27 64 68 64zM310 734c39 0 68 -22 68 -64c0 -45 -29 -69 -68 -69c-46 0 -68 23 -68 69c0 39 27 64 68 64zM257 453v-369c20 -2 58 -10 76 -17c2 -11 4 -28 4 -44c0 -9 0 -16 -1 -23h-273
c2 19 9 49 15 63c16 10 41 19 61 25v365c-21 1 -50 6 -67 11c-4 18 -5 52 -2 68h260c2 -17 1 -52 -3 -69c-19 -5 -49 -9 -70 -10z" />
    <glyph glyph-name="eth.sc" horiz-adv-x="675" 
d="M147 89v146h-73c0 20 5 53 10 71h63v144c-19 1 -51 5 -68 8c-3 17 -4 55 -1 69c72 7 177 12 246 12c180 0 305 -84 305 -258c0 -200 -133 -285 -288 -285c-75 0 -194 2 -270 5c2 17 9 51 15 64c19 11 42 20 61 24zM265 460v-154h116c4 -14 7 -51 4 -71h-120v-158
c19 -2 44 -3 65 -3c114 0 176 60 176 196c0 131 -79 193 -190 193c-14 0 -39 -1 -51 -3z" />
    <glyph glyph-name="ntilde.sc" horiz-adv-x="714" 
d="M279 532l179 -288c19 -31 48 -89 55 -124h9v333c-26 1 -64 6 -82 11c-5 18 -6 52 -3 68h235c2 -9 2 -18 2 -24c0 -18 -2 -34 -5 -46c-16 -4 -41 -8 -60 -9v-452l-124 -14l-200 330c-14 23 -41 74 -51 104h-9v-337c21 -2 57 -10 75 -17c4 -17 6 -50 3 -67h-246
c2 19 9 49 16 63c16 10 40 19 61 25v365c-22 1 -52 6 -68 11c-4 18 -5 52 -2 68h215zM497 734c22 0 41 -3 62 -13c-2 -58 -39 -121 -123 -121c-59 0 -92 43 -145 43c-27 0 -45 -19 -50 -39c-23 1 -46 15 -59 31c10 56 47 102 122 102c67 0 91 -42 144 -42c26 0 44 17 49 39z
" />
    <glyph glyph-name="ograve.sc" horiz-adv-x="680" 
d="M342 547c166 0 277 -98 277 -277c0 -184 -109 -290 -277 -290c-181 0 -281 100 -281 290c0 172 121 277 281 277zM184 270c0 -128 59 -212 158 -212c102 0 154 81 154 212c0 115 -62 200 -154 200c-102 0 -158 -79 -158 -200zM363 589l-168 155c24 18 91 34 125 34
l124 -161c-16 -13 -58 -27 -81 -28z" />
    <glyph glyph-name="oacute.sc" horiz-adv-x="680" 
d="M342 547c166 0 277 -98 277 -277c0 -184 -109 -290 -277 -290c-181 0 -281 100 -281 290c0 172 121 277 281 277zM184 270c0 -128 59 -212 158 -212c102 0 154 81 154 212c0 115 -62 200 -154 200c-102 0 -158 -79 -158 -200zM488 740l-168 -162c-22 9 -50 34 -61 50
l125 158c27 -2 83 -27 104 -46z" />
    <glyph glyph-name="ocircumflex.sc" horiz-adv-x="680" 
d="M342 547c166 0 277 -98 277 -277c0 -184 -109 -290 -277 -290c-181 0 -281 100 -281 290c0 172 121 277 281 277zM184 270c0 -128 59 -212 158 -212c102 0 154 81 154 212c0 115 -62 200 -154 200c-102 0 -158 -79 -158 -200zM294 767l101 5l144 -144
c-10 -18 -39 -48 -61 -56l-138 109l-131 -108c-19 14 -38 45 -44 68z" />
    <glyph glyph-name="otilde.sc" horiz-adv-x="680" 
d="M342 547c166 0 277 -98 277 -277c0 -184 -109 -290 -277 -290c-181 0 -281 100 -281 290c0 172 121 277 281 277zM184 270c0 -128 59 -212 158 -212c102 0 154 81 154 212c0 115 -62 200 -154 200c-102 0 -158 -79 -158 -200zM468 734c22 0 41 -3 62 -13
c-2 -58 -39 -121 -123 -121c-59 0 -92 43 -145 43c-27 0 -45 -19 -50 -39c-23 1 -46 15 -59 31c10 56 47 102 122 102c67 0 91 -42 144 -42c26 0 44 17 49 39z" />
    <glyph glyph-name="odieresis.sc" horiz-adv-x="680" 
d="M206 734c39 0 68 -22 68 -64c0 -45 -29 -69 -68 -69c-46 0 -68 23 -68 69c0 39 27 64 68 64zM482 734c39 0 68 -22 68 -64c0 -45 -29 -69 -68 -69c-46 0 -68 23 -68 69c0 39 27 64 68 64zM342 547c166 0 277 -98 277 -277c0 -184 -109 -290 -277 -290
c-181 0 -281 100 -281 290c0 172 121 277 281 277zM184 270c0 -128 59 -212 158 -212c102 0 154 81 154 212c0 115 -62 200 -154 200c-102 0 -158 -79 -158 -200z" />
    <glyph glyph-name="oslash.sc" horiz-adv-x="693" 
d="M349 547c62 0 117 -14 161 -40l65 70c18 -6 52 -34 62 -50l-67 -73c37 -45 58 -107 58 -184c0 -184 -110 -290 -279 -290c-72 0 -130 15 -176 45l-85 -95c-14 13 -40 47 -46 68l75 81c-34 48 -52 111 -52 191c0 172 122 277 284 277zM507 270c0 38 -7 72 -20 101
l-248 -267c28 -30 65 -46 110 -46c104 0 158 81 158 212zM186 270c0 -39 5 -74 16 -104l245 265c-26 24 -60 39 -98 39c-105 0 -163 -79 -163 -200z" />
    <glyph glyph-name="ugrave.sc" horiz-adv-x="689" 
d="M582 453v-242c0 -139 -84 -231 -246 -231c-155 0 -223 83 -223 228v241c-20 3 -45 8 -62 14c-5 18 -8 50 -8 69h273c3 -17 1 -50 -3 -68c-22 -5 -58 -10 -83 -11v-240c0 -96 33 -150 122 -150c93 0 134 58 134 139v251c-21 1 -52 6 -69 11c-3 17 -5 52 -1 68h234
c1 -7 1 -16 1 -22c0 -18 -2 -36 -4 -47c-17 -5 -45 -9 -65 -10zM379 589l-168 155c24 18 91 34 125 34l124 -161c-16 -13 -58 -27 -81 -28z" />
    <glyph glyph-name="uacute.sc" horiz-adv-x="689" 
d="M582 453v-242c0 -139 -84 -231 -246 -231c-155 0 -223 83 -223 228v241c-20 3 -45 8 -62 14c-5 18 -8 50 -8 69h273c3 -17 1 -50 -3 -68c-22 -5 -58 -10 -83 -11v-240c0 -96 33 -150 122 -150c93 0 134 58 134 139v251c-21 1 -52 6 -69 11c-3 17 -5 52 -1 68h234
c1 -7 1 -16 1 -22c0 -18 -2 -36 -4 -47c-17 -5 -45 -9 -65 -10zM507 740l-168 -162c-22 9 -50 34 -61 50l125 158c27 -2 83 -27 104 -46z" />
    <glyph glyph-name="ucircumflex.sc" horiz-adv-x="689" 
d="M582 453v-242c0 -139 -84 -231 -246 -231c-155 0 -223 83 -223 228v241c-20 3 -45 8 -62 14c-5 18 -8 50 -8 69h273c3 -17 1 -50 -3 -68c-22 -5 -58 -10 -83 -11v-240c0 -96 33 -150 122 -150c93 0 134 58 134 139v251c-21 1 -52 6 -69 11c-3 17 -5 52 -1 68h234
c1 -7 1 -16 1 -22c0 -18 -2 -36 -4 -47c-17 -5 -45 -9 -65 -10zM308 767l101 5l144 -144c-10 -18 -39 -48 -61 -56l-138 109l-131 -108c-19 14 -38 45 -44 68z" />
    <glyph glyph-name="udieresis.sc" horiz-adv-x="689" 
d="M582 453v-242c0 -139 -84 -231 -246 -231c-155 0 -223 83 -223 228v241c-20 3 -45 8 -62 14c-5 18 -8 50 -8 69h273c3 -17 1 -50 -3 -68c-22 -5 -58 -10 -83 -11v-240c0 -96 33 -150 122 -150c93 0 134 58 134 139v251c-21 1 -52 6 -69 11c-3 17 -5 52 -1 68h234
c1 -7 1 -16 1 -22c0 -18 -2 -36 -4 -47c-17 -5 -45 -9 -65 -10zM236 734c39 0 68 -22 68 -64c0 -45 -29 -69 -68 -69c-46 0 -68 23 -68 69c0 39 27 64 68 64zM479 734c39 0 68 -22 68 -64c0 -45 -29 -69 -68 -69c-46 0 -68 23 -68 69c0 39 27 64 68 64z" />
    <glyph glyph-name="yacute.sc" horiz-adv-x="600" 
d="M361 204v-120c25 -2 69 -11 89 -18c5 -17 7 -49 4 -66h-299c1 18 10 48 17 62c19 10 47 19 71 24v113l-155 244c-18 5 -36 12 -49 20c-6 16 -10 48 -10 69h258c0 -24 -6 -53 -11 -73c-13 -5 -43 -12 -60 -15c12 -10 26 -28 34 -43l41 -76c8 -14 19 -39 23 -55h10
c5 17 15 40 24 55l45 76c8 14 23 34 35 44c-16 3 -39 10 -51 16c-6 19 -10 48 -10 71h214c0 -21 -9 -58 -16 -75c-11 -5 -33 -10 -48 -11zM457 740l-168 -162c-22 9 -50 34 -61 50l125 158c27 -2 83 -27 104 -46z" />
    <glyph glyph-name="thorn.sc" horiz-adv-x="567" 
d="M257 457v-38c10 1 29 2 42 2c148 0 236 -38 236 -146c0 -113 -102 -159 -211 -159c-20 0 -43 1 -67 4v-40c23 -2 66 -10 86 -16c5 -16 7 -48 4 -64h-284c2 18 9 47 15 61c16 10 41 18 61 24v371c-21 1 -50 6 -67 10c-4 17 -5 51 -2 66h265c2 -14 1 -49 -3 -65
c-20 -5 -52 -8 -75 -10zM255 346v-157c21 -2 44 -2 63 -2c65 0 103 19 103 81c0 53 -49 81 -118 81c-14 0 -34 -1 -48 -3z" />
    <glyph glyph-name="ydieresis.sc" horiz-adv-x="600" 
d="M361 204v-120c25 -2 69 -11 89 -18c5 -17 7 -49 4 -66h-299c1 18 10 48 17 62c19 10 47 19 71 24v113l-155 244c-18 5 -36 12 -49 20c-6 16 -10 48 -10 69h258c0 -24 -6 -53 -11 -73c-13 -5 -43 -12 -60 -15c12 -10 26 -28 34 -43l41 -76c8 -14 19 -39 23 -55h10
c5 17 15 40 24 55l45 76c8 14 23 34 35 44c-16 3 -39 10 -51 16c-6 19 -10 48 -10 71h214c0 -21 -9 -58 -16 -75c-11 -5 -33 -10 -48 -11zM198 734c39 0 68 -22 68 -64c0 -45 -29 -69 -68 -69c-46 0 -68 23 -68 69c0 39 27 64 68 64zM441 734c39 0 68 -22 68 -64
c0 -45 -29 -69 -68 -69c-46 0 -68 23 -68 69c0 39 27 64 68 64z" />
    <glyph glyph-name="dotlessi.sc" horiz-adv-x="396" 
d="M257 453v-369c20 -2 58 -10 76 -17c2 -11 4 -28 4 -44c0 -9 0 -16 -1 -23h-273c2 19 9 49 15 63c16 10 41 19 61 25v365c-21 1 -50 6 -67 11c-4 18 -5 52 -2 68h260c2 -17 1 -52 -3 -69c-19 -5 -49 -9 -70 -10z" />
    <glyph glyph-name="ij.sc" horiz-adv-x="778" 
d="M257 453v-369c20 -2 58 -10 76 -17c2 -11 4 -28 4 -44c0 -9 0 -16 -1 -23h-273c2 19 9 49 15 63c16 10 41 19 61 25v365c-21 1 -50 6 -67 11c-4 18 -5 52 -2 68h260c2 -17 1 -52 -3 -69c-19 -5 -49 -9 -70 -10zM423 -82c96 51 129 136 129 240v293c-29 2 -67 8 -89 14
c-4 18 -5 51 -2 67h279c1 -7 1 -16 1 -22c0 -18 -2 -36 -4 -47c-18 -5 -47 -9 -67 -11v-274c0 -158 -68 -270 -213 -324c-14 13 -29 42 -34 64z" />
    <glyph glyph-name="lslash.sc" horiz-adv-x="572" 
d="M265 74c50 0 117 2 165 9c3 21 10 56 18 78c19 4 57 7 79 4v-165h-456c1 19 9 49 15 63c16 10 41 19 61 25v106l-57 -32c-8 17 -12 52 -12 73l69 40v178c-22 1 -50 6 -68 11c-4 18 -5 52 -2 68h286c2 -15 0 -51 -4 -69c-26 -4 -65 -9 -94 -10v-127l126 74
c13 -12 30 -43 35 -61l-161 -94v-171z" />
    <glyph glyph-name="oe.sc" horiz-adv-x="906" 
d="M449 0c-34 -10 -68 -16 -105 -16c-181 0 -284 100 -284 282c0 175 119 278 289 278c36 0 69 -5 101 -12h381v-144c-23 0 -56 4 -77 10c-9 17 -17 38 -22 58h-166v-151h121c5 12 12 26 20 36c17 6 42 10 64 11v-168c-23 -2 -53 0 -70 5c-5 11 -10 31 -12 43h-123v-155h179
c2 17 10 49 17 66c20 4 56 8 80 6v-149h-393zM449 80v369c-30 12 -67 18 -98 18c-112 0 -168 -76 -168 -198c0 -128 59 -209 168 -209c33 0 69 6 98 20z" />
    <glyph glyph-name="scaron.sc" horiz-adv-x="544" 
d="M351 410v58c-17 9 -42 14 -65 14c-49 0 -74 -25 -74 -61c0 -113 271 -70 271 -268c0 -119 -99 -173 -218 -173c-68 0 -132 14 -188 44c-3 16 -4 33 -4 50c0 29 4 58 12 87c33 0 75 -5 105 -16v-70c25 -14 58 -20 89 -20c55 0 85 27 85 72c0 128 -271 74 -271 270
c0 96 77 155 193 155c61 0 126 -14 177 -40c1 -7 2 -21 2 -32c0 -32 -6 -71 -13 -93c-34 0 -78 10 -101 23zM328 585l-101 -3l-145 155c12 15 59 31 83 33l127 -97l121 99c19 -5 50 -20 64 -34z" />
    <glyph glyph-name="zcaron.sc" horiz-adv-x="575" 
d="M72 0l-11 58l293 388v10h-178c-4 -22 -14 -57 -23 -77c-25 0 -67 9 -86 17v136h428l11 -62l-293 -387v-9c65 0 142 4 202 12c3 21 11 54 18 74c21 6 71 8 95 5l-12 -165h-444zM342 585l-101 -3l-145 155c12 15 59 31 83 33l127 -97l121 99c19 -5 50 -20 64 -34z" />
    <glyph glyph-name="longs.sc" horiz-adv-x="544" 
d="M351 410v58c-17 9 -42 14 -65 14c-49 0 -74 -25 -74 -61c0 -113 271 -70 271 -268c0 -119 -99 -173 -218 -173c-68 0 -132 14 -188 44c-3 16 -4 33 -4 50c0 29 4 58 12 87c33 0 75 -5 105 -16v-70c25 -14 58 -20 89 -20c55 0 85 27 85 72c0 128 -271 74 -271 270
c0 96 77 155 193 155c61 0 126 -14 177 -40c1 -7 2 -21 2 -32c0 -32 -6 -71 -13 -93c-34 0 -78 10 -101 23z" />
    <glyph glyph-name="gravecomb.sc" horiz-adv-x="1" 
d="M-80 589l-168 155c24 18 91 34 125 34l124 -161c-16 -13 -58 -27 -81 -28z" />
    <glyph glyph-name="acutecomb.sc" horiz-adv-x="1" 
d="M1 740l-168 -162c-22 9 -50 34 -61 50l125 158c27 -2 83 -27 104 -46z" />
    <glyph glyph-name="uni0302.sc" horiz-adv-x="1" 
d="M-244 767l101 5l144 -144c-10 -18 -39 -48 -61 -56l-138 109l-131 -108c-19 14 -38 45 -44 68z" />
    <glyph glyph-name="tildecomb.sc" horiz-adv-x="1" 
d="M-61 734c22 0 41 -3 62 -13c-2 -58 -39 -121 -123 -121c-59 0 -92 43 -145 43c-27 0 -45 -19 -50 -39c-23 1 -46 15 -59 31c10 56 47 102 122 102c67 0 91 -42 144 -42c26 0 44 17 49 39z" />
    <glyph glyph-name="uni0304.sc" horiz-adv-x="1" 
d="M-1 619h-338c0 25 7 66 13 88h321c4 -18 6 -37 6 -54c0 -12 0 -21 -2 -34z" />
    <glyph glyph-name="uni0306.sc" horiz-adv-x="1" 
d="M-279 766c13 -59 47 -89 99 -89c53 0 87 31 103 86c29 -2 57 -9 78 -21c-14 -93 -76 -157 -181 -157c-106 0 -163 55 -179 148c16 17 51 30 80 33z" />
    <glyph glyph-name="uni0307.sc" horiz-adv-x="1" 
d="M-67 739c40 0 68 -23 68 -65c0 -47 -28 -71 -68 -71c-47 0 -69 23 -69 71c0 40 28 65 69 65z" />
    <glyph glyph-name="uni0308.sc" horiz-adv-x="1" 
d="M-310 734c39 0 68 -22 68 -64c0 -45 -29 -69 -68 -69c-46 0 -68 23 -68 69c0 39 27 64 68 64zM-67 734c39 0 68 -22 68 -64c0 -45 -29 -69 -68 -69c-46 0 -68 23 -68 69c0 39 27 64 68 64z" />
    <glyph glyph-name="uni030A.sc" horiz-adv-x="1" 
d="M-123 807c75 0 124 -38 124 -110c0 -74 -51 -112 -127 -112c-77 0 -124 39 -124 109s48 113 127 113zM-123 750c-32 0 -55 -20 -55 -54s22 -54 54 -54c30 0 53 19 53 55s-21 53 -52 53z" />
    <glyph glyph-name="uni030B.sc" horiz-adv-x="1" 
d="M-214 742l-161 -172c-20 7 -50 32 -62 48l117 169c29 -1 85 -26 106 -45zM1 742l-161 -172c-20 7 -50 32 -62 48l117 169c29 -1 85 -26 106 -45z" />
    <glyph glyph-name="uni030C.sc" horiz-adv-x="1" 
d="M-148 585l-101 -3l-145 155c12 15 59 31 83 33l127 -97l121 99c19 -5 50 -20 64 -34z" />
    <glyph glyph-name="uni0326.sc" horiz-adv-x="1" 
d="M-111 -128l-45 8c6 23 21 55 34 71c13 3 29 4 45 4c23 0 55 -3 78 -11c-12 -69 -62 -187 -93 -237c-21 5 -47 19 -58 28c14 38 33 98 39 137z" />
    <glyph glyph-name="quoteleft.sc" horiz-adv-x="279" 
d="M224 551c-23 -55 -54 -145 -64 -193l50 -12c-5 -21 -27 -62 -44 -79c-39 4 -92 20 -119 36c22 86 63 177 101 237c17 7 50 11 76 11z" />
    <glyph glyph-name="quoteright.sc" horiz-adv-x="278" 
d="M115 456l-49 12c7 25 23 62 39 79c14 3 30 5 46 5c28 0 61 -4 85 -13c-16 -90 -72 -219 -108 -278c-21 6 -47 20 -57 31c17 50 37 117 44 164z" />
    <glyph glyph-name="quotereversed.sc" horiz-adv-x="278" 
d="M227 467l-49 -12c8 -49 26 -122 43 -171c-13 -8 -46 -21 -67 -24c-33 62 -80 185 -98 276c24 7 58 13 89 13c15 0 30 -1 43 -4c15 -17 31 -53 39 -78z" />
    <glyph glyph-name="quotedblleft.sc" horiz-adv-x="482" 
d="M221 552c-23 -55 -54 -145 -63 -193l49 -12c-5 -21 -27 -62 -44 -79c-39 4 -89 20 -116 36c22 86 63 177 101 237c17 7 47 11 73 11zM427 552c-23 -55 -54 -145 -64 -193l50 -12c-5 -21 -28 -62 -45 -79c-38 4 -89 20 -116 36c22 86 64 177 101 237c17 7 48 11 74 11z
" />
    <glyph glyph-name="quotedblright.sc" horiz-adv-x="477" 
d="M115 455l-49 12c7 25 23 62 39 79c14 3 29 5 45 5c28 0 60 -4 83 -13c-16 -89 -71 -219 -107 -278c-21 6 -45 20 -55 31c18 50 37 117 44 164zM317 455l-49 12c7 25 23 62 39 79c14 3 29 5 45 5c28 0 59 -4 83 -13c-16 -89 -71 -219 -108 -278c-20 6 -44 20 -55 31
c18 50 38 117 45 164z" />
    <glyph glyph-name="fi.sc" horiz-adv-x="959" 
d="M257 293h120c4 12 11 27 20 37c16 7 42 11 63 12v-176c-22 -3 -53 0 -69 5c-5 12 -11 35 -12 48h-122v-135c23 -2 67 -11 87 -18c5 -16 7 -49 4 -66h-285c2 19 9 49 15 63c16 10 41 19 61 25v365c-21 1 -50 6 -67 11c-4 18 -5 52 -2 68h446v-147c-23 0 -56 3 -76 10
c-10 18 -18 40 -23 61h-160v-163zM820 453v-369c20 -2 58 -10 76 -17c2 -11 4 -28 4 -44c0 -9 0 -16 -1 -23h-273c2 19 9 49 15 63c16 10 41 19 61 25v365c-21 1 -50 6 -67 11c-4 18 -5 52 -2 68h260c2 -17 1 -52 -3 -69c-19 -5 -49 -9 -70 -10z" />
    <glyph glyph-name="fl.sc" horiz-adv-x="1127" 
d="M257 293h120c4 12 11 27 20 37c16 7 42 11 63 12v-176c-22 -3 -53 0 -69 5c-5 12 -11 35 -12 48h-122v-135c23 -2 67 -11 87 -18c5 -16 7 -49 4 -66h-285c2 19 9 49 15 63c16 10 41 19 61 25v365c-21 1 -50 6 -67 11c-4 18 -5 52 -2 68h446v-147c-23 0 -56 3 -76 10
c-10 18 -18 40 -23 61h-160v-163zM820 74c50 0 117 2 166 9c2 21 10 56 18 78c18 4 56 7 78 4v-165h-456c2 19 9 49 15 63c16 10 41 19 61 25v365c-21 1 -50 6 -67 11c-4 18 -5 52 -2 68h285c2 -15 0 -51 -3 -69c-27 -5 -66 -9 -95 -10v-379z" />
    <glyph glyph-name="parenleft.case" horiz-adv-x="335" 
d="M189 -114c-82 167 -112 332 -112 460c0 126 25 279 95 428c23 12 81 19 110 19c-60 -126 -88 -290 -88 -438c0 -152 27 -303 83 -434c-22 -14 -61 -28 -88 -35z" />
    <glyph glyph-name="parenright.case" horiz-adv-x="335" 
d="M70 -81c56 129 84 280 84 429c0 147 -23 300 -73 422c22 12 61 23 92 24c71 -149 97 -312 97 -436c0 -131 -30 -304 -112 -473c-28 6 -67 20 -88 34z" />
    <glyph glyph-name="asterisk.case" horiz-adv-x="452" 
d="M359 392l-79 59c-10 8 -25 22 -32 31l-5 -4c6 -11 13 -31 14 -43l8 -94c-10 -3 -28 -5 -42 -5c-12 0 -32 2 -44 5l8 94c1 12 7 33 11 41l-5 5c-6 -8 -20 -23 -30 -30l-78 -59c-13 15 -34 54 -40 74l85 36c11 5 33 12 44 14v6c-11 1 -33 7 -44 12l-82 36c3 19 21 60 34 78
l80 -54c10 -7 26 -22 31 -30l6 4c-5 11 -11 29 -12 41l-6 89c20 4 60 7 82 7l-6 -96c-1 -12 -7 -32 -14 -43l7 -5c8 11 21 25 32 32l76 53c15 -14 40 -46 52 -66l-96 -46c-10 -5 -30 -10 -43 -11v-6c13 -1 32 -7 43 -12l90 -38c-6 -21 -31 -61 -45 -75z" />
    <glyph glyph-name="plus.case" 
d="M339 389h188c4 -16 6 -37 6 -54c0 -12 -1 -23 -3 -32h-191v-204c-12 -3 -31 -5 -51 -5c-21 0 -42 2 -56 5v204h-195c0 24 6 65 13 86h182v195c25 5 75 9 107 9v-204z" />
    <glyph glyph-name="hyphen.case" horiz-adv-x="369" 
d="M311 317h-262c0 27 6 71 14 94h243c4 -17 7 -42 7 -63c0 -11 -1 -24 -2 -31z" />
    <glyph glyph-name="colon.case" horiz-adv-x="313" 
d="M170 605c44 0 74 -27 74 -74c0 -50 -30 -79 -74 -79c-49 0 -76 28 -76 79c0 44 31 74 76 74zM169 246c45 0 77 -27 77 -75c0 -53 -32 -81 -77 -81c-51 0 -78 27 -78 81c0 45 32 75 78 75z" />
    <glyph glyph-name="less.case" 
d="M478 540l-269 -191v-9l259 -186c-8 -19 -42 -61 -61 -73l-316 230l4 69l303 224c25 -14 63 -45 80 -64z" />
    <glyph glyph-name="equal.case" 
d="M502 396h-438c0 25 6 66 12 87h423c4 -16 6 -38 6 -55c0 -12 -1 -23 -3 -32zM502 209h-439c0 25 7 66 13 87h423c4 -16 6 -38 6 -55c0 -12 -1 -23 -3 -32z" />
    <glyph glyph-name="greater.case" 
d="M481 313l-317 -235c-19 11 -54 53 -62 73l260 188v9l-270 188c17 20 55 51 81 63l304 -218z" />
    <glyph glyph-name="at.case" horiz-adv-x="856" 
d="M603 483l-30 -221c0 -4 1 -11 3 -17c102 14 142 114 142 191c0 141 -132 213 -267 213c-177 0 -294 -124 -294 -299c0 -174 116 -298 300 -298c66 0 128 16 181 42c14 -11 31 -38 39 -55c-71 -39 -147 -59 -232 -59c-227 0 -377 143 -377 360c0 225 159 381 390 381
c190 0 346 -107 346 -285c0 -144 -103 -261 -299 -269c-9 14 -17 37 -20 54h-7c-20 -33 -59 -54 -100 -54c-58 0 -105 42 -105 135c0 56 17 109 52 151c36 43 83 67 150 67c54 0 98 -16 128 -37zM476 276l26 178c-7 3 -21 6 -32 6c-30 0 -57 -19 -72 -42
c-19 -30 -25 -73 -25 -106c0 -53 17 -73 43 -73c22 0 46 15 60 37z" />
    <glyph glyph-name="bracketleft.case" horiz-adv-x="349" 
d="M95 -92v885h184c2 -15 0 -55 -4 -72c-19 -4 -48 -6 -67 -7v-727c23 -1 63 -6 82 -12c3 -14 4 -28 4 -42c0 -9 -1 -19 -2 -25h-197z" />
    <glyph glyph-name="bracketright.case" horiz-adv-x="349" 
d="M250 793v-885h-200c1 19 7 51 12 69c19 5 54 10 76 12v724c-21 1 -49 5 -66 8c-3 17 -4 57 0 72h178z" />
    <glyph glyph-name="braceleft.case" horiz-adv-x="358" 
d="M42 323c0 22 7 54 12 68c60 5 67 40 67 99v137c0 97 38 168 185 174c0 -20 -6 -58 -15 -76c-42 -6 -59 -34 -59 -93v-134c0 -70 -19 -118 -73 -136v-7c54 -17 73 -57 73 -128v-158c0 -63 22 -97 69 -100c3 -25 2 -51 -4 -75c-138 6 -176 67 -176 161v157
c0 70 -10 106 -79 111z" />
    <glyph glyph-name="braceright.case" horiz-adv-x="358" 
d="M199 354v7c-58 22 -71 70 -71 147v116c0 70 -21 99 -74 104c0 18 10 56 20 72c133 -10 166 -85 166 -167v-138c0 -58 6 -100 72 -104c5 -16 9 -49 9 -68c-63 -4 -81 -31 -81 -99v-160c0 -98 -34 -165 -176 -171c-6 21 -7 51 -4 75c42 2 68 35 68 89v160
c0 73 15 117 71 137z" />
    <glyph glyph-name="exclamdown.case" horiz-adv-x="354" 
d="M109 4l25 473c16 5 40 8 56 8c11 0 23 -1 29 -2l35 -479c-21 -6 -46 -7 -69 -7c-27 0 -52 2 -76 7zM178 713c43 0 75 -26 75 -72c0 -50 -32 -78 -75 -78c-49 0 -74 27 -74 78c0 43 31 72 74 72z" />
    <glyph glyph-name="ordfeminine.case" horiz-adv-x="442" 
d="M269 411h-7c-15 -29 -50 -48 -94 -48c-51 0 -103 30 -103 95c0 72 61 108 130 108c20 0 43 -3 59 -9v23c0 32 -21 47 -58 47c-30 0 -81 -13 -108 -28c-5 20 0 61 8 79c25 10 79 18 119 18c91 0 129 -35 129 -121v-95c0 -19 2 -38 8 -44c11 0 34 4 47 8
c0 -16 -4 -44 -11 -58c-20 -11 -63 -23 -91 -23c-13 10 -25 30 -28 48zM254 452v57c-11 2 -26 4 -37 4c-41 0 -64 -16 -64 -45c0 -30 22 -40 46 -40c21 0 43 9 55 24zM87 322h276c3 -13 6 -52 3 -72h-289c0 19 4 53 10 72z" />
    <glyph glyph-name="guillemotleft.case" horiz-adv-x="610" 
d="M204 366c24 -66 53 -130 87 -196c-23 -10 -70 -20 -98 -20c-44 70 -88 149 -118 216c29 67 62 126 104 194c31 9 82 18 119 18c-35 -70 -68 -143 -94 -212zM430 369c24 -66 53 -130 87 -196c-23 -10 -70 -20 -98 -20c-44 70 -88 149 -118 216c29 67 62 126 104 194
c31 9 82 18 119 18c-35 -70 -68 -143 -94 -212z" />
    <glyph glyph-name="logicalnot.case" 
d="M66 391h443v-191c-11 -3 -29 -5 -49 -5s-41 2 -55 5v103h-352c0 26 7 67 13 88z" />
    <glyph glyph-name="uni00AD.case" horiz-adv-x="369" 
d="M311 317h-262c0 27 6 71 14 94h243c4 -17 7 -42 7 -63c0 -11 -1 -24 -2 -31z" />
    <glyph glyph-name="macron.case" horiz-adv-x="476" 
d="M428 785h-383c0 25 7 68 14 91h366c3 -16 5 -39 5 -59c0 -11 -1 -25 -2 -32z" />
    <glyph glyph-name="plusminus.case" 
d="M335 487h156c4 -14 6 -35 6 -50c0 -12 -1 -21 -3 -30h-159v-174c-8 -2 -30 -4 -47 -4c-16 0 -41 1 -52 4v174h-163c0 23 6 61 12 80h151v168c24 4 69 8 99 8v-176zM81 83h405c4 -15 6 -36 6 -52c0 -12 -1 -22 -3 -31h-419c0 24 6 62 11 83z" />
    <glyph glyph-name="periodcentered.case" horiz-adv-x="336" 
d="M169 439c48 0 81 -29 81 -80c0 -55 -33 -85 -81 -85c-54 0 -83 29 -83 85c0 48 34 80 83 80z" />
    <glyph glyph-name="ordmasculine.case" horiz-adv-x="446" 
d="M227 696c99 0 165 -57 165 -160c0 -108 -65 -173 -165 -173c-106 0 -168 62 -168 173c0 99 72 160 168 160zM152 536c0 -66 29 -108 75 -108s71 42 71 108c0 55 -29 97 -71 97c-48 0 -75 -39 -75 -97zM87 322h284c3 -13 6 -52 3 -72h-297c0 19 4 53 10 72z" />
    <glyph glyph-name="guillemotright.case" horiz-adv-x="612" 
d="M323 178c32 65 60 124 85 190c-25 65 -52 127 -85 192c24 11 65 21 97 21c44 -71 88 -148 116 -213c-30 -67 -76 -148 -119 -218c-29 2 -71 15 -94 28zM95 175c32 65 60 124 85 190c-25 65 -52 127 -85 192c24 11 65 21 97 21c44 -71 88 -148 116 -213
c-30 -67 -76 -148 -119 -218c-29 2 -71 15 -94 28z" />
    <glyph glyph-name="questiondown.case" horiz-adv-x="497" 
d="M342 76v94c23 14 65 21 92 22c9 -50 14 -114 14 -173c-50 -19 -144 -37 -210 -37c-119 0 -195 55 -195 142c0 138 193 187 193 269c0 26 -9 56 -25 76c21 15 62 31 95 33c24 -26 43 -69 43 -102c0 -110 -175 -165 -175 -264c0 -35 27 -77 90 -77c25 0 54 6 78 17z
M257 713c43 0 75 -26 75 -72c0 -50 -32 -78 -75 -78c-49 0 -74 27 -74 78c0 43 31 72 74 72z" />
    <glyph glyph-name="multiply.case" 
d="M346 344l164 -161c-10 -20 -44 -53 -64 -65l-161 164l-160 -164c-23 14 -55 47 -66 65l164 161l-169 165c15 18 51 43 76 54l155 -158l152 157c26 -8 64 -35 79 -53z" />
    <glyph glyph-name="divide.case" 
d="M518 301h-471c0 25 6 66 12 87h456c4 -16 6 -38 6 -55c0 -12 -1 -23 -3 -32zM284 209c37 0 63 -21 63 -60c0 -42 -26 -65 -63 -65c-41 0 -63 22 -63 65c0 37 27 60 63 60zM284 601c37 0 63 -21 63 -60c0 -42 -26 -65 -63 -65c-41 0 -63 22 -63 65c0 37 27 60 63 60z" />
    <glyph glyph-name="gravecomb.case" horiz-adv-x="1" 
d="M-30 751l-264 101c17 27 63 66 91 78l204 -103c-4 -21 -18 -60 -31 -76z" />
    <glyph glyph-name="acutecomb.case" horiz-adv-x="1" 
d="M1 844l-266 -96c-8 20 -14 59 -14 81l218 105c23 -19 50 -59 62 -90z" />
    </font>
</defs>
</svg>
